<?xml version="1.0" standalone="no"?>
<!DOCTYPE svg PUBLIC "-//W3C//DTD SVG 1.1//EN" "http://www.w3.org/Graphics/SVG/1.1/DTD/svg11.dtd" >
<svg xmlns="http://www.w3.org/2000/svg" xmlns:xlink="http://www.w3.org/1999/xlink" version="1.1">
<metadata>
Created by FontForge 20200427 at Sat Aug 13 18:44:28 2005
 By www
Copyright (c) Gophmann Alexandra Leopoldovna, 2005. All rights reserved.
</metadata>
<defs>
<font id="Corinthia" horiz-adv-x="750" >
  <font-face 
    font-family="Corinthia"
    font-weight="400"
    font-stretch="normal"
    units-per-em="1000"
    panose-1="3 0 4 0 0 0 0 0 0 0"
    ascent="800"
    descent="-200"
    x-height="220"
    cap-height="575"
    bbox="-364 -425 1345 746"
    underline-thickness="20"
    underline-position="-163"
    unicode-range="U+0020-F002"
  />
<missing-glyph horiz-adv-x="500" 
d="M63 0v600h375v-600h-375zM125 63h250v475h-250v-475z" />
    <glyph glyph-name=".notdef" horiz-adv-x="500" 
d="M63 0v600h375v-600h-375zM125 63h250v475h-250v-475z" />
    <glyph glyph-name=".null" horiz-adv-x="0" 
 />
    <glyph glyph-name="nonmarkingreturn" horiz-adv-x="147" 
 />
    <glyph glyph-name="space" unicode=" " horiz-adv-x="147" 
 />
    <glyph glyph-name="exclam" unicode="!" horiz-adv-x="250" 
d="M348 464l-6 -9l-27 -42q-108 -170 -156 -263q-6 -13 -19 -40q-6 -13 -15 -13q-7 0 -7 7q0 17 87 186q81 157 106 197q1 2 3 2q6 0 20 -10t14 -15zM109 8q0 -24 -25 -24q-26 0 -26 24t26 24q25 0 25 -24z" />
    <glyph glyph-name="quotedbl" unicode="&#x22;" horiz-adv-x="156" 
d="M156 419q0 -13 -7.5 -59t-11.5 -54q-2 -4 -6 -4q-3 0 -3 8q0 68 -5 109q21 3 30 3q2 0 3 -1v-2zM87 419q0 -13 -7.5 -59t-11.5 -54q-2 -4 -6 -4q-3 0 -3 8q0 68 -5 109q21 3 30 3q2 0 3 -1v-2z" />
    <glyph glyph-name="numbersign" unicode="#" horiz-adv-x="634" 
d="M629 319q0 -12 -8 -12q2 0 -52 8q-60 9 -114 15q-43 -73 -71 -137q151 -4 190 -22q12 -6 12 -25q0 -12 -9 -12q5 0 -69 11t-138 16q-39 -98 -39 -180q0 -5 -7 -5q-11 0 -11 17q0 66 36 170q-55 4 -103 4q-31 0 -58 -2q-41 -101 -41 -184q0 -5 -7 -5q-11 0 -11 17
q0 66 36 170q-23 -2 -80.5 -20.5t-76.5 -18.5q-6 0 -6 10q0 5 3 7q45 28 167 43q27 76 66 155q-30 -2 -96.5 -22t-89.5 -20q-6 0 -6 10q0 5 3 7q54 33 200 47q71 137 97 152q3 2 9 2q24 0 24 -13q-41 -64 -88 -138q71 4 145 2q68 132 94 147q3 2 9 2q24 0 24 -13
q-41 -64 -88 -138q114 -7 142 -20q12 -6 12 -25zM420 334q-74 6 -130 6h-14q-48 -83 -79 -153q76 8 162 6q26 69 61 141z" />
    <glyph glyph-name="dollar" unicode="$" horiz-adv-x="364" 
d="M395 417q0 -9 -9 -18q-18 -16 -53 -53q-12 -17 -20 -17q-6 0 -6 7q0 5 26 38.5t26 50.5q0 21 -34 25q-62 -96 -103 -183q40 -30 50 -41q30 -28 30 -54q0 -37 -43 -62q-37 -22 -77 -22q-14 0 -26 2q-7 -25 -11 -49q0 -8 -3 -23q-2 -6 -7 -6q-4 0 -4 6q0 15 15 74
q-49 10 -65 49q-2 6 -2 9q0 2 1 2q3 -2 6 -8q21 -32 64 -35q20 73 54 154q-79 48 -79 92q0 45 72 81q60 29 113 31q27 44 35 44q12 0 12 -11q0 -3 -22 -36q39 -8 38 -49l14 8q8 0 8 -6zM300 450q-47 -2 -92 -24q-58 -27 -58 -66q0 -38 60 -84q40 91 90 174zM287 179
q0 33 -71 76q-36 -77 -55 -147h6q39 0 75 16q45 21 45 55z" />
    <glyph glyph-name="percent" unicode="%" horiz-adv-x="372" 
d="M443 524q0 -2 -2 -5q-25 -24 -73 -73q-241 -244 -312 -391q-6 -12 -20 -53q-2 -5 -9 -5q-8 0 -8 7q0 4 11 30q55 135 237 349q-14 -5 -28 -5q-17 0 -31 8q-38 -60 -80 -60q-29 0 -29 33q0 48 42 112q-1 9 -1 19q0 30 20 58.5t49 28.5q19 0 30 -24q10 -19 10 -39
q0 -45 -35 -114q12 -8 28 -8q28 0 47 17q8 9 23 25q34 39 98 98q6 4 13 4q20 0 20 -12zM282 174q0 -45 -34 -114q8 -5 8 -8q0 -5 -14 -5q-39 -61 -80 -61q-29 0 -29 34q0 47 42 112q-2 9 -2 18q0 30 20 58.5t50 28.5q18 0 30 -23q9 -19 9 -40zM224 493q0 18 -6 38
q-8 26 -22 26q-19 0 -30 -23q-8 -19 -8 -40q15 16 27 16q13 0 18 -8q0 -2 1 -4.5t1 -4.5q0 -3 -9 -3q-15 0 -31 -32q11 -31 38 -51q21 52 21 86zM196 396q-27 18 -42 42q-25 -53 -25 -76q0 -16 13 -16q12 0 31 19q16 17 23 31zM257 154q0 18 -6 37q-8 26 -21 26
q-19 0 -30 -23q-8 -18 -8 -40q14 16 27 16t18 -8q0 -1 1 -4v-5t-8 -2q-15 0 -32 -32q11 -32 39 -52q20 53 20 87zM230 56q-28 18 -42 42q-25 -52 -25 -76q0 -16 13 -16q12 0 31 19q16 17 23 31z" />
    <glyph glyph-name="ampersand" unicode="&#x26;" horiz-adv-x="548" 
d="M546 279q0 -39 -80 -63q12 -30 12 -58q0 -90 -118 -145q-94 -44 -197 -44q-62 0 -104 24q-52 29 -52 87q0 78 81 137q49 36 151 75q-91 6 -91 49q0 64 98 106q78 35 153 35q40 0 72 -14q42 -17 42 -52q0 -14 -5 -25q-8 -15 -26 -15q-4 0 -4 5q0 2 5 13.5t5 20.5
q0 27 -38 40q-27 9 -62 9q-63 0 -129 -30q-79 -37 -79 -93q0 -33 60 -33q18 0 51 6.5t44 6.5q14 0 14 -8q0 -7 -19 -12.5t-59 -17.5q-233 -73 -233 -200q0 -47 41 -72q34 -22 84 -22q95 0 185 44q110 53 110 137q0 20 -7 41l-84 -16q-54 -12 -82 -31q-37 -25 -37 -69
q0 -6 -4 -6q-8 0 -8 8q0 76 58 106q27 13 121 28q80 13 108 42q9 9 9 16t-8.5 12.5t-8.5 8.5q0 5 4 5q10 0 18.5 -12.5t8.5 -23.5z" />
    <glyph glyph-name="quotesingle" unicode="'" horiz-adv-x="86" 
d="M87 419q0 -13 -7.5 -59t-11.5 -54q-2 -4 -6 -4q-3 0 -3 8q0 68 -5 109q21 3 30 3q2 0 3 -1v-2z" />
    <glyph glyph-name="parenleft" unicode="(" horiz-adv-x="318" 
d="M362 511q-116 -48 -204 -172q-90 -127 -90 -250q0 -122 18 -151q4 -6 4 -10q0 -6 -6 -6q-22 0 -36 72q-10 52 -10 91q0 140 73 245q63 92 191 172q35 21 49 21q12 0 11 -12z" />
    <glyph glyph-name="parenright" unicode=")" horiz-adv-x="370" 
d="M332 358q0 -140 -72 -246q-63 -92 -192 -172q-34 -21 -49 -21q-11 0 -11 11q114 47 203 171q93 126 93 246q0 125 -20 157q-3 6 -3 10q0 6 6 6q22 0 35 -72q10 -52 10 -90z" />
    <glyph glyph-name="asterisk" unicode="*" horiz-adv-x="599" 
d="M565 265v-1q-13 -8 -229 -7q35 -31 104 -94q15 -14 31 -27q20 -20 20 -31q0 -22 -6 -22q-11 0 -157 148q0 -27 4 -99q3 -62 3 -98q0 -5 -9 -12.5t-14 -7.5h-2q-8 13 -6 224q-32 -36 -96 -106q-13 -15 -27 -31q-19 -20 -31 -20q-21 0 -21 6q0 12 161 171q-209 3 -225 10
q-4 2 -4 3q0 6 7 6q57 0 212 3q-146 151 -146 165q0 2 4 2q1 0 166 -160q4 211 11 227q2 4 3 4q6 0 6 -7q0 -60 3 -218q149 145 163 145q2 0 2 -4q0 -2 -146 -153q27 1 99 5q64 3 100 3q5 0 12.5 -9t7.5 -15z" />
    <glyph glyph-name="plus" unicode="+" horiz-adv-x="452" 
d="M404 302v-4l-9 -6q-41 0 -151 -1q-2 -136 -7 -147q-3 -6 -8 -6q-2 0 -4 8q-6 21 -6 92v23.5v25.5v3q-19 0 -69 -3q-44 -2 -70 -2q-6 0 -12 7t-7 14l5 5q41 5 153 4q-1 19 -3 69q-3 43 -3 69q0 6 7.5 12t14.5 6l5 -5q5 -40 4 -151q70 -1 154 -7q6 -3 6 -6z" />
    <glyph glyph-name="comma" unicode="," horiz-adv-x="192" 
d="M161 20q0 -21 -36.5 -64t-54.5 -43q-2 0 -2 1q0 4 7 11t50 70h-3q-15 -1 -15 22q0 27 32 27q22 0 22 -24z" />
    <glyph glyph-name="hyphen" unicode="-" horiz-adv-x="228" 
d="M218 121q0 -7 -26 -8l-54 -3q-30 -4 -94 -9h-5q-20 -1 -20 7q0 14 35 25q16 6 45 6q35 0 93 -8q26 -4 26 -10z" />
    <glyph glyph-name="hyphen" unicode="&#x2010;" horiz-adv-x="228" 
d="M218 121q0 -7 -26 -8l-54 -3q-30 -4 -94 -9h-5q-20 -1 -20 7q0 14 35 25q16 6 45 6q35 0 93 -8q26 -4 26 -10z" />
    <glyph glyph-name="period" unicode="." horiz-adv-x="185" 
d="M161 8q0 -24 -25 -24q-27 0 -27 24t27 24q25 0 25 -24z" />
    <glyph glyph-name="slash" unicode="/" horiz-adv-x="296" 
d="M462 503q0 -2 -2 -5q-25 -24 -74 -73q-241 -244 -311 -391q-6 -12 -21 -53q-2 -5 -8 -5q-8 0 -8 7q0 8 18 47q79 172 289 399q26 29 83 82q6 4 14 4q20 0 20 -12z" />
    <glyph glyph-name="zero" unicode="0" horiz-adv-x="492" 
d="M489 238q0 -74 -77 -146q-52 -49 -124 -81q-77 -35 -143 -35q-59 0 -98 33q-42 36 -42 93q0 94 84 166q44 36 120.5 66.5t130.5 30.5q26 0 26 -5q0 -3 -8 -4q-150 -15 -233 -88q-39 -36 -66 -84q-30 -53 -30 -101q0 -95 116 -95q114 0 236 110q33 30 56 69q28 46 28 83
q0 65 -85 65q-111 0 -203 -79q-1 -2 -4 -2q-4 0 -4 4q0 14 54 44q79 45 151 45q115 0 115 -89z" />
    <glyph glyph-name="one" unicode="1" horiz-adv-x="220" 
d="M242 352l-1 -2q-26 -35 -71 -115q-57 -101 -101 -197q-9 -23 -29 -68q-2 -3 -9 -3t-7 6q0 2 1 5l74 158q43 93 67 160q-5 0 -13 -6t-12 -6t-4 5t7 12q24 23 72 67q2 1 5 1q6 0 13.5 -5.5t7.5 -11.5z" />
    <glyph glyph-name="two" unicode="2" horiz-adv-x="340" 
d="M379 307q0 -37 -30 -73q-17 -20 -60 -56q-6 -5 -100 -68q-81 -55 -83 -64h28q19 1 29 1q66 0 90 -19q5 -4 5 -8q0 -3 -3 -3q-2 0 -7 2q-33 17 -64 17q-52 0 -130 -27q-51 -17 -49 -17q-10 0 -10 18q0 11 46 27q35 13 78 39q68 41 140 105q99 87 99 133q0 40 -39 40
q-67 0 -174 -130q-3 -4 -7 -4q-5 0 -5 6v2q7 35 56 80q46 42 83 51q24 5 44 5q63 0 63 -57z" />
    <glyph glyph-name="three" unicode="3" horiz-adv-x="340" 
d="M336 318q0 -43 -106 -96q58 -35 58 -88q0 -63 -66 -115q-62 -48 -127 -48q-74 0 -90 49q-8 26 -8 46q0 17 9 17q6 0 6 -5q0 -94 78 -94q66 0 118.5 50t52.5 116q0 64 -57 64q-5 0 -17 -4.5t-18 -4.5q-8 0 -8 7q0 15 22 15q3 0 9 -1h10q25 0 64 31.5t39 55.5q0 25 -33 25
t-60.5 -19t-25.5 -19q-3 0 -3 4q0 3 4 8q14 17 47 30.5t57 13.5q17 0 31 -10.5t14 -27.5z" />
    <glyph glyph-name="four" unicode="4" horiz-adv-x="331" 
d="M330 357v-16q-11 -12 -58.5 -87.5t-47.5 -83.5q0 -4 31.5 -8.5t31.5 -12.5q0 -6 -6 -6q-8 0 -25 3.5t-26 3.5q-10 0 -18 -1q-34 -60 -87 -178q-7 1 -7 12q0 13 31 79q36 78 39 87q-1 2 -7 2q-30 0 -89 -11.5t-72 -11.5q-8 0 -8 10q0 6 22 21q15 9 30 19l134 94
q76 57 119 112q13 0 13 -27zM284 328q-45 -39 -91 -73q-37 -26 -108 -82q39 -3 111 -3q7 0 45 71q28 54 43 87z" />
    <glyph glyph-name="five" unicode="5" horiz-adv-x="330" 
d="M359 328q-64 -3 -74 -4q-42 -3 -73 -10l-30 -9q-5 0 -16 -5q-15 -11 -45 -73q39 17 79 17q89 0 89 -73q0 -67 -63 -130t-130 -63q-37 0 -64 24t-27 60q0 6 7.5 26.5t11.5 20.5q6 0 6 -6q0 -1 -5.5 -13.5t-5.5 -22.5q0 -72 72 -72q38 0 72.5 19.5t64.5 65.5t30 84
q0 36 -15.5 49.5t-51.5 13.5q-35 0 -85 -44q-6 -7 -17 -17q-4 -3 -8 -3q-14 0 -14 12q0 3 32 52t37 66q-14 9 -14 12q31 25 33 25q4 0 13 -1h13q23 0 68.5 5.5t68.5 5.5t41 -4v-8z" />
    <glyph glyph-name="six" unicode="6" horiz-adv-x="295" 
d="M273 390q0 -6 -13 -16q-18 -13 -54 -40q-63 -54 -108 -119q-54 -81 -54 -148q0 -79 58 -79q52 0 96 55t44 108q0 57 -49 57q-25 0 -51 -18t-30 -18q-3 2 -3 4q0 13 34 31q31 17 45 17q35 0 58 -25.5t23 -60.5q0 -56 -58.5 -109.5t-114.5 -53.5q-38 0 -59 35
q-19 30 -19 70q0 78 85 178q76 90 156 130q8 3 12 3q2 0 2 -1z" />
    <glyph glyph-name="seven" unicode="7" horiz-adv-x="298" 
d="M295 329q0 -22 -127 -150q-108 -109 -122 -196q-4 -1 -6 -1q-6 0 -11 15q-5 12 -5 20q0 23 35 68q20 27 59.5 71.5t79.5 90.5q65 76 65 93q0 9 -20 9q-29 0 -78 -17q-44 -16 -73 -33q-8 -7 -15 -13q-10 -8 -18 -8q-9 0 -9 13q0 26 27 37q89 36 168 36q14 0 32 -11t18 -24
z" />
    <glyph glyph-name="eight" unicode="8" horiz-adv-x="310" 
d="M399 379q0 -4 -35.5 -26.5t-46.5 -27.5q13 -30 13 -44q0 -9 -5 -9q-6 0 -30 39q-10 -1 -76 -48.5t-67 -54.5q24 -42 24 -76q0 -54 -42 -99t-96 -45t-54 55q0 42 51 93q8 9 85 74q-16 33 -16 61q0 44 40 74q37 28 82 28q23 0 46 -9q28 -10 38 -27q73 43 87 43q2 0 2 -1z
M289 326q-16 34 -66 34q-36 0 -64 -20q-32 -22 -32 -56q0 -19 18 -58q36 27 144 100zM154 119q0 24 -28 72q-34 -20 -73 -69q-45 -54 -45 -86q0 -37 34 -37q41 0 76.5 39.5t35.5 80.5z" />
    <glyph glyph-name="nine" unicode="9" horiz-adv-x="306" 
d="M306 338q0 -37 -20 -48q-4 4 -4 6q0 5 4.5 20t4.5 23q0 35 -45 35q-56 0 -127 -67.5t-71 -122.5q0 -34 31 -34q21 0 57 16q32 15 52 32q22 24 68 71q2 2 5 2q5 0 12.5 -7t7.5 -12q0 -3 -48 -78q-88 -139 -99 -198q-3 -23 -10 -23q-4 0 -4 9q0 62 89 240q-28 -24 -66 -44
q-45 -22 -75 -22q-46 0 -46 55q0 62 81 129q78 65 142 65q61 0 61 -47z" />
    <glyph glyph-name="colon" unicode=":" horiz-adv-x="144" 
d="M169 133q0 -24 -25 -24t-25 24t25 24t25 -24zM114 24q0 -24 -25 -24q-27 0 -27 24t27 24q25 0 25 -24z" />
    <glyph glyph-name="semicolon" unicode=";" horiz-adv-x="139" 
d="M192 152q0 -25 -26 -25t-26 25q0 24 26 24t26 -24zM113 20q0 -21 -36.5 -64t-54.5 -43q-1 0 -2 1q0 4 7 11t50 70h-3q-15 -1 -15 22q0 27 32 27q22 0 22 -24z" />
    <glyph glyph-name="less" unicode="&#x3c;" horiz-adv-x="318" 
d="M229 436q0 -15 -99 -153q97 -123 97 -134q0 -14 -10 -13l-8 4q-22 30 -57 59q-32 26 -64 51q-3 2 -3 6q0 11 52 86q46 65 66 89q9 11 19 11q7 0 7 -6z" />
    <glyph glyph-name="equal" unicode="=" horiz-adv-x="228" 
d="M236 198q0 -8 -26 -8l-54 -3q-30 -4 -94 -9l-5 -1q-20 0 -20 8q0 13 35 25q16 5 45 5q35 0 93 -7q26 -4 26 -10zM218 121q0 -7 -26 -8l-54 -3q-30 -4 -94 -9h-5q-20 -1 -20 7q0 14 35 25q16 6 45 6q35 0 93 -8q26 -4 26 -10z" />
    <glyph glyph-name="greater" unicode="&#x3e;" horiz-adv-x="318" 
d="M229 315q0 -11 -53 -86q-45 -65 -66 -89q-9 -11 -19 -11q-6 0 -6 6q0 15 99 153q-98 124 -98 134q0 14 11 13l8 -4q22 -30 55.5 -57.5t65.5 -52.5q3 -2 3 -6z" />
    <glyph glyph-name="question" unicode="?" horiz-adv-x="425" 
d="M452 426q0 -51 -64 -109q-60 -47 -121 -94q-64 -53 -64 -95q0 -8 6 -10q-1 -17 -12 -17q-18 0 -18 24q0 42 63 105l116 108q63 60 63 95q0 31 -32 31q-61 0 -126 -36q-58 -32 -103 -82q-5 -5 -11 -5q-4 0 -4 4t6 14q9 14 38 38q102 87 194 87q25 0 47 -16.5t22 -41.5z
M196 8q0 -24 -26 -24t-26 24t26 24t26 -24z" />
    <glyph glyph-name="at" unicode="@" horiz-adv-x="547" 
d="M518 251q0 -54 -61 -129q-56 -69 -110 -96q-48 -23 -105 -23q-87 0 -149 48q-66 52 -66 137q0 75 64 149q57 66 133 99q50 21 102 21q66 0 110 -33q49 -36 49 -100q0 -24 -8 -52q-14 -49 -58 -95q-49 -52 -95 -52q-55 0 -55 72q0 13 2 27q-55 -99 -99 -99q-26 0 -26 29
q0 42 41.5 104t81.5 75q15 5 28 5q11 0 28 -7.5t17 -18.5q-5 -2 -14 -8q-9 -12 -17 -50q-7 -34 -7 -54q0 -53 33 -53q13 0 33 10q41 22 71.5 72.5t30.5 97.5q0 51 -44 77q-36 21 -91 21q-61 0 -113 -23q-77 -35 -126 -88q-59 -64 -59 -137q0 -71 62 -109q53 -32 128 -32
q70 0 126 26q104 49 154 190q3 7 5 7q4 0 4 -8zM302 311q-3 1 -7 1q-36 0 -78 -53.5t-42 -90.5q0 -17 12 -17q26 0 67 66q30 48 48 94z" />
    <glyph glyph-name="A" unicode="A" 
d="M802 572q0 -3 -5 -11q-85 -142 -141 -350q45 -14 45 -26q0 -10 -11 -10q-1 0 -18 6.5t-22 7.5q-29 -120 -29 -190q0 -34 10 -34q9 0 24.5 12.5t18.5 12.5q9 0 9 -11t-19.5 -22.5t-32.5 -11.5q-38 0 -38 63q0 64 25 187q-51 7 -118 8q-30 -37 -79 -90q-80 -86 -123 -118
q-77 -56 -158 -56q-54 0 -87 24q-39 26 -39 78q0 58 49 107q44 44 104 60q100 28 319 27q65 76 131 161q18 26 56 75q4 5 9 5q13 0 13 -12q0 -3 -2 -7q-6 -9 -62 -83q-65 -87 -106 -140q50 -3 98 -14q28 127 72 238q12 31 40 88q4 7 27 21t31 14q9 0 9 -9zM458 203h-28
q-172 0 -260 -23q-50 -14 -87 -49q-42 -40 -42 -88q0 -33 28 -50q23 -15 59 -15q76 0 149 50q47 32 119 108q30 30 62 67z" />
    <glyph glyph-name="B" unicode="B" horiz-adv-x="630" 
d="M642 454q0 -48 -78 -87q-58 -30 -121 -40q72 -17 122 -47q70 -43 70 -101q0 -47 -49 -103q29 -35 29 -51q0 -14 -11 -14q-5 0 -8 5q-15 27 -28 41q-65 -60 -170 -92q-92 -27 -192 -27q-67 0 -127 26q-78 33 -78 91q0 67 64 110q54 36 125 40q43 99 93 192q16 31 52 88
q16 22 51 22q14 0 14 -8q0 -3 -2 -6q-94 -127 -174 -288q225 -5 335 -101q32 42 32 79q0 63 -85 99q-66 27 -140 27h-11h-12q-13 0 -13 9q0 18 29 23q16 2 48 7q121 25 177 77q23 22 23 38q0 36 -93 54q-63 12 -130 12q-180 0 -336 -65q-5 -2 -8 -2q-8 0 -8 8
q0 12 13.5 26.5t25.5 19.5q104 42 265 42q96 0 178 -18q128 -27 128 -86zM541 82q-56 47 -141 74q-81 25 -159 25q-15 0 -29 -1q-60 -128 -60 -171q0 -3 1 -8t1 -8q0 -13 -11 -13q-16 0 -16 27q0 45 51 169q-133 -22 -133 -123q0 -46 61 -72q48 -21 100 -21q222 0 335 122z
" />
    <glyph glyph-name="C" unicode="C" horiz-adv-x="516" 
d="M646 462q0 -68 -75 -125q-70 -55 -141 -55q-73 0 -73 56q0 40 18 40q7 0 7 -9q0 -3 -1 -9t-1 -9q0 -39 51 -39q53 0 120 51t67 101q0 49 -83 49q-17 0 -33 -2q-86 -9 -196 -72.5t-183 -148.5q-81 -96 -81 -184q0 -55 37 -84q33 -26 90 -26q182 0 353 142q4 3 8 3
q12 0 12 -13q0 -5 -4 -9q-73 -67 -173 -114q-110 -52 -199 -52q-73 0 -118 30q-53 35 -53 104q0 82 67 179q79 115 205 191q135 83 266 83q113 0 113 -78z" />
    <glyph glyph-name="D" unicode="D" 
d="M765 311q0 -79 -55 -156q-47 -66 -122 -116q4 -9 4 -14q0 -14 -10 -14q-4 0 -14 16q-150 -90 -345 -90q-21 0 -40 1q-68 3 -126 28q-78 33 -78 89q0 67 63 110q55 36 126 40q45 105 98 201q16 31 47 79q17 22 51 22q14 0 14 -8q0 -3 -2 -6q-94 -127 -174 -288
q269 -6 367 -135q66 46 108 106q49 70 49 140q0 113 -127 173q-98 45 -225 45q-169 0 -300 -74q-8 -4 -13 -4q-13 0 -13 15q0 22 31 39q45 24 137 39q77 12 143 12q148 0 260 -52q146 -67 146 -198zM547 55q-46 57 -152 93q-95 33 -179 33q-13 0 -26 -1q-60 -128 -60 -171
q0 -3 1 -8t1 -8q0 -13 -11 -13q-16 0 -16 27q0 45 51 169q-133 -22 -133 -123q0 -45 61 -71q46 -20 100 -22h25q190 0 338 95z" />
    <glyph glyph-name="E" unicode="E" horiz-adv-x="587" 
d="M593 329q-57 -35 -123 -50t-124 -15q-93 0 -217 -18q-50 -76 -50 -139q0 -60 45 -91q38 -28 102 -28q152 0 334 150q4 3 7 3q13 0 13 -13q0 -5 -4 -9q-74 -68 -174 -114q-108 -52 -199 -52q-73 0 -118 30q-52 34 -52 104t49 152q-50 -9 -45 -9q-7 0 -7 7q0 24 21 32
q5 2 57 10q40 55 90.5 100t112.5 82q133 79 260 79q42 0 66.5 -11.5t35.5 -30.5t9 -42.5t-13.5 -46.5t-31 -44.5t-44.5 -35.5zM562 344q93 72 93 120q0 49 -83 49q-102 0 -229 -74q-112 -66 -186 -155q43 5 82 7.5t76 2.5q76 0 136 12t111 38z" />
    <glyph glyph-name="F" unicode="F" horiz-adv-x="632" 
d="M845 465q0 -34 -128 -34q-66 0 -156 9q-69 -101 -116 -203q32 2 111 14q72 11 109 11q9 0 9 -6q0 -12 -17 -17q-8 -2 -62 -11q-85 -13 -162 -18q-63 -141 -63 -207q0 -36 21 -36q9 0 25 11.5t19 11.5q8 0 8 -9q0 -11 -20.5 -22.5t-32.5 -11.5q-46 0 -46 61q0 65 55 201
q-22 -1 -44 -1q-250 0 -340 83q-25 23 -25 45q0 47 55 80q120 72 293 72q63 0 194 -14q10 16 32 46q13 15 48 15q13 0 13 -5l-43 -61q96 -9 156 -9q63 0 86 11q8 4 12 4q9 0 9 -10zM514 445q-83 7 -161 7q-318 0 -318 -121q0 -57 147 -81q87 -15 188 -15q20 0 40 1
q51 119 104 209z" />
    <glyph glyph-name="G" unicode="G" horiz-adv-x="548" 
d="M687 475q0 -13 -13.5 -32t-26.5 -19q-7 0 -7 7q0 1 7 16t7 26q0 28 -35 28q-4 0 -9 -1q-2 -26 -16 -95q-12 -62 -31 -147q12 1 23 1q51 0 51 -17q0 -10 -16 -10q-5 0 -15.5 1t-16.5 1q-19 0 -33 -2q-84 -328 -336 -455q-94 -48 -203 -48q-148 0 -148 122q0 165 318 295
q-12 20 -12 35q0 115 142 222q114 86 248 126q3 18 15 18q18 0 29 -22q78 -7 78 -50zM537 351q-38 -64 -86 -118q31 8 66 16q7 34 20 102zM565 503q-164 -47 -264 -156q-31 -35 -55 -78q-30 -53 -30 -90q0 -11 4 -20q84 32 184 61q59 55 103 129q49 83 58 154zM356 180
q-61 -18 -114 -38q5 -1 11 -1q46 0 103 39zM510 223q-54 -14 -92 -25q-92 -90 -169 -90q-29 0 -47 18q-293 -117 -293 -262q0 -102 135 -102q89 0 169 34q217 94 297 427z" />
    <glyph glyph-name="H" unicode="H" horiz-adv-x="811" 
d="M953 530q0 -2 -2 -5q-125 -166 -189 -312q64 -31 64 -66q0 -8 -5.5 -17t-12.5 -9q-12 0 -12 12q0 3 3 7t3 8q0 20 -50 43q-54 -127 -54 -188q0 -36 21 -36q9 0 25 11.5t18 11.5q9 0 9 -9q0 -11 -20.5 -22.5t-33.5 -11.5q-46 0 -46 61q0 63 53 194q-53 17 -139 26
q-64 -120 -179 -215q-131 -109 -250 -109q-69 0 -118 33q-56 38 -56 104q0 123 203 180q137 38 304 38q36 0 63 -2q52 129 52 191q0 39 -25 39q-13 0 -33 -11t-22 -11q-6 0 -6 9q0 13 33 26q30 12 48 12q46 0 46 -65q0 -69 -48 -194q88 -12 136 -28q15 35 32 72
q74 162 127 223q13 15 48 15q13 0 13 -5zM539 231q-23 2 -52 2q-151 0 -280 -36q-190 -53 -190 -163q0 -52 46 -81q39 -25 93 -25q108 0 226 103q100 88 157 200z" />
    <glyph glyph-name="I" unicode="I" horiz-adv-x="457" 
d="M675 492q0 -8 -11 -8l-3 1q-54 6 -164 14q-90 -114 -144 -216q-78 -148 -95 -237q51 6 92 6q91 0 110 -21q6 -7 6 -20q0 -17 -10 -17q-17 0 -59.5 9.5t-63.5 9.5q-36 0 -78 -4q1 -29 20 -29q9 0 25 11t19 11q8 0 8 -9q0 -12 -20.5 -22.5t-33.5 -10.5q-40 0 -44 47
q-26 -3 -111 -21q-77 -17 -101 -17q-12 0 -12 13q0 8 10 12q7 3 61 17q81 20 154 31q11 84 84 235q66 137 128 223h-17q-58 1 -100 -4q-125 -15 -125 -48q0 -14 28 -30t28 -22q0 -8 -10 -8q-3 0 -7 1q-80 38 -80 67q0 22 43 43q57 27 186 27q34 0 72 -2q12 17 49 17
q15 0 15 -6q0 -2 -10 -15q57 -4 115 -12q12 -1 35 -5q11 -3 11 -11z" />
    <glyph glyph-name="J" unicode="J" horiz-adv-x="552" 
d="M548 53q-1 -7 -8 -7q-6 0 -19 7.5t-17 8.5q-10 3 -40 9q-122 -251 -379 -350q-56 -22 -98 -22q-87 0 -87 82q0 49 35 107q60 102 175 161q110 56 233 56q42 0 85 -7q68 147 68 298q0 123 -110 123q-100 0 -224 -92q-132 -97 -132 -191q0 -64 60 -64q35 0 90 24t56 24
q6 0 6 -7q0 -8 -10 -16q-61 -46 -136 -46q-94 0 -94 98q0 111 140 205q128 86 246 86q148 0 148 -143q0 -164 -64 -308q32 -7 43 -11q30 -11 33 -25zM418 78q-32 4 -62 4q-116 0 -218 -49q-112 -53 -168 -146q-33 -55 -33 -97q0 -63 66 -63q29 0 71 15q106 40 201 137
q87 88 143 199z" />
    <glyph glyph-name="K" unicode="K" horiz-adv-x="731" 
d="M751 478v-3q-7 -124 -302 -252q42 -62 107 -131q88 -93 131 -93q23 0 23 25q0 6 -2.5 17.5t-2.5 14.5q0 9 8 9q17 0 17 -40q0 -21 -13 -35t-33 -14q-52 0 -141 87q-58 57 -115 132q-60 -105 -142 -176q-102 -87 -203 -87q-47 0 -77 21q-36 24 -36 68q0 70 95 155
q92 83 160 83q9 0 9 -7q0 -6 -14 -11q-113 -43 -179 -127q-40 -51 -40 -100q0 -63 72 -63q99 0 197 96q73 73 132 183q-47 67 -47 83q0 10 6 30.5t13 20.5q3 0 5 -5q22 -55 42 -90q50 120 50 197q0 48 -29 48q-13 0 -33 -11t-21 -11q-7 0 -7 9q0 13 34 27q29 11 47 11
q51 0 51 -73q0 -90 -59 -220q206 94 263 204q5 9 13 33q3 10 10 10q12 0 11 -15z" />
    <glyph glyph-name="L" unicode="L" horiz-adv-x="673" 
d="M663 29q0 -49 -57 -73q-43 -17 -100 -17q-100 0 -231 67q-59 -37 -110 -37q-61 0 -108 41.5t-47 101.5q0 30 13 53q16 28 44 28q30 0 104 -69q92 -84 103 -91q51 65 101 208q-46 -14 -86 -14q-44 0 -75 13q-41 19 -41 57q0 42 74 83q67 37 112 37q11 0 11 -9q0 -6 -11 -9
t-36 -10q-121 -41 -121 -90q0 -47 89 -47q44 0 94 16q27 78 43 116q29 63 65 104q54 64 100 64q63 0 63 -54q0 -57 -65 -126q-52 -54 -116 -91q-20 -10 -61 -31q-29 -80 -48 -121q-34 -74 -68 -107q37 -21 100 -36.5t107 -15.5q48 0 84 12q51 17 51 54q0 14 -14.5 27.5
t-14.5 18.5q0 8 8 8q4 0 8 -3q36 -26 36 -58zM629 504q0 20 -17 20q-7 0 -16 -3q-89 -31 -166 -232q46 18 120 93q79 81 79 122zM244 17q-50 39 -99 78q-80 63 -89 63q-22 0 -22 -40q0 -48 40 -86t88 -38q43 0 82 23z" />
    <glyph glyph-name="M" unicode="M" horiz-adv-x="1114" 
d="M1101 365q0 -33 -20 -81q-31 -76 -63 -152q-40 -105 -40 -152q0 -36 27 -36q15 0 38.5 17t27.5 17t4 -5q0 -20 -27.5 -35t-48.5 -15q-57 0 -57 67q0 44 24 117q19 54 55 136q14 27 36 82q9 27 9 40q0 11 -7 11q-51 0 -182 -143q-95 -104 -158 -194q-20 -29 -33 -50
q-5 -11 -16 -24q-4 -1 -8 -1q-30 0 -30 24q0 5 3.5 10t37.5 76q101 210 101 302q0 42 -26 42q-42 0 -140 -107q-111 -122 -208 -283q-11 -19 -22 -37q-16 -25 -26 -33q-23 0 -23 22q0 7 4 12q55 67 119 212q70 156 70 230q0 100 -110 100q-58 0 -140 -29q-55 -20 -112.5 -51
t-108.5 -70q-76 -59 -76 -97q0 -56 109 -56q22 0 65 6.5t64 6.5q8 0 8 -4t-5 -7q-34 -24 -113 -24q-57 0 -98 16q-56 22 -56 71q0 52 75 112q51 41 121 75q59 28 121 47q88 26 157 26q146 0 146 -111q0 -90 -72 -229q57 68 114 137q86 93 135 93q60 0 60 -90q0 -78 -61 -226
q66 74 145 150q112 106 158 121q13 4 22 4q31 0 31 -40z" />
    <glyph glyph-name="N" unicode="N" horiz-adv-x="884" 
d="M877 376q0 -59 -58 -186t-58 -164q0 -30 28 -30q16 0 39.5 17t27.5 17t4 -5q0 -20 -27.5 -35t-49.5 -15q-53 0 -53 56q0 41 30 110q36 81 38 87q21 50 32.5 90.5t11.5 63.5q0 35 -25 35q-12 0 -31 -8q-72 -33 -181 -170q-80 -101 -146 -211q-16 -29 -49 -70q-22 0 -22 22
q0 7 3 12q55 67 122 217q72 161 72 234q0 108 -128 108q-61 0 -139 -27q-90 -30 -174 -88q-111 -76 -111 -146q0 -57 77 -57q41 0 111 20q7 2 10 2q8 0 8 -6q0 -17 -52 -29q-41 -10 -68 -10q-112 0 -112 88q0 82 114 161q86 59 188 91q84 25 154 25q165 0 165 -130
q0 -91 -73 -229q57 68 114 137q86 93 135 93q73 0 73 -70z" />
    <glyph glyph-name="O" unicode="O" horiz-adv-x="646" 
d="M701 359q0 -71 -56 -151q-71 -103 -204.5 -171t-258.5 -68q-131 0 -131 105q0 32 15 70q-66 31 -66 97q0 86 84 159q66 57 163 92q104 38 208 38q97 0 163 -36q83 -46 83 -135zM668 374q0 70 -64 105q-51 28 -128 28q-100 0 -214 -45q-85 -34 -150 -83q-89 -69 -89 -137
q0 -59 52 -77q46 81 138.5 166.5t175.5 119.5q42 17 72 19h2q12 1 12 -9t-14 -13q-38 -6 -69 -23q-37 -20 -83 -56q-54 -41 -109 -98q-73 -75 -85 -116q19 -4 37 -4q89 0 179 84q36 33 35 33q7 0 7 -8q-39 -56 -99 -91q-64 -38 -129 -38q-21 0 -37 5q-17 -33 -17 -62
q0 -40 29 -62t70 -22q120 0 240 72q112 67 184 171q54 78 54 141z" />
    <glyph glyph-name="P" unicode="P" horiz-adv-x="462" 
d="M576 391q0 -26 -14 -54q-33 -66 -122 -105q-78 -34 -160 -34q-44 0 -91 5q-101 -190 -101 -251q0 -3 1 -8t1 -7q0 -14 -11 -14q-16 0 -16 27q0 68 90 259q-83 16 -83 47q0 20 25 33q21 11 43 11q11 0 11 -7t-24.5 -12.5t-24.5 -17.5q0 -17 62 -34q38 79 75 145
q11 19 34 55q15 21 51 21q14 0 14 -7q0 -3 -2 -7q-71 -96 -135 -214q22 -3 44 -3q82 0 165 37q95 44 119 111q5 16 5 31q0 66 -88 83q-61 12 -138 12q-166 0 -326 -58q-7 -2 -11 -2q-7 0 -7 6q0 12 17 27q14 13 28 18q109 36 256 36q104 0 200 -21q113 -25 113 -108z" />
    <glyph glyph-name="Q" unicode="Q" horiz-adv-x="701" 
d="M701 359q0 -71 -56 -151q-106 -153 -316 -215q41 -63 110 -138q90 -97 135 -97q23 0 23 24q0 7 -2.5 18t-2.5 15q0 9 9 9q16 0 16 -40q0 -21 -13 -35t-33 -14q-55 0 -153 99q-67 68 -125 150q-62 -15 -111 -15q-131 0 -131 105q0 32 15 70q-66 31 -66 97q0 86 84 159
q66 57 163 92q104 38 208 38q97 0 163 -36q83 -46 83 -135zM668 374q0 70 -64 105q-51 28 -128 28q-100 0 -214 -45q-85 -34 -150 -83q-89 -69 -89 -137q0 -59 52 -77q46 81 138.5 166.5t175.5 119.5q42 17 72 19h2q12 1 12 -9t-14 -13q-33 -5 -55 -16q-37 -17 -82 -51
q-56 -42 -117 -103q-77 -78 -91 -122q5 1 9 1q20 0 20 -10q0 -13 -25 -13q-6 0 -12 2q-17 -33 -17 -62q0 -40 29 -62t70 -22q38 0 91 12q-38 56 -38 70q0 10 5.5 30.5t12.5 20.5q3 0 5 -5q25 -62 51 -106q183 57 297 221q54 78 54 141z" />
    <glyph glyph-name="R" unicode="R" horiz-adv-x="492" 
d="M576 391q0 -26 -14 -54q-32 -64 -115 -102q-68 -31 -152 -37q-24 -2 -49 -1q41 -65 115 -147q95 -104 138 -104q24 0 24 26q0 7 -2.5 18t-2.5 15q0 9 8 9q17 0 17 -40q0 -22 -15 -38t-37 -16q-59 0 -160 113q-70 77 -126 166q-22 2 -40 7q-102 -193 -102 -254q0 -3 1 -8
v-7q0 -14 -10 -14q-16 0 -16 27q0 70 93 267q-48 23 -48 62q0 22 16 40t38 18q24 0 42 -24q21 41 66 116q16 21 52 21q14 0 14 -7q0 -3 -3 -7q-58 -79 -105 -163l33 -59q89 6 168 41q97 43 123 112q5 16 5 31q0 66 -88 83q-61 12 -138 12q-166 0 -326 -58q-7 -2 -11 -2
q-7 0 -7 6q0 12 17 27q14 13 28 18q109 36 256 36q104 0 200 -21q113 -25 113 -108zM196 213l-14 24l-11 -20q11 -3 25 -4zM161 278q-11 19 -24 19q-22 0 -22 -29q0 -23 22 -38z" />
    <glyph glyph-name="S" unicode="S" horiz-adv-x="570" 
d="M603 490q0 -25 -18 -55q-19 -33 -43 -33q-9 0 -9 7q0 1 17.5 22t17.5 38q0 40 -70 40q-38 0 -88 -11q-55 -13 -109 -37q-79 -36 -79 -71q0 -32 92 -58q160 -47 172 -51q93 -38 93 -98q0 -40 -43 -81q-64 -62 -180 -102q-108 -38 -205 -38q-145 0 -145 82q0 72 90 138
q84 61 159 61q32 0 32 -21q0 -57 -100 -114q-27 -16 -37 -16q-8 0 -8 4q0 7 21 19q56 31 79 73q7 12 7 17t-8 5q-60 0 -132 -47q-78 -52 -78 -109q0 -54 122 -54q93 0 207 33q136 39 174 97q11 17 11 33q0 64 -167 113q-35 10 -71 20q-41 13 -68 27q-42 24 -42 60
q0 69 121 118q100 41 181 41q104 0 104 -52z" />
    <glyph glyph-name="T" unicode="T" horiz-adv-x="467" 
d="M792 404q0 -16 -10 -16q-5 0 -7 9q-3 17 -8 26q-17 30 -64 48q-40 15 -81 15q-64 0 -147 -18q-75 -107 -130 -220q-73 -149 -73 -242q0 -39 13 -39q9 0 25 11.5t18 11.5q9 0 9 -9q0 -11 -20.5 -22.5t-33.5 -11.5q-49 0 -49 62q0 75 69 228q49 111 112 216
q-75 -21 -150 -43q-90 -23 -151 -23q-91 0 -91 47q0 14 10 30q28 43 103 67q61 19 125 19q60 0 86 -8q13 -4 13 -13q0 -8 -8 -8h-3q-82 8 -85 8q-52 0 -105 -14q-67 -17 -92 -48q-10 -12 -10 -20q0 -25 61 -25q59 0 160 26q81 22 161 44q6 10 19 28q13 15 48 15q13 0 13 -5
q0 -2 -17 -25q61 11 114 11q55 0 111 -29q65 -34 65 -83z" />
    <glyph glyph-name="U" unicode="U" horiz-adv-x="689" 
d="M779 521q0 -2 -2 -4q-96 -166 -134 -269q-56 -153 -56 -245q0 -60 26 -60q10 0 25.5 14t18.5 14q9 0 9 -9q0 -13 -26.5 -28.5t-40.5 -15.5q-47 0 -47 75q0 86 61 268q-60 -81 -119 -162q-92 -113 -143 -113q-64 0 -64 62q0 53 48 158q39 76 77 153q21 45 21 75
q0 59 -74 59q-82 0 -183 -59.5t-134 -132.5q-18 -39 -18 -63q0 -31 35 -31q8 0 23.5 3t22.5 3q8 0 8 -5q0 -12 -28 -20q-21 -5 -38 -5q-63 0 -63 52q0 23 13 51q41 88 160 160q116 71 215 71q98 0 98 -80q0 -39 -28 -98q-34 -66 -96 -201q-24 -63 -24 -94q0 -29 21 -29
q52 0 143 113q66 83 138 200q15 24 42 73q16 37 53 105q6 8 23 14t28 6q9 0 9 -5z" />
    <glyph glyph-name="V" unicode="V" horiz-adv-x="596" 
d="M906 603q0 -8 -12 -8q-20 0 -42 -19.5t-72 -87.5q-75 -103 -151 -227q-56 -90 -114 -161q-94 -114 -149 -114q-39 0 -39 60q0 50 25 120q6 17 47 116q50 121 50 143q0 68 -79 68q-81 0 -180 -60.5t-132 -131.5q-18 -39 -18 -63q0 -31 35 -31q8 0 23.5 3t22.5 3t7 -5
q0 -12 -28 -20q-21 -5 -38 -5q-63 0 -63 52q0 23 14 51q41 88 158 159.5t215 71.5q100 0 100 -77q0 -42 -42 -148q-25 -60 -50 -121q-29 -79 -29 -124q0 -34 16 -34q5 0 11 3q89 45 263 343q149 256 225 256q26 0 26 -12z" />
    <glyph glyph-name="W" unicode="W" horiz-adv-x="1009" 
d="M1073 333q0 -8 -11 -8q-12 0 -26 6q-22 -95 -72 -182q-58 -99 -129 -144q-29 -18 -58 -18q-70 0 -70 87q0 57 44 198q-136 -138 -174 -172q-125 -113 -194 -127q-17 -4 -33 -4q-56 0 -56 51q0 46 47 135q15 27 77 128q92 151 92 236q0 70 -73 70q-82 0 -210 -97
q-112 -85 -169 -169q-38 -56 -38 -93q0 -32 36 -32q12 0 34 8t30 8q11 0 11 -6q0 -14 -35 -26q-30 -10 -47 -10q-55 0 -55 58q0 77 84 172q76 86 185 150t185 64q114 0 114 -98q0 -45 -26 -101q-28 -62 -78 -147q-43 -72 -86 -143q-37 -64 -37 -102q0 -33 28 -33q33 0 95 43
q151 104 320 309q9 13 30 36q13 11 29 11q11 0 11 -9q0 -6 -7 -18q-97 -170 -97 -279q0 -74 39 -74q33 0 89 59q46 49 69 90q67 122 67 185q0 11 -7.5 32t-7.5 33q0 34 22 34q12 0 21 -26q7 -20 7 -36q0 -10 -1 -23q5 -11 18 -15t13 -11z" />
    <glyph glyph-name="X" unicode="X" horiz-adv-x="646" 
d="M727 512q0 -52 -97 -173q-73 -91 -144 -157q25 -61 55 -108q47 -75 85 -75q32 0 40 52q2 14 11 14t9 -10q0 -32 -22 -57t-53 -25q-49 0 -99 67q-35 46 -61 110q-99 -87 -200 -145q-132 -75 -231 -75q-76 0 -76 52q0 39 46 88q35 38 80 65q9 5 13 5q7 0 7 -5q0 -8 -16 -22
q-97 -81 -97 -131q0 -31 48 -31q161 0 413 231q-44 126 -44 261v28q1 8 13.5 21t20.5 13q6 0 6 -7q0 7 0 -32q0 -134 40 -251l29 29q45 45 104 124q75 98 75 132q0 14 -15 14q-14 0 -38.5 -10.5t-26.5 -10.5q-5 0 -5 5q0 14 42 29q37 13 57 13q31 0 31 -28z" />
    <glyph glyph-name="Y" unicode="Y" horiz-adv-x="751" 
d="M755 48q0 -11 -11 -11q-5 0 -9 2q-27 12 -50 12q-15 0 -34 -4q-48 -162 -168 -276q-133 -127 -291 -127q-44 0 -77 19q-39 24 -39 65q0 120 222 230q158 78 328 115q10 41 26 248q-8 -13 -14 -22q-42 -58 -128 -172q-84 -103 -135 -103q-69 0 -69 64q0 59 63.5 184.5
t63.5 161.5q0 59 -74 59q-82 0 -183 -59.5t-134 -132.5q-18 -39 -18 -63q0 -31 35 -31q8 0 23.5 3t22.5 3q8 0 8 -5q0 -12 -28 -20q-21 -5 -38 -5q-63 0 -63 52q0 23 13 51q41 88 160 160q116 71 215 71q98 0 98 -80q0 -39 -29 -98t-82 -182q-17 -48 -17 -75q0 -29 22 -29
q54 0 146 113q29 35 85 107q20 33 61 98q1 11 4 33q3 15 24.5 36t36.5 21q12 0 12 -13q0 -4 -1 -5q-3 -8 -9 -23q-15 -43 -32 -154q-8 -63 -33 -188h10q26 1 51 -5q36 -8 36 -25zM616 42q-136 -26 -301 -110q-211 -107 -211 -208q0 -52 85 -52q75 0 141 29q93 41 176 142
q79 97 110 199z" />
    <glyph glyph-name="Z" unicode="Z" horiz-adv-x="464" 
d="M540 401q0 -65 -84 -148q-44 -43 -141 -113h11q89 2 89 -68q0 -15 -5 -33h8q83 1 90 -20q-1 -8 -10 -8q-7 0 -18 4t-15 4.5t-24 0.5q-19 0 -37 -1q-8 -20 -21 -41q-116 -200 -274 -300q-80 -52 -134 -52q-63 0 -63 66q0 34 19 75q54 119 185 194q120 68 260 77q9 24 9 40
q0 38 -54 38q-45 0 -99 -22q-59 -24 -60 -24q-11 0 -11 9q0 11 13 24q6 7 39.5 17t42.5 16q81 50 153 119q97 93 97 154t-88 61q-91 0 -212 -54q-114 -53 -183 -120q-15 3 -15 16q0 45 100 97q69 36 143 58q85 25 159 25q130 0 130 -91zM366 16q-211 -22 -338 -154
q-42 -44 -62 -87q-17 -39 -17 -66q0 -51 47 -51q38 0 99 38q71 44 153 144q75 91 118 176z" />
    <glyph glyph-name="bracketleft" unicode="[" horiz-adv-x="585" 
d="M573 697l-1 -13q-6 -1 -14 -1q-12 0 -36 2t-36 2q-43 0 -55 -7q-22 -14 -61 -60q-80 -94 -174 -269q-109 -201 -109 -291q0 -56 77 -56q13 0 38 2.5t37 2.5q29 0 29 -12q0 -14 -112 -14q-108 0 -108 36q0 119 129.5 367t227.5 315q26 17 67 17q101 0 101 -21z" />
    <glyph glyph-name="backslash" unicode="\" horiz-adv-x="551" 
d="M523 -84q0 -32 -26 -32v20q0 160 -180 428q-135 200 -307 377q1 6 14 6q24 0 48 -19.5t92 -105.5q126 -159 223 -323q136 -231 136 -351z" />
    <glyph glyph-name="bracketright" unicode="]" horiz-adv-x="556" 
d="M538 679q0 -146 -83.5 -344.5t-186.5 -307.5q-42 -44 -175 -44q-45 0 -61 2q23 20 39 23h45q97 0 143 55q79 94 157 276q83 193 83 304q0 19 -4 37q-14 9 -40 9q-19 0 -49 -2q-40 -2 -50 -3q32 32 109 32q43 0 48 -2q25 -6 25 -35z" />
    <glyph glyph-name="asciicircum" unicode="^" horiz-adv-x="370" 
d="M336 331l-4 -7q-21 1 -74.5 35t-71.5 53q-101 -84 -114 -84q-8 0 -8 10t61 60.5t75 52.5l6 -2q39 -44 125 -108z" />
    <glyph glyph-name="underscore" unicode="_" horiz-adv-x="806" 
d="M793 -53l-7 -7q-281 0 -567 -7q-23 0 -97 -3q-60 -3 -97 -3q-17 0 -17 29q0 19 17 19h740q25 0 28 -28z" />
    <glyph glyph-name="grave" unicode="`" horiz-adv-x="221" 
d="M173 305q0 -5 -7 -5q-5 0 -57 31t-63 40q-9 6 -9 18q0 13 10 13q6 0 17 -8q39 -28 105 -82q4 -3 4 -7z" />
    <glyph glyph-name="a" unicode="a" horiz-adv-x="288" 
d="M350 112q0 -5 -6 -14q-44 -71 -83 -91q-18 -9 -36 -9q-61 0 -61 86q0 14 2 30q-67 -119 -119 -119q-31 0 -31 34q0 52 50 125.5t97 89.5q17 7 33 7q36 0 52 -25q3 -5 3 -7q0 -1 -7 -3t-10 -7q-24 -39 -24 -117q0 -72 31 -72q22 0 62.5 48.5t43.5 48.5t3 -5zM203 217
q-4 1 -9 1q-40 0 -83 -51q-61 -74 -61 -121q0 -21 14 -21q22 0 57 46q49 62 82 146z" />
    <glyph glyph-name="b" unicode="b" horiz-adv-x="243" 
d="M359 566q0 -2 -3 -6q-36 -37 -62 -70q-60 -73 -118 -169q-69 -114 -88 -184q26 47 61 86q48 55 85 55q30 0 30 -43q0 -61 -39 -141q-27 -55 -68 -94q-50 -47 -102 -47q-40 0 -40 15q0 6 6 6q3 0 14.5 -3.5t19.5 -3.5q45 0 89 51q33 39 54 91q19 47 19 99q0 33 -15 33
q-33 0 -88 -91q-52 -86 -52 -127q0 -11 7.5 -17t7.5 -10t-5 -4q-37 0 -37 54q0 77 81 230q61 114 133 215q19 26 37 53q28 34 49 34q24 0 24 -12z" />
    <glyph glyph-name="c" unicode="c" horiz-adv-x="220" 
d="M289 118q0 -4 -6 -11q-35 -51 -97 -93q-36 -23 -76 -23q-74 0 -74 79q0 49 54.5 108t102.5 59q32 0 32 -25q0 -10 -14.5 -34.5t-23.5 -24.5q-4 0 -4 5q0 4 3.5 13t3.5 14q0 21 -26 21q-36 0 -65 -47q-27 -43 -27 -81q0 -62 54 -62q68 0 142 93q10 12 17 12q4 0 4 -3z" />
    <glyph glyph-name="d" unicode="d" horiz-adv-x="288" 
d="M456 548q0 -106 -239 -386q-6 -35 -6 -66q0 -76 32 -76q21 0 61.5 48.5t43.5 48.5t3 -5t-5 -14q-63 -101 -122 -101q-52 0 -52 79q0 25 6 58q-78 -139 -131 -139q-31 0 -31 34q0 62 64 144q68 88 127 82q33 115 74 201q68 140 133 140q42 0 42 -48zM417 546q0 22 -18 22
q-49 0 -111 -163q-41 -107 -65 -214q194 263 194 355zM196 208q0 1 -2 3.5t-11 2.5q-40 0 -87 -62t-47 -104q0 -22 15 -22q22 0 57 45q13 17 43 69q32 57 32 68z" />
    <glyph glyph-name="e" unicode="e" horiz-adv-x="203" 
d="M263 108q0 -2 -2 -6q-25 -39 -75 -72q-53 -35 -97 -35q-63 0 -63 79q0 52 45 114q48 66 99 66q10 0 17.5 -9t7.5 -19q0 -31 -47 -75q-42 -39 -77 -52q-7 -25 -7 -42q0 -41 37 -41q35 0 79 29q38 25 65 57q7 10 14 10q4 0 4 -4zM165 214q0 12 -12 12q-15 0 -44 -46
q-25 -39 -31 -61q26 11 54 39q33 32 33 56z" />
    <glyph glyph-name="f" unicode="f" horiz-adv-x="261" 
d="M327 501q0 -5 -3 -11q-9 -18 -92 -137q-74 -105 -123 -194q7 6 15 6q31 0 52 -108q26 -15 44 -15q26 0 57 31.5t35 31.5q5 0 5 -6q0 -3 -3 -8q-59 -83 -106 -83q-17 0 -29 12q3 -20 3 -43q0 -80 -38 -176q-41 -100 -98 -149q-28 -23 -52 -23q-31 0 -46 41q-11 30 -11 68
q0 80 48 215q39 112 90 207q35 68 107 203q30 58 39 73q24 43 46 68q16 18 35 18q25 0 25 -21zM162 -27q0 38 -8 72q-24 16 -40.5 42.5t-14.5 52.5q-119 -267 -119 -407q0 -67 32 -67q13 0 29 13q57 47 90 134q31 80 31 160z" />
    <glyph glyph-name="g" unicode="g" horiz-adv-x="262" 
d="M255 220q0 -4 -9 -7t-12 -9q-5 -22 -11 -51q-12 -51 -35 -153h4q53 2 53 -23q0 -6 -4 -6q-1 0 -8.5 5t-28.5 5q-10 0 -20 -1q-37 -150 -95 -233q-108 -158 -230 -158q-48 0 -80.5 28t-32.5 75q0 107 152 205q129 83 250 102q7 38 23 115q-67 -119 -119 -119q-31 0 -31 34
q0 51 50 125t97 90q18 7 33 7q14 0 34 -9.5t20 -21.5zM208 217q-4 1 -9 1q-40 0 -83 -51q-61 -74 -61 -121q0 -21 14 -21q22 0 57 46q49 62 82 146zM147 -19q-66 -11 -157 -57t-140 -92q-75 -72 -75 -143q0 -39 24.5 -62.5t63.5 -23.5q62 0 122 52q48 41 85 105
q53 90 77 221z" />
    <glyph glyph-name="h" unicode="h" horiz-adv-x="311" 
d="M444 538q0 -65 -104 -179q-44 -48 -158 -152q-27 -23 -76 -73q-6 -8 -21.5 -47.5t-15.5 -48.5q1 -1 1 -3q22 29 73 85q56 62 77 77q9 6 16 6q23 0 23 -21q-48 -104 -48 -134q0 -35 31 -35q29 0 60 29q21 18 47 54q21 29 24 29t3 -6q0 -7 -5 -17q-67 -113 -142 -113
q-54 0 -54 65q0 43 22 103q-28 -25 -68.5 -74.5t-59.5 -82.5q-11 -8 -26 -8q-27 0 -27 13q0 23 43 119q64 145 143 270q122 193 199 193q43 0 43 -49zM409 530q0 33 -22 33q-54 0 -153 -166q-68 -114 -113 -223q65 42 171 164q117 136 117 192z" />
    <glyph glyph-name="i" unicode="i" horiz-adv-x="179" 
d="M176 296q0 -12 -9.5 -21.5t-22.5 -9.5q-24 0 -24 24q0 12 9.5 21.5t22.5 9.5q24 0 24 -24zM243 115q0 -7 -7 -16q-91 -121 -155 -121q-55 0 -55 59q0 30 20 82q18 48 38 75q6 9 14 9q9 0 16.5 -8t7.5 -17q0 -5 -4 -11q-50 -78 -50 -130q0 -36 26 -36q29 0 65 32
q24 21 53 58q25 32 26 32q5 0 5 -8z" />
    <glyph glyph-name="j" unicode="j" horiz-adv-x="158" 
d="M153 326q0 -12 -9.5 -21.5t-21.5 -9.5q-24 0 -24 24q0 12 9.5 21.5t21.5 9.5q24 0 24 -24zM154 -19q0 -7 -7 -7q-1 0 -6 2q-9 5 -31 5q-9 0 -17 -1q-47 -150 -110 -233q-118 -158 -241 -158q-46 0 -76 25.5t-30 70.5q0 108 162 209q136 86 260 105q13 38 26 125
q-41 -49 -44 -49q-6 0 -6 7q0 4 3 7q45 62 55 118q3 19 30 19q17 0 17 -11q0 -23 -12 -85q-14 -72 -29 -130h3q13 0 30 -4q23 -5 23 -15zM56 -19q-68 -11 -161.5 -57t-145.5 -92q-85 -76 -85 -150q0 -37 23 -58t60 -21q62 0 126 52q50 41 91 105q59 90 92 221z" />
    <glyph glyph-name="k" unicode="k" horiz-adv-x="364" 
d="M470 546q0 -72 -126 -201q-81 -82 -192 -166q-20 -42 -33 -81l99 99q74 70 109 70q26 0 26 -38q0 -39 -54 -76q-50 -35 -90 -33q21 -96 80 -96q58 0 127 91q6 9 12 9q5 0 5 -5q0 -4 -4 -10q-24 -35 -68 -74q-53 -48 -83 -48q-37 0 -74 51q-34 46 -39 86q-24 -28 -47 -55
q-23 -30 -30 -69q-11 -5 -23 -5q-22 0 -22 10q0 23 42 119q62 142 141 268q122 195 199 195q45 0 45 -41zM447 532q0 21 -17 21q-26 0 -80 -46q-95 -79 -161 -240q-15 -37 -15 -43q71 44 163 140q110 112 110 168zM310 214q0 20 -13 20q-20 0 -109 -93q4 -8 18 -8
q30 0 67 26.5t37 54.5z" />
    <glyph glyph-name="l" unicode="l" horiz-adv-x="245" 
d="M402 544q0 -68 -129 -231q-102 -127 -190 -209q0 -109 55 -109t156 113q4 5 8 5q5 0 5 -7q0 -4 -3 -8q-35 -46 -80 -80q-57 -44 -101 -44q-75 0 -75 123q0 84 83 226q68 116 145 201q55 60 92 60q12 0 23 -13.5t11 -26.5zM359 540q0 19 -13 19q-29 0 -71 -56
q-48 -65 -109 -183q-67 -129 -80 -193q55 48 148 176q96 134 116 194q9 28 9 43z" />
    <glyph glyph-name="m" unicode="m" horiz-adv-x="382" 
d="M446 110q0 -4 -2 -6q-25 -35 -56 -65q-43 -40 -72 -40q-47 0 -47 104q0 16 1 36q-36 -32 -81 -115q-15 -28 -33 -28q-6 0 -9 4q-3 11 -3 28q0 29 13 106q7 39 7 50q0 8 -3 8q-17 -15 -55 -65q-41 -54 -88 -127q-6 -9 -10 -9q-8 0 -8 18q0 5 1 8q23 54 47 152q2 14 8 40
q2 7 13.5 14t19.5 7q7 0 7 -6q0 -10 -47 -152q36 48 74 99l36 48q15 18 31 18t16 -18q0 -13 -7 -51.5t-16 -112.5q28 40 87 117q16 19 32 19q15 0 15 -19q0 -16 -5 -47.5t-5 -47.5q0 -52 27 -52q38 0 97 84q6 10 10 10q5 0 5 -9z" />
    <glyph glyph-name="n" unicode="n" horiz-adv-x="278" 
d="M343 119q0 -7 -6 -17q-68 -113 -141 -113q-57 0 -57 72q0 64 29 113q-70 -63 -143 -174q-6 -9 -9 -9q-9 0 -9 18q0 5 2 8q21 51 44 145q3 16 10 47q3 7 14 14t20 7q7 0 7 -6q0 -10 -47 -152q12 16 75 85q21 24 62 68q8 7 16 7q23 0 23 -23q0 -5 -4 -12q-56 -92 -56 -146
q0 -38 36 -38q28 0 60 29q21 18 47 54q21 29 24 29t3 -6z" />
    <glyph glyph-name="o" unicode="o" horiz-adv-x="229" 
d="M291 108q0 -2 -2 -4q-14 -24 -42.5 -41t-55.5 -17q-20 0 -37 10q-46 -73 -95 -73q-35 0 -35 41q0 57 50 134q-2 11 -2 22q0 36 24 70t59 34q23 0 37 -27q11 -23 11 -48q0 -54 -42 -137q15 -9 34 -9q33 0 62 26t27 26q7 0 7 -7zM173 184q0 22 -7 45q-10 32 -26 32
q-23 0 -36 -28q-10 -22 -9 -48q16 19 32 19q15 0 22 -10v-5q1 -3 1 -5q0 -3 -10 -3q-18 0 -38 -38q13 -38 46 -62q25 63 25 103zM140 67q-33 22 -50 51q-30 -63 -30 -91q0 -20 15 -20q14 0 37 24q20 19 28 36z" />
    <glyph glyph-name="p" unicode="p" horiz-adv-x="327" 
d="M392 119q0 -7 -6 -17q-26 -43 -86 -86q-64 -48 -108 -48q-9 0 -27 1h-26q-4 0 -30 7q-31 -80 -84 -168q-75 -122 -122 -122q-25 0 -25 37q0 49 90 182q64 88 129 177v6q0 36 -1 63q-38 -62 -48 -62q-6 0 -6 7q0 4 3 8q44 62 44 111q0 10 -5.5 16.5l-5.5 6.5q0 8 31 8
q34 0 34 -68q0 -10 -1.5 -29.5t-1.5 -28.5q28 51 62 94q52 64 87 64q32 0 32 -47q0 -59 -41.5 -137t-90.5 -109q87 2 193 135q4 5 6 5q4 0 4 -6zM277 210q0 31 -17 31q-5 0 -10 -2q-36 -16 -76 -93q-30 -57 -48 -117q10 -15 35 -38q44 19 81 95q35 72 35 124zM88 28
q-1 1 -2 1q-4 0 -11 -10q-24 -36 -72 -106q-21 -30 -53 -91q-37 -71 -37 -92q0 -9 6 -9q44 0 121 144q20 38 43 131q-1 5 -1 10q0 12 6 22z" />
    <glyph glyph-name="q" unicode="q" horiz-adv-x="266" 
d="M333 118q0 -6 -8 -17q-30 -47 -71 -78q-51 -37 -99 -31q37 -18 55 -75q14 -43 14 -95q0 -32 -5 -55q-14 -67 -53 -123q-49 -69 -108 -69q-32 0 -49 42q-13 31 -13 69q0 30 9 58q15 49 49 122q27 60 55 121q-13 4 -13 14q0 6 6 6q2 0 8 -1t9 -1q24 40 56 102
q-80 -101 -122 -101q-29 0 -29 30q0 51 57 127.5t106 92.5q18 6 33 6q35 0 50 -24q2 -4 2 -5t-12.5 -6t-21.5 -25q6 2 11 2q13 0 13 -10l-49.5 -84t-51.5 -100h8q69 0 151 107q5 6 9 6t4 -5zM225 229q-4 1 -9 1q-40 0 -87 -51q-70 -78 -70 -125q0 -17 13 -17q22 0 60 45
q53 63 93 147zM208 -159q0 38 -15 81q-20 55 -51 55q-2 0 -10 -15q-58 -101 -90 -197q-23 -66 -23 -107q0 -54 42 -54q44 0 85 55q32 43 48 95q14 45 14 87z" />
    <glyph glyph-name="r" unicode="r" horiz-adv-x="295" 
d="M362 119q0 -8 -6 -17q-78 -124 -155 -124q-56 0 -56 65q0 62 42 131q-6 -2 -13 -2q-16 0 -31 10q-18 11 -18 25q-11 -25 -41 -71q-37 -58 -49 -58q-4 0 -4 4t5 11q39 53 79 137q-2 9 -2 22q0 23 9 53q10 38 27 38q11 0 19 -18q7 -14 7 -27q0 -25 -41 -73q9 -31 35 -31
q18 0 35 19.5t24 19.5q9 0 16 -7.5t7 -17.5q0 1 -35 -67t-35 -105q0 -35 33 -35q28 0 64 32q23 21 54 60q25 32 26 32q4 0 4 -6z" />
    <glyph glyph-name="s" unicode="s" horiz-adv-x="261" 
d="M326 113q0 -4 -2 -8q-33 -52 -111 -67q-6 -30 -30.5 -48t-55.5 -18q-46 0 -85 34.5t-39 79.5q0 29 16 29q10 0 21 -14q16 16 49.5 74.5t55.5 83.5q35 40 71 40q14 0 28.5 -9t14.5 -22q0 -8 -23 -8t-42 -14.5t-19 -36.5q0 -8 3 -17q13 -33 25 -65q13 -39 13 -68
q59 9 99 59q3 3 5 3q6 0 6 -8zM172 66q0 22 -17 82q-17 56 -14 72q-53 -84 -92 -131q61 -30 123 -33v10zM167 34q-83 -1 -135 35l-3 -3q27 -66 85 -66q39 0 53 34z" />
    <glyph glyph-name="t" unicode="t" horiz-adv-x="210" 
d="M277 115q0 -4 -4 -10q-26 -36 -81 -74q-61 -41 -100 -41q-57 0 -57 83q0 64 36 138q-70 0 -70 26q0 6 10 6q12 0 38 -2t39 -2q6 10 44 80q29 55 48 72q14 14 39 14q22 0 22 -9q0 -1 -1 -3q-14 -18 -40 -51q-44 -59 -71 -106q14 -1 40 -1q7 0 21 1h21q12 0 12 -6
q0 -15 -104 -18q-16 -25 -30 -70t-14 -74q0 -52 39 -52q33 0 81 34q41 29 65 61q7 9 13 9q4 0 4 -5z" />
    <glyph glyph-name="u" unicode="u" horiz-adv-x="291" 
d="M359 119q0 -7 -6 -17q-28 -46 -65 -80q-48 -44 -90 -44q-56 0 -56 70q0 16 15 63q-35 -51 -45 -63q-33 -39 -59 -39q-33 0 -33 56q0 32 21 77q23 52 50 52q15 0 15 -8q0 -1 -25.5 -45.5t-25.5 -68.5q0 -32 19 -32q32 0 115 146q7 14 21 39q7 8 15 8q9 0 16.5 -7.5
t7.5 -17.5q0 1 -35.5 -67t-35.5 -105q0 -35 33 -35q28 0 64 32q24 21 54 60q25 32 27 32q3 0 3 -6z" />
    <glyph glyph-name="v" unicode="v" horiz-adv-x="315" 
d="M384 117q0 -4 -2 -7q-29 -54 -83 -54q-60 0 -71 59q-15 -30 -59 -71q-48 -46 -75 -46q-36 0 -36 52q0 35 17 74q-1 -1 -2 -3q-13 -27 -30 -42q-8 -7 -12 -7q-3 0 -3 4q0 7 41 58q38 48 51 60q9 8 20 8q12 0 12 -8q0 -4 -4 -10q-66 -91 -66 -144q0 -21 20 -21q29 0 70 48
q33 38 51 75v5q0 7 -1 20t-1 19q0 57 43 73q7 3 12 3q13 0 13 -18q0 -42 -38 -98v-6q-1 -25 16 -47.5t41 -22.5t48 28t22 28q6 0 6 -9z" />
    <glyph glyph-name="w" unicode="w" horiz-adv-x="402" 
d="M470 116q0 -3 -2 -5q-40 -59 -74 -59q-30 0 -56 49q-9 -37 -31 -67q-27 -39 -58 -39q-30 0 -45 28q-13 24 -10 55q-24 -33 -64 -69q-50 -45 -77 -45q-26 0 -26 34q0 44 42 125q46 88 85 88q11 0 11 -7q0 -2 -3 -5q-27 -30 -68 -99q-45 -78 -45 -106q0 -10 8 -10
q54 0 148 144q12 21 31 46q5 3 13 3q16 0 16 -13q-36 -57 -36 -108q0 -34 29 -34q21 0 47 43q18 31 28 63q-21 69 -21 77q0 15 13 15q16 0 26 -18t10 -35q0 -18 -9 -38q14 -58 46 -58q19 0 41.5 26t24.5 26q6 0 6 -7z" />
    <glyph glyph-name="x" unicode="x" horiz-adv-x="245" 
d="M315 121q0 -4 -7 -14q-67 -105 -110 -105q-31 0 -74 92q-9 -7 -61.5 -58.5t-55.5 -51.5q-4 0 -4 4q0 8 51 60q56 57 62 66q-6 24 -20 45q-3 -11 -22.5 -40.5t-25.5 -29.5t-6 7q0 1 15.5 26.5t15.5 43.5q0 1 -3 16q-1 1 -1 3q0 17 32 17q15 0 32 -26q14 -22 18 -41
q2 1 65 48q51 37 60 37q4 0 4 -3q0 -5 -54 -46q-57 -44 -65 -56q10 -23 21 -47q15 -31 33 -31q23 0 57 43.5t40 43.5q3 0 3 -3z" />
    <glyph glyph-name="y" unicode="y" horiz-adv-x="274" 
d="M264 -23q0 -6 -3 -6q-1 0 -9 5t-29 5q-10 0 -19 -1q-38 -150 -95 -233q-108 -158 -231 -158q-48 0 -80.5 28t-32.5 75q0 107 153 205q128 83 249 102q14 62 32 184q-12 -29 -43 -76.5t-53 -70.5q-26 -27 -49 -27q-32 0 -32 56q0 32 20 77q23 52 51 52q14 0 14 -8
q0 -1 -25 -45.5t-25 -68.5q0 -32 18 -32q31 0 135 201q2 15 25 15q18 0 18 -8q0 -13 -13 -85q-15 -85 -33 -163h4q53 2 53 -23zM166 -19q-66 -11 -157 -57t-139 -92q-76 -72 -76 -143q0 -39 24.5 -62.5t64.5 -23.5q61 0 121 52q48 41 85 105q53 90 77 221z" />
    <glyph glyph-name="z" unicode="z" horiz-adv-x="336" 
d="M325 -23q0 -6 -3 -6q-2 0 -9 5t-28 5q-10 0 -20 -1q-2 -97 -95 -233q-108 -158 -231 -158q-48 0 -80 28t-32 75q0 107 152 205q129 83 249 102q-1 63 -49 63q-10 0 -30.5 -9.5t-27.5 -9.5q-13 0 -13 12q0 6 9 15q108 99 108 133q0 22 -25 22q-61 0 -128 -107
q-7 -10 -10 -10q-4 0 -4 5t4 12q22 46 58 78q42 37 86 37q54 0 54 -45q0 -49 -80 -113h3q33 1 56.5 -23.5t26.5 -58.5h4q47 1 54 -14q1 -4 1 -9zM228 -19q-67 -11 -158 -57t-139 -92q-76 -72 -76 -143q0 -39 24.5 -62.5t64.5 -23.5q114 0 207 157q75 127 77 221z" />
    <glyph glyph-name="braceleft" unicode="{" horiz-adv-x="258" 
d="M296 507l-6 -2q-79 0 -103 -63l-28 -128q-13 -43 -41 -70q-32 -31 -72 -31h-3q32 -2 53.5 -22.5t21.5 -51.5q0 -29 -13 -85t-13 -85q0 -38 23 -49l54 -10l1 -2q-4 -2 -8 -2q-44 0 -65 11q-29 15 -29 56q0 29 14.5 85t14.5 85q0 67 -82 68l3 5q59 6 82 26q30 26 41 101
q13 86 29 112q32 53 122 53q3 0 4 -1z" />
    <glyph glyph-name="bar" unicode="|" horiz-adv-x="175" 
d="M127 432q0 -73 -22 -262q-25 -210 -44 -238q-10 -14 -20 -14v1q0 3 7.5 34.5t20.5 93.5q26 154 26 305q0 61 -5 94q0 6 -4.5 22t-4.5 25q0 8 13 8q33 0 33 -69z" />
    <glyph glyph-name="braceright" unicode="}" horiz-adv-x="340" 
d="M329 207l-4 -6q-89 -1 -120 -77l-44 -140q-37 -76 -139 -76q-4 0 -5 2q4 2 35.5 4.5t49.5 15.5q27 20 52 108q26 92 56 120q45 42 99 48q-78 5 -78 63q0 32 20 92.5t20 91.5q0 33 -22 40q-24 4 -49 8l-1 2l5 3q93 0 93 -53q0 -33 -22 -95t-22 -95q0 -48 76 -56z" />
    <glyph glyph-name="asciitilde" unicode="~" horiz-adv-x="303" 
d="M269 447q0 -15 -39 -42q-13 -9 -28 -9q-17 0 -49.5 13.5t-49.5 13.5t-33 -13t-21 -13q-1 1 -1 3q0 15 42 40q17 10 37 10q17 0 48 -10.5t47 -10.5q24 0 41 22q6 0 6 -4z" />
    <glyph glyph-name="nonbreakingspace" unicode="&#xa0;" horiz-adv-x="166" 
 />
    <glyph glyph-name="exclamdown" unicode="&#xa1;" horiz-adv-x="250" 
d="M210 158q0 -24 -25 -24q-27 0 -27 24t27 24q25 0 25 -24zM150 62q0 -17 -87 -185q-80 -156 -106 -197q-1 -2 -3 -2q-6 0 -19.5 10t-13.5 16l8 11q81 117 101 148q55 86 84 159q4 11 13 34q6 15 16 15q7 0 7 -9z" />
    <glyph glyph-name="cent" unicode="&#xa2;" horiz-adv-x="295" 
d="M307 477q0 -2 -1 -4q-33 -47 -93 -146q5 -5 5 -13q0 -9 -12 -29.5t-20 -20.5q-3 0 -3 4t3 11.5t3 11.5q0 17 -22 17q-30 0 -53 -37.5t-23 -69.5q0 -51 45 -51q55 0 118 78q8 10 14 10q3 0 3 -3q0 -12 -37 -46q-31 -28 -49 -40q-30 -20 -63 -20q-8 0 -16 2
q-33 -44 -68 -171q-1 -2 -3 -2q-10 0 -10 7q0 6 5 29q20 100 54 146q-24 17 -24 55q0 42 47.5 92.5t88.5 46.5q11 21 44 77q38 64 44 68.5t12 4.5q11 0 11 -7z" />
    <glyph glyph-name="sterling" unicode="&#xa3;" horiz-adv-x="673" 
d="M660 29q0 -47 -57 -70q-41 -17 -97 -17q-100 0 -231 68q-59 -37 -110 -37q-47 0 -87 31q-44 33 -44 79q0 28 33 28q46 0 208 -82q52 65 100 205h-138q-9 0 -9 6q0 17 18 17h137q55 163 112 229q54 62 98 62q29 0 47 -18.5t18 -48.5q0 -73 -82 -114q-6 -3 -10 -3t-4 4
q0 8 13 18q7 5 20 16q40 38 40 87q0 38 -27 38q-6 0 -13 -3q-56 -18 -110 -115q-22 -39 -69 -152h168q6 0 6 -5q0 -18 -22 -18h-161q-33 -81 -49 -112q-35 -73 -65 -100q36 -23 103 -40q63 -16 109 -16q49 0 86 13q52 18 52 56q0 17 -14 30.5t-14 16.5q0 5 4 5q3 0 6 -3
q35 -25 35 -55zM250 16q-23 17 -85 41t-88 24q-11 0 -11 -6q0 -34 30.5 -59.5t65.5 -25.5q50 0 88 26z" />
    <glyph glyph-name="currency" unicode="&#xa4;" horiz-adv-x="587" 
d="M681 462q0 -21 -13 -50q-16 -34 -34 -34q-9 0 -9 9q0 4 17 31t17 48q0 50 -86 50q-91 0 -200 -56q-94 -49 -170 -122q71 6 133 6q146 0 146 -23q0 -9 -9 -9q-17 0 -54.5 5.5t-56.5 5.5q-81 0 -188 -14q-35 -38 -58 -77q94 11 181 11q146 0 146 -23q0 -9 -9 -9
q-17 0 -54.5 5.5t-56.5 5.5q-96 0 -223 -19q-26 -56 -26 -101q0 -61 47 -92q40 -25 105 -25q80 0 179 48q83 40 157 102q3 3 5 3q9 0 9 -10q0 -3 -3 -6q-74 -68 -172 -114q-108 -51 -198 -51q-70 0 -119 29q-59 34 -59 100q0 49 33 110q-42 -8 -39 -8q-4 0 -4 4q0 21 18 28
q6 2 44 7q24 38 58 76q-88 -14 -77 -14q-4 0 -4 4q0 21 18 28q15 5 93 13q85 84 186 138q118 64 220 64q110 0 110 -74z" />
    <glyph glyph-name="yen" unicode="&#xa5;" horiz-adv-x="466" 
d="M497 609v-3q-183 -129 -306 -288q57 -4 71 -10q3 -1 3 -3q0 -5 -6 -5q-31 0 -83 -3q-29 -40 -44 -80q105 0 130 -11q3 -2 3 -3q0 -6 -6 -6q-55 0 -136 -5q-14 -43 -28 -121q-2 -20 -10 -58q-6 -19 -40 -19q-15 0 -15 8q0 40 20 96l36 92q-52 -5 -46 -5q-5 0 -12 9t-8 14
l1 3q12 3 74 6q8 23 22 77q-9 0 -38 -3q-24 -3 -39 -3q-5 0 -12 9t-8 14l1 2q18 6 102 7q17 73 17 116q0 37 -20 91q-2 3 -14.5 31t-12.5 29q0 11 30 11q44 0 44 -149q0 -79 -13 -129l4 -1q67 71 164 162q138 129 163 129q5 0 12 -1z" />
    <glyph glyph-name="brokenbar" unicode="&#xa6;" horiz-adv-x="166" 
d="M123 419q0 -156 -11 -176q-4 -6 -13 -6t-9 6q0 17 2 52t2 53q0 58 -5 91q0 4 -3.5 17t-3.5 19q0 8 12 8q29 0 29 -64zM105 193q0 -18 -18 -119t-23 -108q-8 -11 -17 -13l-2 1q8 31 21 91q9 48 15 97q1 22 5 51q2 4 10 4q9 0 9 -4z" />
    <glyph glyph-name="section" unicode="&#xa7;" horiz-adv-x="570" 
d="M573 465q0 -9 -2 -17q-3 -15 -19.5 -31t-31.5 -16q-5 0 -5 3q0 -1 15 18.5t15 34.5q0 38 -64 38q-55 0 -136 -28q-98 -34 -98 -76q0 -24 38 -40q78 -25 156 -49q108 -40 108 -94q0 -20 -14 -43.5t-30 -35.5q0 -19 -14 -40q-39 -58 -146 -97q-94 -34 -176 -34
q-117 0 -117 75q0 44 55 83q40 29 95 47q8 3 13 3q7 0 7 -3q0 -5 -18 -11q-44 -16 -79 -44q-44 -35 -44 -73q0 -52 104 -52q73 0 159 28q106 33 127 84q4 9 4 16q0 50 -139 91q-60 18 -85 31q-50 27 -50 67q0 34 23 59q-5 10 -5 22q0 59 106 101q86 35 156 35q92 0 92 -52z
M526 192q0 39 -66 69q-25 11 -132 43q-80 25 -97 45q-6 -14 -6 -26q0 -42 65 -71q64 -22 127 -44q73 -27 85 -65q24 31 24 49z" />
    <glyph glyph-name="dieresis" unicode="&#xa8;" horiz-adv-x="261" 
d="M232 427q0 4 -15 -17l-16 -40q-12 -27 -27 -27q-7 0 -14 10.5t-7 18.5q0 15 29.5 36t45.5 21q2 0 4 -1v1v-2zM111 427q0 4 -15 -17l-16 -40q-12 -27 -27 -27q-7 0 -14 10.5t-7 18.5q0 15 29.5 36t45.5 21q2 0 4 -1v1v-2z" />
    <glyph glyph-name="copyright" unicode="&#xa9;" horiz-adv-x="638" 
d="M581 364q0 -117 -122.5 -226t-241.5 -109q-71 0 -122 42q-54 44 -54 114q0 118 127 229q122 108 242 108q71 0 121 -44t50 -114zM543 356q0 64 -39.5 105t-103.5 41q-112 0 -217.5 -103t-105.5 -215q0 -60 48 -98q44 -36 106 -36q106 0 209 100t103 206zM471 410
q0 -31 -18 -32l-5 4q5 30 5 24q0 35 -36 35q-78 0 -165 -93.5t-87 -172.5q0 -48 47 -48q49 0 129 43.5t72 43.5q3 0 3 -3q0 -34 -85 -67q-74 -29 -116 -29q-34 0 -57 15q-27 17 -27 49q0 92 100 183q97 88 191 88q49 0 49 -40z" />
    <glyph glyph-name="ordfeminine" unicode="&#xaa;" horiz-adv-x="240" 
d="M350 352q0 -5 -6 -14q-44 -71 -83 -91q-18 -9 -36 -9q-61 0 -61 86q0 14 2 30q-67 -119 -119 -119q-31 0 -31 34q0 52 50 125.5t97 89.5q17 7 33 7q36 0 52 -25q3 -5 3 -7q0 -1 -7 -3t-10 -7q-24 -39 -24 -117q0 -72 31 -72q22 0 62.5 48.5t43.5 48.5t3 -5zM203 457
q-4 1 -9 1q-40 0 -83 -51q-61 -74 -61 -121q0 -21 14 -21q22 0 57 46q49 62 82 146z" />
    <glyph glyph-name="guillemotleft" unicode="&#xab;" horiz-adv-x="420" 
d="M369 436q0 -15 -99 -153q98 -123 98 -134q0 -14 -11 -13l-8 4q-22 30 -56 59q-33 26 -65 51q-3 2 -3 6q0 11 53 86q45 65 66 89q9 11 19 11q6 0 6 -6zM229 436q0 -15 -99 -153q97 -123 97 -134q0 -14 -10 -13l-8 4q-22 30 -57 59q-32 26 -64 51q-3 2 -3 6q0 11 52 86
q46 65 66 89q9 11 19 11q7 0 7 -6z" />
    <glyph glyph-name="logicalnot" unicode="&#xac;" horiz-adv-x="340" 
d="M456 680q0 -114 -140 -321q-123 -184 -234 -275q34 -88 121 -88q92 0 201 88q7 5 10 5q2 0 2 -2q0 -4 -8 -12q-40 -43 -107.5 -72t-127.5 -29q-62 0 -103 53q-37 49 -37 114q0 116 70 270q42 93 120 187q88 107 166 142q14 6 27 6q40 0 40 -66zM418 663q0 49 -24 49
q-15 0 -24.5 -5.5t-39.5 -28.5q-88 -69 -163 -200q-40 -70 -66 -154q-30 -92 -30 -164q0 -29 6 -54q93 51 217 252t124 305z" />
    <glyph glyph-name="minus" unicode="&#xad;" horiz-adv-x="228" 
d="M218 121q0 -7 -26 -8l-54 -3q-30 -4 -94 -9h-5q-20 -1 -20 7q0 14 35 25q16 6 45 6q35 0 93 -8q26 -4 26 -10z" />
    <glyph glyph-name="minus" unicode="&#x2212;" horiz-adv-x="228" 
d="M218 121q0 -7 -26 -8l-54 -3q-30 -4 -94 -9h-5q-20 -1 -20 7q0 14 35 25q16 6 45 6q35 0 93 -8q26 -4 26 -10z" />
    <glyph glyph-name="registered" unicode="&#xae;" horiz-adv-x="638" 
d="M581 364q0 -117 -122.5 -226t-241.5 -109q-71 0 -122 42q-54 44 -54 114q0 118 127 229q122 108 242 108q71 0 121 -44t50 -114zM543 356q0 64 -39.5 105t-103.5 41q-110 0 -214 -98q88 35 169 35q48 0 84 -15q50 -20 50 -61q0 -50 -71 -79q-54 -22 -114 -23
q14 -48 36 -85q32 -52 68 -53q135 108 135 233zM464 370q0 57 -113 57q-36 0 -99 -19q-59 -17 -96 -36q-79 -94 -79 -188q0 -60 48 -98q44 -36 106 -36q77 0 158 58q-37 9 -73 65q-28 44 -42 91q-9 0 -12 3l11 4l7 5l9 -3q175 24 175 97zM358 410q-1 -3 -32 -43
q-68 -85 -101 -134q-64 -95 -71 -146q-1 -11 -4 -11q-11 0 -11 36q0 44 80 160q68 100 117 149z" />
    <glyph glyph-name="macron" unicode="&#xaf;" horiz-adv-x="228" 
d="M218 430q0 -7 -26 -8q-18 0 -54 -3q-30 -4 -94 -9h-5q-20 -1 -20 7q0 14 35 25q16 6 45 6q35 0 93 -8q26 -4 26 -10z" />
    <glyph glyph-name="macron" unicode="&#x2c9;" horiz-adv-x="228" 
d="M218 430q0 -7 -26 -8q-18 0 -54 -3q-30 -4 -94 -9h-5q-20 -1 -20 7q0 14 35 25q16 6 45 6q35 0 93 -8q26 -4 26 -10z" />
    <glyph glyph-name="degree" unicode="&#xb0;" horiz-adv-x="283" 
d="M237 406q0 -36 -25.5 -61t-60.5 -25q-36 0 -61 25t-25 61t25 61t61 25q35 0 60.5 -25t25.5 -61zM215 406q0 26 -19 45t-45 19t-45 -19t-19 -45t19 -45t45 -19t45 19t19 45z" />
    <glyph glyph-name="plusminus" unicode="&#xb1;" horiz-adv-x="438" 
d="M404 302v-4l-9 -6q-42 0 -151 -1q-2 -136 -7 -147q-3 -6 -8 -6q-2 0 -4 8q-6 21 -6 92v23.5v25.5v3q-19 0 -69 -3q-44 -2 -70 -2q-6 0 -12 7t-7 14l5 5q41 5 153 4q-1 19 -3 69q-3 43 -3 69q0 6 7.5 12t14.5 6l5 -5q5 -40 4 -151q70 -1 154 -7q6 -3 6 -6zM320 82
q0 -5 -6 -5q-31 0 -91 -6t-90 -6q-5 0 -12.5 9t-8.5 15l2 1q21 7 97 7q82 0 106 -12q3 -1 3 -3z" />
    <glyph glyph-name="twosuperior" unicode="&#xb2;" horiz-adv-x="313" 
d="M299 435q0 -38 -63 -90q-63 -41 -129 -93q7 0 20 1h20q47 0 64 -13q3 -3 3 -6q0 -1 -2 -2q-2 0 -5 2q-23 12 -45 12q-36 0 -90 -19q-37 -12 -35 -12q-7 0 -7 12q0 8 32 19q25 9 54 27q48 30 99 74q69 61 69 94q0 27 -27 27q-47 0 -122 -90q-2 -3 -5 -3t-3 4v1
q5 25 38 55.5t59 36.5q17 3 31 3q44 0 44 -40z" />
    <glyph glyph-name="threesuperior" unicode="&#xb3;" horiz-adv-x="234" 
d="M230 468q0 -30 -74 -67q40 -24 40 -61q0 -45 -44.5 -80t-90.5 -35q-52 0 -63 35q-6 18 -6 31t7 13q4 0 4 -4q0 -65 55 -65q46 0 82.5 34.5t36.5 81.5q0 44 -40 44q-3 0 -11.5 -3t-12.5 -3q-6 0 -6 5q0 10 15 10h7h7q17 0 44.5 22t27.5 39t-23 17q-20 0 -41 -13t-19 -13
q-2 0 -2 2q0 3 3 6q9 12 32.5 21.5t39.5 9.5q32 0 32 -27z" />
    <glyph glyph-name="acute" unicode="&#xb4;" horiz-adv-x="221" 
d="M183 351q0 -12 -8 -19q-11 -9 -62.5 -40t-57.5 -31q-7 0 -7 6q0 4 4 7q36 27 105 81q11 9 17 9q9 0 9 -13z" />
    <glyph glyph-name="mu" unicode="&#xb5;" horiz-adv-x="312" 
d="M380 119q0 -7 -6 -17q-28 -46 -66 -80q-48 -44 -90 -44q-56 0 -56 70q0 16 15 63q-35 -51 -44 -63q-34 -39 -60 -39q-24 0 -31 33q-139 -234 -139 -303q0 -14 12 -14q8 0 23.5 10t23.5 10l2 -1q-1 -12 -29.5 -28t-42.5 -16q-22 0 -22 27q0 52 63 176q15 29 118 212
q63 113 63 138q0 13 -11 13q-14 0 -32 -15.5t-24 -15.5q-1 1 -1 2q0 9 34 29.5t45 20.5q29 0 29 -19q0 -30 -54 -128q-8 -13 -23 -40q-7 -15 -7 -32q0 -28 24 -28q32 0 116 146q6 14 21 39q6 8 14 8q9 0 16.5 -7.5t7.5 -17.5q0 1 -35.5 -67t-35.5 -105q0 -35 33 -35
q29 0 65 32q23 21 53 60q25 32 27 32q4 0 4 -6z" />
    <glyph glyph-name="mu" unicode="&#x3bc;" horiz-adv-x="312" 
d="M380 119q0 -7 -6 -17q-28 -46 -66 -80q-48 -44 -90 -44q-56 0 -56 70q0 16 15 63q-35 -51 -44 -63q-34 -39 -60 -39q-24 0 -31 33q-139 -234 -139 -303q0 -14 12 -14q8 0 23.5 10t23.5 10l2 -1q-1 -12 -29.5 -28t-42.5 -16q-22 0 -22 27q0 52 63 176q15 29 118 212
q63 113 63 138q0 13 -11 13q-14 0 -32 -15.5t-24 -15.5q-1 1 -1 2q0 9 34 29.5t45 20.5q29 0 29 -19q0 -30 -54 -128q-8 -13 -23 -40q-7 -15 -7 -32q0 -28 24 -28q32 0 116 146q6 14 21 39q6 8 14 8q9 0 16.5 -7.5t7.5 -17.5q0 1 -35.5 -67t-35.5 -105q0 -35 33 -35
q29 0 65 32q23 21 53 60q25 32 27 32q4 0 4 -6z" />
    <glyph glyph-name="paragraph" unicode="&#xb6;" horiz-adv-x="548" 
d="M625 635q-3 -3 -18.5 -5t-26.5 -9q-54 -32 -127 -195l-122 -294q-69 -161 -115 -188q-5 -3 -12 -3q-6 0 -6 4q2 5 14 16q54 51 120 247q33 100 67 200q45 119 99 184h-10q-69 0 -158 -186q-40 -82 -101 -254q-37 -103 -103 -199q-88 -130 -162 -130q-15 0 -16 9q3 6 10 6
q88 0 178 183q29 58 104 264q-154 14 -154 113q0 86 97 150q88 58 178 58q18 0 54 2t54 2q24 0 39 -4q41 42 85 42q26 0 32 -13z" />
    <glyph glyph-name="periodcentered" unicode="&#xb7;" horiz-adv-x="144" 
d="M169 133q0 -24 -25 -24t-25 24t25 24t25 -24z" />
    <glyph glyph-name="periodcentered" unicode="&#x2219;" horiz-adv-x="144" 
d="M169 133q0 -24 -25 -24t-25 24t25 24t25 -24z" />
    <glyph glyph-name="cedilla" unicode="&#xb8;" horiz-adv-x="224" 
d="M173 -181q0 -48 -53 -76q-43 -23 -96 -23q-9 0 -9 11q0 5 9 8q36 6 72 11q35 10 35 58q0 14 -26 50.5t-26 56.5q0 34 19 60.5t51 26.5q11 0 12 -7q-22 -4 -34 -22t-12 -41q0 -12 29 -48.5t29 -64.5z" />
    <glyph glyph-name="onesuperior" unicode="&#xb9;" horiz-adv-x="209" 
d="M188 478v-2q-18 -24 -50 -80q-39 -71 -70 -138l-21 -48q-1 -2 -6 -2t-5 4q0 1 1 4q36 73 98 222q-3 0 -8.5 -4t-8.5 -4t-3 3q0 4 5 9q17 16 51 47h3q14 0 14 -11z" />
    <glyph glyph-name="ordmasculine" unicode="&#xba;" horiz-adv-x="191" 
d="M291 342q0 -2 -2 -4q-14 -24 -42.5 -41t-55.5 -17q-20 0 -37 10q-46 -73 -95 -73q-35 0 -35 41q0 57 50 134q-2 11 -2 22q0 36 24 70t59 34q23 0 37 -27q11 -23 11 -48q0 -54 -42 -137q15 -9 34 -9q33 0 62 26t27 26q7 0 7 -7zM173 418q0 22 -7 45q-10 32 -26 32
q-23 0 -36 -28q-10 -22 -9 -48q16 19 32 19q15 0 22 -10v-5q1 -3 1 -5q0 -3 -10 -3q-18 0 -38 -38q13 -38 46 -62q25 63 25 103zM140 301q-33 22 -50 51q-30 -63 -30 -91q0 -20 15 -20q14 0 37 24q20 19 28 36z" />
    <glyph glyph-name="guillemotright" unicode="&#xbb;" horiz-adv-x="420" 
d="M385 315q0 -11 -53 -86q-45 -65 -66 -89q-9 -11 -19 -11q-6 0 -6 6q0 15 99 153q-98 124 -98 134q0 14 11 13l8 -4q22 -30 55.5 -57.5t65.5 -52.5q3 -2 3 -6zM229 315q0 -11 -53 -86q-45 -65 -66 -89q-9 -11 -19 -11q-6 0 -6 6q0 15 99 153q-98 124 -98 134q0 14 11 13
l8 -4q22 -30 55.5 -57.5t65.5 -52.5q3 -2 3 -6z" />
    <glyph glyph-name="onequarter" unicode="&#xbc;" horiz-adv-x="463" 
d="M462 503q0 -2 -2 -5q-25 -24 -74 -73q-241 -244 -311 -391q-6 -12 -21 -53q-2 -5 -8 -5q-8 0 -8 7q0 8 18 47q79 172 289 399q26 29 83 82q6 4 14 4q20 0 20 -12zM188 478v-2q-18 -24 -50 -80q-39 -71 -70 -138l-21 -48q-1 -2 -6 -2t-5 4q0 1 1 4q36 73 98 222
q-3 0 -8.5 -4t-8.5 -4t-3 3q0 4 5 9q17 16 51 47h3q14 0 14 -11zM412 255v-11q-8 -8 -41 -61t-33 -59q0 -2 21.5 -5.5t21.5 -9.5q0 -4 -4 -4q-6 0 -17.5 2.5t-17.5 2.5q-8 0 -13 -1q-24 -42 -61 -124q-5 1 -5 8q0 9 22 56q25 54 27 60q-1 2 -4 2q-22 0 -63 -8t-51 -8
q-5 0 -5 7q0 2 36 27l94 66q53 40 83 79q10 0 10 -19zM380 234q-32 -27 -64 -50q-26 -19 -76 -58q28 -2 78 -2q12 0 62 110z" />
    <glyph glyph-name="onehalf" unicode="&#xbd;" horiz-adv-x="460" 
d="M462 503q0 -2 -2 -5q-25 -24 -74 -73q-241 -244 -311 -391q-6 -12 -21 -53q-2 -5 -8 -5q-8 0 -8 7q0 8 18 47q79 172 289 399q26 29 83 82q6 4 14 4q20 0 20 -12zM188 478v-2q-18 -24 -50 -80q-39 -71 -70 -138l-21 -48q-1 -2 -6 -2t-5 4q0 1 1 4q36 73 98 222
q-3 0 -8.5 -4t-8.5 -4t-3 3q0 4 5 9q17 16 51 47h3q14 0 14 -11zM420 215q0 -38 -63 -91q-62 -40 -128 -92h20q13 1 20 1q46 0 63 -14q4 -2 4 -5q0 -2 -3 -2q-1 0 -4 1q-24 12 -46 12q-36 0 -90 -18q-36 -13 -35 -13q-7 0 -7 13q0 8 32 19q25 9 55 27q48 29 98 74
q69 61 69 93q0 28 -27 28q-47 0 -122 -91q-2 -3 -4 -3q-4 0 -4 4v2q5 24 38.5 54.5t59.5 36.5q16 4 30 4q44 0 44 -40z" />
    <glyph glyph-name="threequarters" unicode="&#xbe;" horiz-adv-x="483" 
d="M488 503q0 -2 -3 -5l-73 -73q-241 -244 -312 -391q-5 -12 -20 -53q-2 -5 -8 -5q-9 0 -9 7q0 8 19 47q79 172 288 399q27 29 84 82q5 4 13 4q21 0 21 -12zM428 255v-11q-7 -8 -40 -61t-33 -59q0 -2 21.5 -5.5t21.5 -9.5q0 -4 -4 -4q-6 0 -17.5 2.5t-17.5 2.5q-8 0 -13 -1
q-24 -42 -61 -124q-5 1 -5 8q0 9 22 56q25 54 27 60q-1 2 -4 2q-22 0 -63 -8t-51 -8q-5 0 -5 7q0 2 36 27l94 66q53 40 83 79q10 0 9 -19zM397 234q-32 -27 -64 -50q-26 -19 -76 -58q27 -2 77 -2q12 0 63 110zM230 468q0 -30 -74 -67q40 -24 40 -61q0 -45 -44.5 -80
t-90.5 -35q-52 0 -63 35q-6 18 -6 31t7 13q4 0 4 -4q0 -65 55 -65q46 0 82.5 34.5t36.5 81.5q0 44 -40 44q-3 0 -11.5 -3t-12.5 -3q-6 0 -6 5q0 10 15 10h7h7q17 0 44.5 22t27.5 39t-23 17q-20 0 -41 -13t-19 -13q-2 0 -2 2q0 3 3 6q9 12 32.5 21.5t39.5 9.5q32 0 32 -27z
" />
    <glyph glyph-name="questiondown" unicode="&#xbf;" horiz-adv-x="360" 
d="M302 158q0 -24 -25 -24q-26 0 -26 24t26 24q25 0 25 -24zM303 -178q0 -5 -7 -14q-9 -14 -38 -38q-103 -87 -193 -87q-27 0 -47 16q-23 17 -23 43q0 50 65 108l120 94q65 53 65 92q0 11 -7 13q2 17 13 17q17 0 17 -24q0 -42 -63 -106q-58 -53 -116 -107q-63 -61 -63 -95
q0 -30 32 -30q99 0 199 87q10 11 30 31q4 4 10 4t6 -4z" />
    <glyph glyph-name="Agrave" unicode="&#xc0;" horiz-adv-x="753" 
d="M802 572q0 -3 -5 -11q-85 -142 -141 -350q45 -14 45 -26q0 -10 -11 -10q-1 0 -18 6.5t-21 7.5q-30 -120 -30 -190q0 -34 10 -34q9 0 24.5 12.5t18.5 12.5q9 0 9 -11t-19.5 -22.5t-32.5 -11.5q-38 0 -38 63q0 64 25 187q-51 7 -117 8q-31 -37 -80 -90q-80 -86 -123 -118
q-77 -56 -158 -56q-54 0 -87 24q-39 26 -39 78q0 58 49 107q44 44 104 60q100 28 319 27q65 76 131 161q18 26 56 75q4 5 9 5q13 0 13 -12q0 -3 -2 -7q-6 -9 -62 -83q-65 -87 -106 -140q50 -3 98 -14q28 127 73 238q11 31 39 88q4 7 27 21t31 14q9 0 9 -9zM458 203h-28
q-171 0 -260 -23q-50 -14 -87 -49q-42 -40 -42 -88q0 -33 28 -50q23 -15 59 -15q76 0 149 50q47 32 119 108q30 30 62 67zM807 633q0 -6 -6 -6q-5 0 -57.5 31.5t-63.5 40.5q-8 6 -8 18q0 13 9 13q7 0 17 -9q40 -27 106 -81q3 -4 3 -7z" />
    <glyph glyph-name="Aacute" unicode="&#xc1;" 
d="M802 572q0 -3 -5 -11q-85 -142 -141 -350q45 -14 45 -26q0 -10 -11 -10q-1 0 -18 6.5t-22 7.5q-29 -120 -29 -190q0 -34 10 -34q9 0 24.5 12.5t18.5 12.5q9 0 9 -11t-19.5 -22.5t-32.5 -11.5q-38 0 -38 63q0 64 25 187q-51 7 -118 8q-30 -37 -79 -90q-80 -86 -123 -118
q-77 -56 -158 -56q-54 0 -87 24q-39 26 -39 78q0 58 49 107q44 44 104 60q100 28 319 27q65 76 131 161q18 26 56 75q4 5 9 5q13 0 13 -12q0 -3 -2 -7q-6 -9 -62 -83q-65 -87 -106 -140q50 -3 98 -14q28 127 72 238q12 31 40 88q4 7 27 21t31 14q9 0 9 -9zM458 203h-28
q-172 0 -260 -23q-50 -14 -87 -49q-42 -40 -42 -88q0 -33 28 -50q23 -15 59 -15q76 0 149 50q47 32 119 108q30 30 62 67zM906 698q0 -12 -8 -19q-11 -9 -62.5 -40t-57.5 -31q-7 0 -7 6q0 4 4 7q36 27 105 81q11 9 17 9q9 0 9 -13z" />
    <glyph glyph-name="Acircumflex" unicode="&#xc2;" 
d="M802 572q0 -3 -5 -11q-85 -142 -141 -350q45 -14 45 -26q0 -10 -11 -10q-1 0 -18 6.5t-22 7.5q-29 -120 -29 -190q0 -34 10 -34q9 0 24.5 12.5t18.5 12.5q9 0 9 -11t-19.5 -22.5t-32.5 -11.5q-38 0 -38 63q0 64 25 187q-51 7 -118 8q-30 -37 -79 -90q-80 -86 -123 -118
q-77 -56 -158 -56q-54 0 -87 24q-39 26 -39 78q0 58 49 107q44 44 104 60q100 28 319 27q65 76 131 161q18 26 56 75q4 5 9 5q13 0 13 -12q0 -3 -2 -7q-6 -9 -62 -83q-65 -87 -106 -140q50 -3 98 -14q28 127 72 238q12 31 40 88q4 7 27 21t31 14q9 0 9 -9zM458 203h-28
q-172 0 -260 -23q-50 -14 -87 -49q-42 -40 -42 -88q0 -33 28 -50q23 -15 59 -15q76 0 149 50q47 32 119 108q30 30 62 67zM896 597l-3 -5q-15 0 -56 26q-37 24 -50 38q-74 -61 -83 -61q-6 0 -6 7t44.5 44t54.5 38l4 -2q29 -31 91 -78z" />
    <glyph glyph-name="Atilde" unicode="&#xc3;" horiz-adv-x="741" 
d="M802 572q0 -3 -5 -11q-85 -142 -141 -350q45 -14 45 -26q0 -10 -11 -10q-1 0 -18 6.5t-21 7.5q-30 -120 -30 -190q0 -34 10 -34q9 0 24.5 12.5t18.5 12.5q9 0 9 -11t-19.5 -22.5t-32.5 -11.5q-38 0 -38 63q0 64 25 187q-51 7 -117 8q-31 -37 -80 -90q-80 -86 -123 -118
q-77 -56 -158 -56q-54 0 -87 24q-39 26 -39 78q0 58 49 107q44 44 104 60q100 28 319 27q65 76 131 161q18 26 56 75q4 5 9 5q13 0 13 -12q0 -3 -2 -7q-6 -9 -62 -83q-65 -87 -106 -140q50 -3 98 -14q28 127 73 238q11 31 39 88q4 7 27 21t31 14q9 0 9 -9zM458 203h-28
q-171 0 -260 -23q-50 -14 -87 -49q-42 -40 -42 -88q0 -33 28 -50q23 -15 59 -15q76 0 149 50q47 32 119 108q30 30 62 67zM915 682q0 -17 -47 -48q-14 -10 -33 -10q-20 0 -58 15.5t-57 15.5q-20 0 -39 -15t-25 -14q-1 0 -1 2q0 8 21 26q17 15 29 22q20 12 43 12
q19 0 56 -12.5t56 -12.5q28 0 48 24q7 1 7 -5z" />
    <glyph glyph-name="Adieresis" unicode="&#xc4;" 
d="M802 572q0 -3 -5 -11q-85 -142 -141 -350q45 -14 45 -26q0 -10 -11 -10q-1 0 -18 6.5t-22 7.5q-29 -120 -29 -190q0 -34 10 -34q9 0 24.5 12.5t18.5 12.5q9 0 9 -11t-19.5 -22.5t-32.5 -11.5q-38 0 -38 63q0 64 25 187q-51 7 -118 8q-30 -37 -79 -90q-80 -86 -123 -118
q-77 -56 -158 -56q-54 0 -87 24q-39 26 -39 78q0 58 49 107q44 44 104 60q100 28 319 27q65 76 131 161q18 26 56 75q4 5 9 5q13 0 13 -12q0 -3 -2 -7q-6 -9 -62 -83q-65 -87 -106 -140q50 -3 98 -14q28 127 72 238q12 31 40 88q4 7 27 21t31 14q9 0 9 -9zM458 203h-28
q-172 0 -260 -23q-50 -14 -87 -49q-42 -40 -42 -88q0 -33 28 -50q23 -15 59 -15q76 0 149 50q47 32 119 108q30 30 62 67zM903 699q0 4 -15 -17l-16 -40q-12 -27 -27 -27q-7 0 -14 10.5t-7 18.5q0 15 29.5 36t45.5 21q2 0 4 -1v1v-2zM782 699q0 4 -15 -17l-16 -40
q-12 -27 -27 -27q-7 0 -14 10.5t-7 18.5q0 15 29.5 36t45.5 21q2 0 4 -1v1v-2z" />
    <glyph glyph-name="Aring" unicode="&#xc5;" 
d="M795 553q0 -26 -15.5 -52t-38.5 -37q-53 -116 -90 -255q46 -15 46 -24q0 -7 -7 -7q-3 0 -6 2q-15 8 -37 13q-30 -122 -30 -190q0 -41 14 -41q10 0 25.5 12t16.5 12q6 0 6 -7q0 -10 -18.5 -20.5t-29.5 -10.5q-35 0 -35 60q0 65 25 190q-52 7 -123 8q-30 -37 -80 -91
q-80 -86 -122 -117q-76 -55 -157 -55q-52 0 -84 22q-38 26 -38 76q0 57 48 105q43 43 102 59q102 28 320 27q100 116 188 237q-11 10 -11 29q0 31 28.5 69.5t59.5 38.5q19 0 31 -16t12 -37zM771 551q0 36 -22 36q-20 0 -36 -27t-16 -48q0 -30 22 -30q23 0 39 24q13 21 13 45
zM699 459l-9 2l-1 -2q-31 -49 -83 -116l-88 -112q54 -2 107 -15q28 129 74 243zM465 207h-35q-170 1 -262 -24q-51 -14 -89 -50q-42 -41 -42 -90q0 -35 29 -53q24 -15 61 -15q77 0 151 50q47 32 120 108q32 34 67 74z" />
    <glyph glyph-name="AE" unicode="&#xc6;" horiz-adv-x="954" 
d="M1148 489q0 -12 -24 -12q-18 9 -68 9q-128 0 -168 -24q-22 -14 -154 -161q3 -4 8 -4q27 0 81 4t82 4q68 0 68 -7q0 -6 -29 -12q-23 -4 -128 -11q-79 -5 -124 -26q-19 -8 -61 -85t-42 -101q0 -57 88 -57q90 0 233 63q40 19 85 39q-1 -1 -5 -8q-32 -44 -154 -89
q-112 -40 -178 -40q-100 0 -100 80q0 85 100 214q-40 -2 -119 -8q-78 -96 -121 -142q-78 -85 -122 -117q-76 -55 -156 -55q-53 0 -85 22q-38 26 -38 76q0 115 207 183q131 43 304 58q113 131 213 180q104 50 273 50q81 0 117 -9q17 -4 17 -14zM824 458q-3 5 -10 11
q-64 -20 -140 -77q-72 -54 -116 -111q37 5 120 9q14 14 40 44q34 42 106 124zM506 257q-160 -19 -276 -57q-193 -62 -193 -157q0 -35 29 -53q25 -15 62 -15q73 0 148 49q57 37 125 111q53 61 105 122z" />
    <glyph glyph-name="Ccedilla" unicode="&#xc7;" horiz-adv-x="516" 
d="M646 462q0 -68 -75 -125q-70 -55 -141 -55q-73 0 -73 56q0 40 18 40q7 0 7 -9q0 -3 -1 -9t-1 -9q0 -39 51 -39q53 0 120 51t67 101q0 49 -83 49q-17 0 -33 -2q-86 -9 -196 -72.5t-183 -148.5q-81 -96 -81 -184q0 -55 37 -84q33 -26 90 -26q182 0 353 142q4 3 8 3
q12 0 12 -13q0 -5 -4 -9q-73 -67 -173 -114q-110 -52 -199 -52q-73 0 -118 30q-53 35 -53 104q0 82 67 179q79 115 205 191q135 83 266 83q113 0 113 -78zM154 -187q0 -48 -53 -76q-43 -23 -96 -23q-9 0 -9 11q0 5 9 8q36 6 72 11q35 10 35 58q0 14 -26 50.5t-26 56.5
q0 33 19 58t51 25q11 0 12 -7q-46 -8 -46 -59q0 -12 29 -48.5t29 -64.5z" />
    <glyph glyph-name="Egrave" unicode="&#xc8;" horiz-adv-x="476" 
d="M683 462q0 -39 -32 -83q-29 -38 -67 -61q-7 -4 -13 -4q-17 0 -17 16q0 7 8 14q93 72 93 120q0 49 -83 49q-103 0 -229 -74q-113 -66 -186 -155q85 10 158 10q151 0 151 -28q0 -13 -14 -13q-13 0 -49.5 5.5t-56.5 5.5q-93 0 -217 -18q-50 -75 -50 -139q0 -60 45 -91
q39 -28 102 -28q153 0 334 150q4 3 7 3q13 0 13 -13q0 -5 -4 -9q-74 -67 -174 -114q-109 -52 -199 -52q-73 0 -118 30q-52 35 -52 104t49 152q-49 -9 -45 -9q-7 0 -7 7q0 25 21 32q8 3 57 10q80 109 203 182q133 79 260 79q112 0 112 -78zM606 584q0 -6 -6 -6
q-5 0 -57.5 31.5t-62 39t-9.5 19.5t10 12q6 0 16 -8q40 -27 106 -81q3 -4 3 -7z" />
    <glyph glyph-name="Eacute" unicode="&#xc9;" horiz-adv-x="586" 
d="M683 462q0 -39 -32 -83q-29 -38 -67 -61q-7 -4 -13 -4q-17 0 -17 16q0 7 8 14q93 72 93 120q0 49 -83 49q-103 0 -229 -74q-113 -66 -186 -155q85 10 158 10q151 0 151 -28q0 -13 -14 -13q-13 0 -49.5 5.5t-56.5 5.5q-93 0 -217 -18q-50 -75 -50 -139q0 -60 45 -91
q39 -28 102 -28q153 0 334 150q4 3 7 3q13 0 13 -13q0 -5 -4 -9q-74 -67 -174 -114q-109 -52 -199 -52q-73 0 -118 30q-52 35 -52 104t49 152q-49 -9 -45 -9q-7 0 -7 7q0 25 21 32q8 3 57 10q80 109 203 182q133 79 260 79q112 0 112 -78zM705 673q0 -12 -10 -20t-60 -39
q-53 -31 -59 -31t-6 6q0 3 3 6q37 28 105 82q11 8 17 8q10 0 10 -12z" />
    <glyph glyph-name="Ecircumflex" unicode="&#xca;" horiz-adv-x="587" 
d="M683 462q0 -39 -32 -83q-29 -38 -67 -61q-7 -4 -13 -4q-17 0 -17 16q0 7 8 14q93 72 93 120q0 49 -83 49q-103 0 -229 -74q-113 -66 -186 -155q85 10 158 10q151 0 151 -28q0 -13 -14 -13q-13 0 -49.5 5.5t-56.5 5.5q-93 0 -217 -18q-50 -75 -50 -139q0 -60 45 -91
q39 -28 102 -28q153 0 334 150q4 3 7 3q13 0 13 -13q0 -5 -4 -9q-74 -67 -174 -114q-109 -52 -199 -52q-73 0 -118 30q-52 35 -52 104t49 152q-49 -9 -45 -9q-7 0 -7 7q0 25 21 32q8 3 57 10q80 109 203 182q133 79 260 79q112 0 112 -78zM673 571l-4 -6q-14 1 -55 27
q-38 23 -51 37q-73 -61 -83 -61q-5 0 -5 7q0 8 44 44.5t54 38.5l5 -2q28 -32 91 -78z" />
    <glyph glyph-name="Edieresis" unicode="&#xcb;" horiz-adv-x="587" 
d="M683 462q0 -39 -32 -83q-29 -38 -67 -61q-7 -4 -13 -4q-17 0 -17 16q0 7 8 14q93 72 93 120q0 49 -83 49q-103 0 -229 -74q-113 -66 -186 -155q85 10 158 10q151 0 151 -28q0 -13 -14 -13q-13 0 -49.5 5.5t-56.5 5.5q-93 0 -217 -18q-50 -75 -50 -139q0 -60 45 -91
q39 -28 102 -28q153 0 334 150q4 3 7 3q13 0 13 -13q0 -5 -4 -9q-74 -67 -174 -114q-109 -52 -199 -52q-73 0 -118 30q-52 35 -52 104t49 152q-49 -9 -45 -9q-7 0 -7 7q0 25 21 32q8 3 57 10q80 109 203 182q133 79 260 79q112 0 112 -78zM682 658q0 4 -15 -17l-16 -40
q-12 -27 -27 -27q-7 0 -14 10.5t-7 18.5q0 15 29.5 36t45.5 21q2 0 4 -1v1v-2zM561 658q0 4 -15 -17l-16 -40q-12 -27 -27 -27q-7 0 -14 10.5t-7 18.5q0 15 29.5 36t45.5 21q2 0 4 -1v1v-2z" />
    <glyph glyph-name="Igrave" unicode="&#xcc;" horiz-adv-x="457" 
d="M675 492q0 -8 -11 -8l-3 1q-54 6 -164 14q-90 -114 -144 -216q-78 -148 -95 -237q51 6 92 6q91 0 110 -21q6 -7 6 -20q0 -17 -10 -17q-17 0 -59.5 9.5t-63.5 9.5q-36 0 -78 -4q1 -29 20 -29q9 0 25 11t19 11q8 0 8 -9q0 -12 -20.5 -22.5t-33.5 -10.5q-40 0 -44 47
q-25 -3 -111 -21q-77 -17 -101 -17q-12 0 -12 13q0 8 10 12q7 3 61 17q81 20 154 31q11 84 84 235q66 137 128 223h-17q-58 1 -100 -4q-125 -15 -125 -48q0 -14 28 -30t28 -22q0 -8 -10 -8q-3 0 -7 1q-80 38 -80 67q0 22 43 43q57 27 186 27q34 0 72 -2q12 17 49 17
q15 0 15 -6q0 -2 -10 -15q57 -4 115 -12q12 -1 35 -5q11 -3 11 -11zM553 571q0 -6 -6 -6q-5 0 -57.5 31.5t-62 39t-9.5 19.5t9 12q7 0 17 -8q40 -27 106 -81q3 -4 3 -7z" />
    <glyph glyph-name="Iacute" unicode="&#xcd;" horiz-adv-x="457" 
d="M675 492q0 -8 -11 -8l-3 1q-54 6 -164 14q-90 -114 -144 -216q-78 -148 -95 -237q51 6 92 6q91 0 110 -21q6 -7 6 -20q0 -17 -10 -17q-17 0 -59.5 9.5t-63.5 9.5q-36 0 -78 -4q1 -29 20 -29q9 0 25 11t19 11q8 0 8 -9q0 -12 -20.5 -22.5t-33.5 -10.5q-40 0 -44 47
q-26 -3 -111 -21q-77 -17 -101 -17q-12 0 -12 13q0 8 10 12q7 3 61 17q81 20 154 31q11 84 84 235q66 137 128 223h-17q-58 1 -100 -4q-125 -15 -125 -48q0 -14 28 -30t28 -22q0 -8 -10 -8q-3 0 -7 1q-80 38 -80 67q0 22 43 43q57 27 186 27q34 0 72 -2q12 17 49 17
q15 0 15 -6q0 -2 -10 -15q57 -4 115 -12q12 -1 35 -5q11 -3 11 -11zM658 686q0 -12 -8 -19q-11 -9 -62.5 -40t-57.5 -31q-7 0 -7 6q0 4 4 7q36 27 105 81q11 9 17 9q9 0 9 -13z" />
    <glyph glyph-name="Icircumflex" unicode="&#xce;" horiz-adv-x="457" 
d="M675 492q0 -8 -11 -8l-3 1q-54 6 -164 14q-90 -114 -144 -216q-78 -148 -95 -237q51 6 92 6q91 0 110 -21q6 -7 6 -20q0 -17 -10 -17q-17 0 -59.5 9.5t-63.5 9.5q-36 0 -78 -4q1 -29 20 -29q9 0 25 11t19 11q8 0 8 -9q0 -12 -20.5 -22.5t-33.5 -10.5q-40 0 -44 47
q-25 -3 -111 -21q-77 -17 -101 -17q-12 0 -12 13q0 8 10 12q7 3 61 17q81 20 154 31q11 84 84 235q66 137 128 223h-17q-58 1 -100 -4q-125 -15 -125 -48q0 -14 28 -30t28 -22q0 -8 -10 -8q-3 0 -7 1q-80 38 -80 67q0 22 43 43q57 27 186 27q34 0 72 -2q12 17 49 17
q15 0 15 -6q0 -2 -10 -15q57 -4 115 -12q12 -1 35 -5q11 -3 11 -11zM599 565l-3 -5q-15 0 -54 25t-52 39q-74 -61 -83 -61q-5 0 -5 7t44 44t54 38l5 -2q28 -31 90 -78z" />
    <glyph glyph-name="Idieresis" unicode="&#xcf;" horiz-adv-x="457" 
d="M675 492q0 -8 -11 -8l-3 1q-54 6 -164 14q-90 -114 -144 -216q-78 -148 -95 -237q51 6 92 6q91 0 110 -21q6 -7 6 -20q0 -17 -10 -17q-17 0 -59.5 9.5t-63.5 9.5q-36 0 -78 -4q1 -29 20 -29q9 0 25 11t19 11q8 0 8 -9q0 -12 -20.5 -22.5t-33.5 -10.5q-40 0 -44 47
q-26 -3 -111 -21q-77 -17 -101 -17q-12 0 -12 13q0 8 10 12q7 3 61 17q81 20 154 31q11 84 84 235q66 137 128 223h-17q-58 1 -100 -4q-125 -15 -125 -48q0 -14 28 -30t28 -22q0 -8 -10 -8q-3 0 -7 1q-80 38 -80 67q0 22 43 43q57 27 186 27q34 0 72 -2q12 17 49 17
q15 0 15 -6q0 -2 -10 -15q57 -4 115 -12q12 -1 35 -5q11 -3 11 -11zM626 649q0 4 -15 -17l-16 -40q-12 -27 -27 -27q-7 0 -14 10.5t-7 18.5q0 15 29.5 36t45.5 21q2 0 4 -1v1v-2zM505 649q0 4 -15 -17l-16 -40q-12 -27 -27 -27q-7 0 -14 10.5t-7 18.5q0 15 29.5 36t45.5 21
q2 0 4 -1v1v-2z" />
    <glyph glyph-name="Eth" unicode="&#xd0;" 
d="M762 311q0 -79 -56 -156q-47 -66 -123 -115q6 -11 6 -14q0 -12 -7 -12q-1 0 -13 18q-150 -92 -346 -92q-21 0 -39 1q-68 4 -124 27q-77 32 -77 87q0 66 63 108q54 36 124 38q16 39 35 78q-53 -27 -107 -54q-8 0 -8 17q0 8 2.5 9.5t31.5 15.5q54 26 96 42q33 68 65 124
q9 18 31 51q15 19 49 19q10 0 10 -4l-2 -4q-64 -88 -111 -170q98 34 126 34q7 0 7 -6q0 -5 -5 -6q-14 -3 -42 -10q-47 -13 -100 -37q-27 -50 -51 -99q274 -4 371 -136q68 47 111 108q51 72 51 144q0 114 -128 174q-99 47 -228 47q-171 0 -302 -75q-7 -4 -11 -4q-10 0 -10 12
q0 19 29 35q44 24 136 39q78 13 143 13q147 0 258 -51q145 -67 145 -196zM553 54q-48 59 -155 97q-95 33 -182 33q-14 0 -28 -1q-62 -129 -62 -174q0 -3 1 -8t1 -8q0 -10 -7 -10q-13 0 -13 24q0 46 53 173q-142 -21 -142 -127q0 -47 63 -74q46 -20 102 -22q11 -1 25 -1
q193 0 344 98z" />
    <glyph glyph-name="Ntilde" unicode="&#xd1;" horiz-adv-x="884" 
d="M877 376q0 -59 -58 -186t-58 -164q0 -30 28 -30q16 0 39.5 17t27.5 17t4 -5q0 -20 -27.5 -35t-49.5 -15q-53 0 -53 56q0 41 30 110q36 81 38 87q21 50 32.5 90.5t11.5 63.5q0 35 -25 35q-12 0 -31 -8q-72 -33 -181 -170q-80 -101 -146 -211q-16 -29 -49 -70q-22 0 -22 22
q0 7 3 12q55 67 122 217q72 161 72 234q0 108 -128 108q-61 0 -139 -27q-90 -30 -174 -88q-111 -76 -111 -146q0 -57 77 -57q41 0 111 20q7 2 10 2q8 0 8 -6q0 -17 -52 -29q-41 -10 -68 -10q-112 0 -112 88q0 82 114 161q86 59 188 91q84 25 154 25q165 0 165 -130
q0 -91 -73 -229q57 68 114 137q86 93 135 93q73 0 73 -70zM904 588q0 -15 -39 -42q-13 -9 -28 -9q-17 0 -49.5 13.5t-49.5 13.5t-33 -13t-21 -13q-1 1 -1 3q0 15 42 40q17 10 37 10q17 0 48 -10.5t47 -10.5q24 0 41 22q6 0 6 -4z" />
    <glyph glyph-name="Ograve" unicode="&#xd2;" horiz-adv-x="646" 
d="M701 359q0 -71 -56 -151q-71 -103 -204.5 -171t-258.5 -68q-131 0 -131 105q0 32 15 70q-66 31 -66 97q0 86 84 159q66 57 163 92q104 38 208 38q97 0 163 -36q83 -46 83 -135zM668 374q0 70 -64 105q-51 28 -128 28q-100 0 -214 -45q-85 -34 -150 -83q-89 -69 -89 -137
q0 -59 52 -77q46 81 138.5 166.5t175.5 119.5q42 17 72 19h2q12 1 12 -9t-14 -13q-38 -6 -69 -23q-37 -20 -83 -56q-54 -41 -109 -98q-73 -75 -85 -116q19 -4 37 -4q89 0 179 84q36 33 35 33q7 0 7 -8q-39 -56 -99 -91q-64 -38 -129 -38q-21 0 -37 5q-17 -33 -17 -62
q0 -40 29 -62t70 -22q120 0 240 72q112 67 184 171q54 78 54 141zM618 573q0 -5 -6 -5q-5 0 -57.5 31t-63.5 40q-8 6 -8 18q0 13 9 13q7 0 17 -8q40 -28 106 -82q3 -3 3 -7z" />
    <glyph glyph-name="Oacute" unicode="&#xd3;" horiz-adv-x="646" 
d="M701 359q0 -71 -56 -151q-71 -103 -204.5 -171t-258.5 -68q-131 0 -131 105q0 32 15 70q-66 31 -66 97q0 86 84 159q66 57 163 92q104 38 208 38q97 0 163 -36q83 -46 83 -135zM668 374q0 70 -64 105q-51 28 -128 28q-100 0 -214 -45q-85 -34 -150 -83q-89 -69 -89 -137
q0 -59 52 -77q46 81 138.5 166.5t175.5 119.5q42 17 72 19h2q12 1 12 -9t-14 -13q-38 -6 -69 -23q-37 -20 -83 -56q-54 -41 -109 -98q-73 -75 -85 -116q19 -4 37 -4q89 0 179 84q36 33 35 33q7 0 7 -8q-39 -56 -99 -91q-64 -38 -129 -38q-21 0 -37 5q-17 -33 -17 -62
q0 -40 29 -62t70 -22q120 0 240 72q112 67 184 171q54 78 54 141zM659 654q0 -12 -8 -19q-11 -9 -62.5 -40t-57.5 -31q-7 0 -7 6q0 4 4 7q36 27 105 81q11 9 17 9q9 0 9 -13z" />
    <glyph glyph-name="Ocircumflex" unicode="&#xd4;" horiz-adv-x="646" 
d="M701 359q0 -71 -56 -151q-71 -103 -204.5 -171t-258.5 -68q-131 0 -131 105q0 32 15 70q-66 31 -66 97q0 86 84 159q66 57 163 92q104 38 208 38q97 0 163 -36q83 -46 83 -135zM668 374q0 70 -64 105q-51 28 -128 28q-100 0 -214 -45q-85 -34 -150 -83q-89 -69 -89 -137
q0 -59 52 -77q46 81 138.5 166.5t175.5 119.5q42 17 72 19h2q12 1 12 -9t-14 -13q-38 -6 -69 -23q-37 -20 -83 -56q-54 -41 -109 -98q-73 -75 -85 -116q19 -4 37 -4q89 0 179 84q36 33 35 33q7 0 7 -8q-39 -56 -99 -91q-64 -38 -129 -38q-21 0 -37 5q-17 -33 -17 -62
q0 -40 29 -62t70 -22q120 0 240 72q112 67 184 171q54 78 54 141zM628 555l-3 -6q-15 1 -54 25.5t-52 38.5q-74 -61 -83 -61q-5 0 -5 7t44 44t54 39l4 -2q29 -32 91 -79z" />
    <glyph glyph-name="Otilde" unicode="&#xd5;" horiz-adv-x="646" 
d="M701 359q0 -71 -56 -151q-71 -103 -204.5 -171t-258.5 -68q-131 0 -131 105q0 32 15 70q-66 31 -66 97q0 86 84 159q66 57 163 92q104 38 208 38q97 0 163 -36q83 -46 83 -135zM668 374q0 70 -64 105q-51 28 -128 28q-100 0 -214 -45q-85 -34 -150 -83q-89 -69 -89 -137
q0 -59 52 -77q46 81 138.5 166.5t175.5 119.5q42 17 72 19h2q12 1 12 -9t-14 -13q-38 -6 -69 -23q-37 -20 -83 -56q-54 -41 -109 -98q-73 -75 -85 -116q19 -4 37 -4q89 0 179 84q36 33 35 33q7 0 7 -8q-39 -56 -99 -91q-64 -38 -129 -38q-21 0 -37 5q-17 -33 -17 -62
q0 -40 29 -62t70 -22q120 0 240 72q112 67 184 171q54 78 54 141zM651 625q0 -15 -39 -42q-13 -9 -28 -9q-17 0 -49.5 13.5t-49.5 13.5t-33 -13t-21 -13q-1 1 -1 3q0 15 42 40q17 10 37 10q17 0 48 -10.5t47 -10.5q24 0 41 22q6 0 6 -4z" />
    <glyph glyph-name="Odieresis" unicode="&#xd6;" horiz-adv-x="646" 
d="M701 359q0 -71 -56 -151q-71 -103 -204.5 -171t-258.5 -68q-131 0 -131 105q0 32 15 70q-66 31 -66 97q0 86 84 159q66 57 163 92q104 38 208 38q97 0 163 -36q83 -46 83 -135zM668 374q0 70 -64 105q-51 28 -128 28q-100 0 -214 -45q-85 -34 -150 -83q-89 -69 -89 -137
q0 -59 52 -77q46 81 138.5 166.5t175.5 119.5q42 17 72 19h2q12 1 12 -9t-14 -13q-38 -6 -69 -23q-37 -20 -83 -56q-54 -41 -109 -98q-73 -75 -85 -116q19 -4 37 -4q89 0 179 84q36 33 35 33q7 0 7 -8q-39 -56 -99 -91q-64 -38 -129 -38q-21 0 -37 5q-17 -33 -17 -62
q0 -40 29 -62t70 -22q120 0 240 72q112 67 184 171q54 78 54 141zM632 648q0 4 -15 -17l-16 -40q-12 -27 -27 -27q-7 0 -14 10.5t-7 18.5q0 15 29.5 36t45.5 21q2 0 4 -1v1v-2zM511 648q0 4 -15 -17l-16 -40q-12 -27 -27 -27q-7 0 -14 10.5t-7 18.5q0 15 29.5 36t45.5 21
q2 0 4 -1v1v-2z" />
    <glyph glyph-name="multiply" unicode="&#xd7;" horiz-adv-x="278" 
d="M251 84q0 -9 -15 -18t-26 -9q-24 0 -49 32q-20 25 -29 53q-22 -32 -70 -91q-5 -5 -9 -5q-8 0 -8 7q0 18 82 103q-33 63 -33 80q0 9 16 9q6 0 9 -6q11 -20 25 -67q21 23 41 45q33 33 44 33l2 -2q-2 -9 -82 -89q7 -24 29 -50q25 -29 47 -29q5 0 12 3.5t11 3.5z" />
    <glyph glyph-name="Oslash" unicode="&#xd8;" horiz-adv-x="784" 
d="M805 579q-3 -5 -137 -117q80 -35 80 -104q0 -50 -44 -113q-115 -167 -338 -261q-68 -28 -130 -28q-26 0 -49 5q-76 -108 -97 -180q-6 -21 -6 -28q0 -1 -1 -1q-7 0 -14 6.5t-7 12.5q0 58 104 197q-77 30 -77 118q0 30 13 62q-81 38 -81 97q0 70 141.5 157.5t342.5 87.5
q74 0 129 -16q118 109 159 109q11 0 12 -4zM725 360q0 61 -75 87q-301 -263 -451 -469q16 -4 35 -4q54 0 128 31q94 38 178 103q90 68 143 146q42 63 42 106zM615 456q-43 9 -99 9q-83 0 -174 -18q-103 -22 -163 -58q-141 -85 -141 -148q0 -47 71 -75q33 63 108 125
q68 56 141 87q42 18 55 18q9 0 9 -8q0 -6 -7 -8q-14 -3 -42 -13q-69 -29 -135 -87q-69 -62 -99 -125q37 -10 69 -10q20 0 20 -6q0 -10 -43 -10q-31 0 -53 7q-10 -26 -10 -56q0 -72 57 -96q89 115 233 267q115 122 203 205z" />
    <glyph glyph-name="Ugrave" unicode="&#xd9;" horiz-adv-x="642" 
d="M779 521q0 -2 -2 -4q-96 -166 -134 -269q-57 -153 -57 -245q0 -60 27 -60q10 0 25.5 14t18.5 14q9 0 9 -9q0 -13 -26.5 -28.5t-40.5 -15.5q-47 0 -47 75q0 86 61 267q-60 -80 -119 -161q-92 -113 -143 -113q-64 0 -64 62q0 53 48 158q39 76 77 153q21 45 21 75
q0 59 -74 59q-82 0 -183 -59.5t-134 -132.5q-18 -39 -18 -63q0 -31 35 -31q8 0 23.5 3t22.5 3q8 0 8 -5q0 -12 -28 -20q-21 -5 -38 -5q-63 0 -63 52q0 23 13 51q41 88 158.5 159.5t216.5 71.5q98 0 98 -80q0 -39 -28 -98q-34 -66 -96 -201q-24 -63 -24 -94q0 -29 21 -29
q52 0 143 113q66 83 138 200q15 24 42 73q16 37 53 105q6 8 23 14t28 6q9 0 9 -5zM630 521q0 -5 -7 -5q-5 0 -57 31t-63 40q-9 6 -9 18q0 13 10 13q6 0 17 -8q39 -28 105 -82q4 -3 4 -7z" />
    <glyph glyph-name="Uacute" unicode="&#xda;" horiz-adv-x="642" 
d="M779 521q0 -2 -2 -4q-96 -166 -134 -269q-57 -153 -57 -245q0 -60 27 -60q10 0 25.5 14t18.5 14q9 0 9 -9q0 -13 -26.5 -28.5t-40.5 -15.5q-47 0 -47 75q0 86 61 267q-60 -80 -119 -161q-92 -113 -143 -113q-64 0 -64 62q0 53 48 158q39 76 77 153q21 45 21 75
q0 59 -74 59q-82 0 -183 -59.5t-134 -132.5q-18 -39 -18 -63q0 -31 35 -31q8 0 23.5 3t22.5 3q8 0 8 -5q0 -12 -28 -20q-21 -5 -38 -5q-63 0 -63 52q0 23 13 51q41 88 158.5 159.5t216.5 71.5q98 0 98 -80q0 -39 -28 -98q-34 -66 -96 -201q-24 -63 -24 -94q0 -29 21 -29
q52 0 143 113q66 83 138 200q15 24 42 73q16 37 53 105q6 8 23 14t28 6q9 0 9 -5zM668 608q0 -12 -8 -19q-11 -9 -62.5 -40t-57.5 -31q-7 0 -7 6q0 4 3 6q37 28 106 82q11 9 17 9q9 0 9 -13z" />
    <glyph glyph-name="Ucircumflex" unicode="&#xdb;" horiz-adv-x="689" 
d="M779 521q0 -2 -2 -4q-96 -166 -134 -269q-56 -153 -56 -245q0 -60 26 -60q10 0 25.5 14t18.5 14q9 0 9 -9q0 -13 -26.5 -28.5t-40.5 -15.5q-47 0 -47 75q0 86 61 268q-60 -81 -119 -162q-92 -113 -143 -113q-64 0 -64 62q0 53 48 158q39 76 77 153q21 45 21 75
q0 59 -74 59q-82 0 -183 -59.5t-134 -132.5q-18 -39 -18 -63q0 -31 35 -31q8 0 23.5 3t22.5 3q8 0 8 -5q0 -12 -28 -20q-21 -5 -38 -5q-63 0 -63 52q0 23 13 51q41 88 160 160q116 71 215 71q98 0 98 -80q0 -39 -28 -98q-34 -66 -96 -201q-24 -63 -24 -94q0 -29 21 -29
q52 0 143 113q66 83 138 200q15 24 42 73q16 37 53 105q6 8 23 14t28 6q9 0 9 -5zM683 505l-3 -5q-15 0 -54 25t-52 39q-74 -61 -83 -61q-5 0 -5 7t44 44t54 38l5 -2q28 -31 90 -78z" />
    <glyph glyph-name="Udieresis" unicode="&#xdc;" horiz-adv-x="689" 
d="M779 521q0 -2 -2 -4q-96 -166 -134 -269q-56 -153 -56 -245q0 -60 26 -60q10 0 25.5 14t18.5 14q9 0 9 -9q0 -13 -26.5 -28.5t-40.5 -15.5q-47 0 -47 75q0 86 61 268q-60 -81 -119 -162q-92 -113 -143 -113q-64 0 -64 62q0 53 48 158q39 76 77 153q21 45 21 75
q0 59 -74 59q-82 0 -183 -59.5t-134 -132.5q-18 -39 -18 -63q0 -31 35 -31q8 0 23.5 3t22.5 3q8 0 8 -5q0 -12 -28 -20q-21 -5 -38 -5q-63 0 -63 52q0 23 13 51q41 88 160 160q116 71 215 71q98 0 98 -80q0 -39 -28 -98q-34 -66 -96 -201q-24 -63 -24 -94q0 -29 21 -29
q52 0 143 113q66 83 138 200q15 24 42 73q16 37 53 105q6 8 23 14t28 6q9 0 9 -5zM706 619q0 4 -15 -17l-16 -40q-12 -27 -27 -27q-7 0 -14 10.5t-7 18.5q0 15 29.5 36t45.5 21q2 0 4 -1v1v-2zM585 619q0 4 -15 -17l-16 -40q-12 -27 -27 -27q-7 0 -14 10.5t-7 18.5
q0 15 29.5 36t45.5 21q2 0 4 -1v1v-2z" />
    <glyph glyph-name="Yacute" unicode="&#xdd;" horiz-adv-x="751" 
d="M686 563q0 -12 -8 -19q-11 -9 -62.5 -40t-57.5 -31q-7 0 -7 6q0 3 3 6q37 28 106 82q11 8 17 8q9 0 9 -12zM752 48q0 -7 -8 -7q-4 0 -7 1q-28 12 -52 12q-16 0 -37 -4q-47 -161 -166 -276q-132 -127 -290 -127q-43 0 -75 19q-38 23 -38 63q0 118 223 227q158 78 327 114
q12 46 18 132l10 136q-9 -16 -77 -110q-63 -88 -90 -120q-71 -81 -115 -81q-66 0 -66 61q0 58 64 183.5t64 162.5q0 63 -78 63q-83 0 -184.5 -60.5t-135.5 -134.5q-18 -39 -18 -64q0 -35 38 -35q9 0 24.5 3.5t22.5 3.5q3 0 3 -2q0 -10 -27 -17q-21 -5 -36 -5q-58 0 -58 50
q0 21 12 49q41 87 158 157.5t215 70.5q94 0 94 -76q0 -38 -28 -96l-62 -128q-39 -88 -39 -131q0 -33 26 -33q56 0 149 115q68 84 146 206q1 11 4 33q3 14 23.5 34t34.5 20q8 0 8 -9v-4q-26 -63 -42 -184q-19 -136 -34 -186q7 1 15 1q84 0 84 -27zM621 47q-137 -25 -307 -111
q-213 -109 -213 -212q0 -56 88 -56q76 0 143 30q94 41 178 145q81 100 111 204z" />
    <glyph glyph-name="Thorn" unicode="&#xde;" horiz-adv-x="462" 
d="M572 391q0 -58 -58 -108q-48 -41 -111 -61.5t-123 -20.5q-45 0 -93 6q-103 -193 -103 -255q0 -3 1 -8t1 -7q0 -10 -7 -10q-13 0 -13 23q0 68 92 262q-84 15 -84 45q0 17 24 30q20 10 40 10q8 0 8 -4q0 -3 -24.5 -10t-24.5 -20q0 -21 67 -38q40 85 141 271
q-167 0 -326 -57q-5 -2 -8 -2q-5 0 -5 4q0 11 15 23.5t27 16.5q107 35 255 35q26 0 52 -1q25 46 42 76q6 12 21 35q14 19 49 19q10 0 10 -4l-2 -4q-35 -51 -78 -125q92 -9 136 -26q79 -29 79 -95zM536 398q0 58 -70 81q-39 12 -119 16q-76 -132 -154 -276q25 -4 50 -4
q46 0 94 12q72 19 127 58q72 51 72 113z" />
    <glyph glyph-name="germandbls" unicode="&#xdf;" horiz-adv-x="581" 
d="M553 490q0 -81 -53 -134.5t-134 -55.5q60 -10 100 -38q49 -34 49 -88q0 -45 -36 -89q-55 -69 -167 -103q-90 -28 -198 -29h-14q-36 0 -48 6q-6 4 -6 8q-91 -135 -166 -135q-17 0 -21 11q3 8 12 8q91 0 191 190q41 77 117 276q122 319 243 319q61 0 96 -42t35 -104z
M531 485q0 47 -27 80t-74 33q-87 0 -148 -135q-1 -1 -58 -139q-96 -229 -171 -345l9 3q41 -6 63 -6q93 0 175 28q97 33 147 95q33 41 33 80q0 100 -178 100q-34 0 -34 14q0 7 4 16q16 -4 35 -4q149 0 204 102q20 37 20 78z" />
    <glyph glyph-name="agrave" unicode="&#xe0;" horiz-adv-x="288" 
d="M350 112q0 -5 -6 -14q-44 -71 -83 -91q-18 -9 -36 -9q-61 0 -61 86q0 14 2 30q-67 -119 -119 -119q-31 0 -31 34q0 52 50 125.5t97 89.5q17 7 33 7q36 0 52 -25q3 -5 3 -7q0 -1 -7 -3t-10 -7q-24 -39 -24 -117q0 -72 31 -72q22 0 62.5 48.5t43.5 48.5t3 -5zM203 217
q-4 1 -9 1q-40 0 -83 -51q-61 -74 -61 -121q0 -21 14 -21q22 0 57 46q49 62 82 146zM227 301q0 -5 -5 -5q-6 0 -48 25.5t-50.5 32.5t-8.5 17t7 10t52 -34q42 -32 51 -41q2 -2 2 -5z" />
    <glyph glyph-name="aacute" unicode="&#xe1;" horiz-adv-x="288" 
d="M350 112q0 -5 -6 -14q-44 -71 -83 -91q-18 -9 -36 -9q-61 0 -61 86q0 14 2 30q-67 -119 -119 -119q-31 0 -31 34q0 52 50 125.5t97 89.5q17 7 33 7q36 0 52 -25q3 -5 3 -7q0 -1 -7 -3t-10 -7q-24 -39 -24 -117q0 -72 31 -72q22 0 62.5 48.5t43.5 48.5t3 -5zM203 217
q-4 1 -9 1q-40 0 -83 -51q-61 -74 -61 -121q0 -21 14 -21q22 0 57 46q49 62 82 146zM273 366q0 -12 -8 -19q-11 -9 -62.5 -40.5t-57.5 -31.5q-7 0 -7 7q0 3 4 6q36 28 105 82q11 8 17 8q9 0 9 -12z" />
    <glyph glyph-name="acircumflex" unicode="&#xe2;" horiz-adv-x="288" 
d="M350 112q0 -5 -6 -14q-44 -71 -83 -91q-18 -9 -36 -9q-61 0 -61 86q0 14 2 30q-67 -119 -119 -119q-31 0 -31 34q0 52 50 125.5t97 89.5q17 7 33 7q36 0 52 -25q3 -5 3 -7q0 -1 -7 -3t-10 -7q-24 -39 -24 -117q0 -72 31 -72q22 0 62.5 48.5t43.5 48.5t3 -5zM203 217
q-4 1 -9 1q-40 0 -83 -51q-61 -74 -61 -121q0 -21 14 -21q22 0 57 46q49 62 82 146zM273 283l-2 -4q-12 1 -42.5 20t-40.5 30q-58 -48 -65 -48q-4 0 -4 6q0 5 34.5 34t42.5 30l3 -1q23 -25 71 -61z" />
    <glyph glyph-name="atilde" unicode="&#xe3;" horiz-adv-x="288" 
d="M350 112q0 -5 -6 -14q-44 -71 -83 -91q-18 -9 -36 -9q-61 0 -61 86q0 14 2 30q-67 -119 -119 -119q-31 0 -31 34q0 52 50 125.5t97 89.5q17 7 33 7q36 0 52 -25q3 -5 3 -7q0 -1 -7 -3t-10 -7q-24 -39 -24 -117q0 -72 31 -72q22 0 62.5 48.5t43.5 48.5t3 -5zM203 217
q-4 1 -9 1q-40 0 -83 -51q-61 -74 -61 -121q0 -21 14 -21q22 0 57 46q49 62 82 146zM287 317q0 -11 -29 -30q-9 -6 -20 -6q-13 0 -36.5 9t-35.5 9t-24.5 -9t-15.5 -9q-1 1 -1 2q0 11 31 29q13 7 27 7q12 0 34.5 -7.5t34.5 -7.5q18 0 30 15q5 1 5 -2z" />
    <glyph glyph-name="adieresis" unicode="&#xe4;" horiz-adv-x="288" 
d="M350 112q0 -5 -6 -14q-44 -71 -83 -91q-18 -9 -36 -9q-61 0 -61 86q0 14 2 30q-67 -119 -119 -119q-31 0 -31 34q0 52 50 125.5t97 89.5q17 7 33 7q36 0 52 -25q3 -5 3 -7q0 -1 -7 -3t-10 -7q-24 -39 -24 -117q0 -72 31 -72q22 0 62.5 48.5t43.5 48.5t3 -5zM203 217
q-4 1 -9 1q-40 0 -83 -51q-61 -74 -61 -121q0 -21 14 -21q22 0 57 46q49 62 82 146zM274 352q-5 -6 -11 -14l-14 -32q-9 -23 -22 -23q-6 0 -11.5 9t-5.5 15q0 12 24.5 29.5t36.5 17.5q1 0 3 -1v0v-1zM176 352q-5 -6 -12 -14q-7 -16 -13 -32q-10 -23 -22 -23q-6 0 -11.5 9
t-5.5 15q0 12 24 29.5t37 17.5q1 0 3 -1v0v-1z" />
    <glyph glyph-name="aring" unicode="&#xe5;" horiz-adv-x="288" 
d="M292 94q0 -13 -30 -47t-44.5 -41.5t-29.5 -7.5q-52 0 -52 72q0 11 2 25q-55 -99 -99 -99q-26 0 -26 28q0 42 39.5 101t77.5 76q-8 8 -8 21q0 21 19.5 47.5t40.5 26.5q30 0 30 -36q0 -34 -27 -55q24 -10 24 -22q0 -2 -5.5 -3t-8.5 -6q-20 -33 -20 -97q0 -60 26 -60
q18 0 51.5 40t36.5 40t3 -3zM195 258q0 25 -15 25q-14 0 -24.5 -18.5t-10.5 -33.5q0 -21 14 -21q16 0 26 16t10 32zM169 181q-3 1 -8 1q-35 0 -77.5 -53t-42.5 -91q0 -17 13 -17q26 0 67 66q30 48 48 94z" />
    <glyph glyph-name="ae" unicode="&#xe6;" horiz-adv-x="282" 
d="M336 90q0 -2 -1 -5q-20 -32 -62 -60q-45 -29 -81 -29q-24 0 -34 11q-8 15 -17 29q-6 30 -3 59q-55 -99 -99 -99q-26 0 -26 28q0 43 41.5 104t81.5 76q14 5 28 5q28 0 42 -20q26 23 53 23q21 0 21 -24q0 -26 -39 -62q-35 -33 -64 -44q-6 -20 -6 -35q0 -33 30 -33
q58 0 120 71q7 8 12 8q3 0 3 -3zM255 179q0 9 -10 9q-13 0 -37 -38q-20 -32 -26 -51q23 10 46 33q27 26 27 47zM169 181q-3 1 -8 1q-35 0 -77.5 -53.5t-42.5 -90.5q0 -17 13 -17q26 0 67 67q30 48 48 93z" />
    <glyph glyph-name="ccedilla" unicode="&#xe7;" horiz-adv-x="184" 
d="M241 98q0 -12 -38 -46q-30 -28 -48 -40q-33 -22 -69 -20q-15 -11 -15 -33q0 -8 19 -32t19 -43q0 -31 -35 -50q-29 -15 -63 -15q-6 0 -6 7q0 4 6 6q24 3 47.5 8t23.5 37q0 10 -17.5 34t-17.5 37q0 32 22 48q-39 12 -39 63q0 40 45.5 89.5t85.5 49.5q26 0 26 -21
q0 -9 -12 -29t-19 -20q-3 0 -3 4q0 3 2.5 10.5t2.5 11.5q0 18 -21 18q-30 0 -55 -40q-22 -35 -22 -67q0 -52 45 -52q57 0 119 78q8 10 14 10q3 0 3 -3z" />
    <glyph glyph-name="egrave" unicode="&#xe8;" horiz-adv-x="203" 
d="M263 108q0 -2 -2 -6q-25 -39 -75 -72q-53 -35 -97 -35q-63 0 -63 79q0 52 45 114q48 66 99 66q10 0 17.5 -9t7.5 -19q0 -31 -47 -75q-42 -39 -77 -52q-7 -25 -7 -42q0 -41 37 -41q35 0 79 29q38 25 65 57q7 10 14 10q4 0 4 -4zM165 214q0 12 -12 12q-15 0 -44 -46
q-25 -39 -31 -61q26 11 54 39q33 32 33 56zM187 298q0 -5 -5 -5q-4 0 -48.5 26.5t-51.5 32t-7 16.5q0 10 7 10q6 0 15 -7q30 -21 87 -68q3 -3 3 -5z" />
    <glyph glyph-name="eacute" unicode="&#xe9;" horiz-adv-x="203" 
d="M271 371q0 -12 -8 -19q-11 -9 -62.5 -40t-57.5 -31q-7 0 -7 6q0 3 3 6q37 28 106 82q11 8 17 8q9 0 9 -12zM263 108q0 -2 -2 -6q-25 -39 -75 -72q-53 -35 -97 -35q-63 0 -63 79q0 52 45 114q48 66 99 66q10 0 17.5 -9t7.5 -19q0 -31 -47 -75q-42 -39 -77 -52
q-7 -25 -7 -42q0 -41 37 -41q35 0 79 29q38 25 65 57q7 10 14 10q4 0 4 -4zM165 214q0 12 -12 12q-15 0 -44 -46q-25 -39 -31 -61q26 11 54 39q33 32 33 56z" />
    <glyph glyph-name="ecircumflex" unicode="&#xea;" horiz-adv-x="203" 
d="M263 108q0 -2 -2 -6q-25 -39 -75 -72q-53 -35 -97 -35q-63 0 -63 79q0 52 45 114q48 66 99 66q10 0 17.5 -9t7.5 -19q0 -31 -47 -75q-42 -39 -77 -52q-7 -25 -7 -42q0 -41 37 -41q35 0 79 29q38 25 65 57q7 10 14 10q4 0 4 -4zM165 214q0 12 -12 12q-15 0 -44 -46
q-25 -39 -31 -61q26 11 54 39q33 32 33 56zM236 280l-3 -4q-11 0 -41.5 19.5t-40.5 30.5q-58 -48 -65 -48q-5 0 -5 6q0 5 35 34t43 30l3 -1q22 -25 71 -61z" />
    <glyph glyph-name="edieresis" unicode="&#xeb;" horiz-adv-x="203" 
d="M263 108q0 -2 -2 -6q-25 -39 -75 -72q-53 -35 -97 -35q-63 0 -63 79q0 52 45 114q48 66 99 66q10 0 17.5 -9t7.5 -19q0 -31 -47 -75q-42 -39 -77 -52q-7 -25 -7 -42q0 -41 37 -41q35 0 79 29q38 25 65 57q7 10 14 10q4 0 4 -4zM165 214q0 12 -12 12q-15 0 -44 -46
q-25 -39 -31 -61q26 11 54 39q33 32 33 56zM274 352q-5 -6 -11 -14l-14 -32q-9 -23 -22 -23q-6 0 -11.5 9t-5.5 15q0 12 24.5 29.5t36.5 17.5q1 0 3 -1v0v-1zM176 352q-5 -6 -12 -14q-7 -16 -13 -32q-10 -23 -22 -23q-6 0 -11.5 9t-5.5 15q0 12 24 29.5t37 17.5q1 0 3 -1v0
v-1z" />
    <glyph glyph-name="igrave" unicode="&#xec;" horiz-adv-x="179" 
d="M202 96q0 -6 -5 -13q-77 -101 -129 -101q-46 0 -46 49q0 24 21 79q23 59 38 59q21 0 21 -21q0 1 -22.5 -43t-22.5 -74t21 -30q34 0 79 50.5t41 50.5q4 0 4 -6zM138 243q0 -5 -5 -5q-6 0 -48.5 25.5t-52.5 33.5q-6 5 -6 16q0 10 7 10t51 -34q41 -31 52 -41q2 -3 2 -5z" />
    <glyph glyph-name="iacute" unicode="&#xed;" horiz-adv-x="179" 
d="M202 96q0 -6 -5 -13q-77 -101 -129 -101q-46 0 -46 49q0 24 21 79q23 59 38 59q21 0 21 -21q0 1 -22.5 -43t-22.5 -74t21 -30q34 0 79 50.5t41 50.5q4 0 4 -6zM234 312q0 -12 -8 -18q-12 -10 -62 -40q-53 -31 -58 -31q-7 0 -7 5q0 3 3 6q37 28 106 83q10 8 17 8
q9 0 9 -13z" />
    <glyph glyph-name="icircumflex" unicode="&#xee;" horiz-adv-x="179" 
d="M202 96q0 -6 -5 -13q-77 -101 -129 -101q-46 0 -46 49q0 24 21 79q23 59 38 59q21 0 21 -21q0 1 -22.5 -43t-22.5 -74t21 -30q34 0 79 50.5t41 50.5q4 0 4 -6zM202 234l-3 -5q-11 1 -42 20.5t-41 29.5q-58 -47 -65 -47q-4 0 -4 5q0 6 34.5 35t42.5 30l4 -2q22 -24 71 -61
z" />
    <glyph glyph-name="idieresis" unicode="&#xef;" horiz-adv-x="179" 
d="M202 96q0 -6 -5 -13q-77 -101 -129 -101q-46 0 -46 49q0 24 21 79q23 59 38 59q21 0 21 -21q0 1 -22.5 -43t-22.5 -74t21 -30q34 0 79 50.5t41 50.5q4 0 4 -6zM215 309q-5 -6 -12 -14q-7 -16 -14 -33q-9 -22 -21 -22q-6 0 -11.5 9t-5.5 15q0 12 24 29.5t37 17.5q1 0 3 -1
v0v-1zM117 309q-5 -6 -12 -14q-7 -16 -14 -33q-9 -22 -22 -22q-5 0 -11 9t-6 15q0 12 24.5 29.5t37.5 17.5q1 0 2 -1v0q1 0 1 -1z" />
    <glyph glyph-name="eth" unicode="&#xf0;" horiz-adv-x="191" 
d="M218 290q0 -4 -4 -6q-13 -4 -38 -16v-14q0 -40 -11 -89q-14 -57 -39 -107q-37 -72 -77 -72q-30 0 -30 33q0 19 11 48t30 60q27 43 46 43q12 0 18 -8q1 -9 1 -8q0 -3 -9 -3q-18 0 -43 -56q-23 -52 -23 -73q0 -16 12 -16q22 0 46 48q18 35 26 68q15 62 15 122v9
q-54 -33 -57 -33q-5 0 -5 7q0 10 6 15q15 11 55 30q-6 81 -39 81q-18 0 -18 8q0 13 31 13q43 0 53 -91q32 13 37 13q6 0 6 -6z" />
    <glyph glyph-name="ntilde" unicode="&#xf1;" horiz-adv-x="278" 
d="M343 119q0 -7 -6 -17q-68 -113 -141 -113q-57 0 -57 72q0 64 29 113q-70 -63 -143 -174q-6 -9 -9 -9q-9 0 -9 18q0 5 2 8q21 51 44 145q3 16 10 47q3 7 14 14t20 7q7 0 7 -6q0 -10 -47 -152q12 16 75 85q21 24 62 68q8 7 16 7q23 0 23 -23q0 -5 -4 -12q-56 -92 -56 -146
q0 -38 36 -38q28 0 60 29q21 18 47 54q21 29 24 29t3 -6zM263 305q0 -11 -29 -30q-9 -6 -20 -6q-13 0 -36.5 9.5t-35.5 9.5t-24.5 -9.5t-15.5 -9.5q-1 1 -1 2q0 12 31 29q13 7 27 7q12 0 34.5 -7.5t34.5 -7.5q18 0 30 15q5 1 5 -2z" />
    <glyph glyph-name="ograve" unicode="&#xf2;" horiz-adv-x="229" 
d="M291 108q0 -2 -2 -4q-14 -24 -42.5 -41t-55.5 -17q-20 0 -37 10q-46 -73 -95 -73q-35 0 -35 41q0 57 50 134q-2 11 -2 22q0 36 24 70t59 34q23 0 37 -27q11 -23 11 -48q0 -54 -42 -137q15 -9 34 -9q33 0 62 26t27 26q7 0 7 -7zM173 184q0 22 -7 45q-10 32 -26 32
q-23 0 -36 -28q-10 -22 -9 -48q16 19 32 19q15 0 22 -10v-5q1 -3 1 -5q0 -3 -10 -3q-18 0 -38 -38q13 -38 46 -62q25 63 25 103zM140 67q-33 22 -50 51q-30 -63 -30 -91q0 -20 15 -20q14 0 37 24q20 19 28 36zM190 325q0 -5 -6 -5q-5 0 -48 26t-52 34q-7 5 -7 15q0 11 9 11
q6 0 49 -33t52 -42q3 -3 3 -6z" />
    <glyph glyph-name="oacute" unicode="&#xf3;" horiz-adv-x="229" 
d="M291 108q0 -2 -2 -4q-14 -24 -42.5 -41t-55.5 -17q-20 0 -37 10q-46 -73 -95 -73q-35 0 -35 41q0 57 50 134q-2 11 -2 22q0 36 24 70t59 34q23 0 37 -27q11 -23 11 -48q0 -54 -42 -137q15 -9 34 -9q33 0 62 26t27 26q7 0 7 -7zM173 184q0 22 -7 45q-10 32 -26 32
q-23 0 -36 -28q-10 -22 -9 -48q16 19 32 19q15 0 22 -10v-5q1 -3 1 -5q0 -3 -10 -3q-18 0 -38 -38q13 -38 46 -62q25 63 25 103zM140 67q-33 22 -50 51q-30 -63 -30 -91q0 -20 15 -20q14 0 37 24q20 19 28 36zM287 397q0 -12 -8 -19q-11 -9 -63 -40.5t-57 -31.5q-7 0 -7 7
q0 3 3 6q37 28 106 82q10 8 16 8q10 0 10 -12z" />
    <glyph glyph-name="ocircumflex" unicode="&#xf4;" horiz-adv-x="229" 
d="M291 108q0 -2 -2 -4q-14 -24 -42.5 -41t-55.5 -17q-20 0 -37 10q-46 -73 -95 -73q-35 0 -35 41q0 57 50 134q-2 11 -2 22q0 36 24 70t59 34q23 0 37 -27q11 -23 11 -48q0 -54 -42 -137q15 -9 34 -9q33 0 62 26t27 26q7 0 7 -7zM173 184q0 22 -7 45q-10 32 -26 32
q-23 0 -36 -28q-10 -22 -9 -48q16 19 32 19q15 0 22 -10v-5q1 -3 1 -5q0 -3 -10 -3q-18 0 -38 -38q13 -38 46 -62q25 63 25 103zM140 67q-33 22 -50 51q-30 -63 -30 -91q0 -20 15 -20q14 0 37 24q20 19 28 36zM246 302l-2 -4q-12 1 -42.5 20t-40.5 30q-58 -48 -65 -48
q-4 0 -4 6t34.5 34.5t42.5 29.5l3 -1q22 -25 71 -61z" />
    <glyph glyph-name="otilde" unicode="&#xf5;" horiz-adv-x="229" 
d="M291 108q0 -2 -2 -4q-14 -24 -42.5 -41t-55.5 -17q-20 0 -37 10q-46 -73 -95 -73q-35 0 -35 41q0 57 50 134q-2 11 -2 22q0 36 24 70t59 34q23 0 37 -27q11 -23 11 -48q0 -54 -42 -137q15 -9 34 -9q33 0 62 26t27 26q7 0 7 -7zM173 184q0 22 -7 45q-10 32 -26 32
q-23 0 -36 -28q-10 -22 -9 -48q16 19 32 19q15 0 22 -10v-5q1 -3 1 -5q0 -3 -10 -3q-18 0 -38 -38q13 -38 46 -62q25 63 25 103zM140 67q-33 22 -50 51q-30 -63 -30 -91q0 -20 15 -20q14 0 37 24q20 19 28 36zM266 352q0 -11 -29 -30q-9 -6 -20 -6q-13 0 -36.5 9.5
t-35.5 9.5t-24.5 -9.5t-15.5 -9.5q-1 1 -1 2q0 12 31 29q13 7 27 7q12 0 34.5 -7.5t34.5 -7.5q18 0 30 15q5 1 5 -2z" />
    <glyph glyph-name="odieresis" unicode="&#xf6;" horiz-adv-x="229" 
d="M291 108q0 -2 -2 -4q-14 -24 -42.5 -41t-55.5 -17q-20 0 -37 10q-46 -73 -95 -73q-35 0 -35 41q0 57 50 134q-2 11 -2 22q0 36 24 70t59 34q23 0 37 -27q11 -23 11 -48q0 -54 -42 -137q15 -9 34 -9q33 0 62 26t27 26q7 0 7 -7zM173 184q0 22 -7 45q-10 32 -26 32
q-23 0 -36 -28q-10 -22 -9 -48q16 19 32 19q15 0 22 -10v-5q1 -3 1 -5q0 -3 -10 -3q-18 0 -38 -38q13 -38 46 -62q25 63 25 103zM140 67q-33 22 -50 51q-30 -63 -30 -91q0 -20 15 -20q14 0 37 24q20 19 28 36zM268 371q-5 -6 -12 -14q-7 -16 -13 -32q-10 -22 -22 -22
q-6 0 -11.5 8.5t-5.5 14.5q0 12 24 29.5t37 17.5q1 0 3 -1v1v-2zM170 371q-5 -6 -12 -14l-14 -32q-9 -22 -21 -22q-6 0 -12 8.5t-6 14.5q0 12 24.5 29.5t37.5 17.5q1 0 2 -1v1q1 -1 1 -2z" />
    <glyph glyph-name="divide" unicode="&#xf7;" horiz-adv-x="228" 
d="M150 192q0 -24 -25 -24t-25 24t25 24t25 -24zM218 121q0 -7 -26 -8l-54 -3q-30 -4 -94 -9h-5q-20 -1 -20 7q0 14 35 25q16 6 45 6q35 0 93 -8q26 -4 26 -10zM142 53q0 -24 -25 -24q-26 0 -26 24t26 24q25 0 25 -24z" />
    <glyph glyph-name="oslash" unicode="&#xf8;" horiz-adv-x="191" 
d="M246 243q0 2 -77 -79q-2 -39 -35 -104q13 -8 28 -8q27 0 52 21.5t23 21.5q5 0 5 -5l-1 -4q-8 -17 -34.5 -32.5t-47.5 -15.5q-17 0 -31 9q-38 -61 -79 -61q-11 0 -18 5q-8 -18 -25 -55q-2 -3 -5 -3q-5 0 -5 4q0 12 28 62q-4 8 -4 21q0 47 42 112q-2 9 -2 18q0 30 20 58.5
t49 28.5q30 0 39 -47q54 60 66 60t12 -7zM144 162q-5 55 -28 55q-19 0 -29 -23q-8 -18 -8 -40q14 17 29 17q13 0 13 -7q0 -3 -8 -6q-15 -6 -29 -32q3 -9 10 -26q24 32 50 62zM143 136q-22 -24 -42 -47q10 -12 23 -22q16 42 19 69zM83 86q-4 8 -12 23q-24 -29 -23 -71
q10 15 35 48zM117 56q-15 9 -26 21q-24 -30 -41 -56q0 -15 12 -15t30 18t25 32z" />
    <glyph glyph-name="ugrave" unicode="&#xf9;" horiz-adv-x="291" 
d="M359 119q0 -7 -6 -17q-28 -46 -65 -80q-48 -44 -90 -44q-56 0 -56 70q0 16 15 63q-35 -51 -45 -63q-33 -39 -59 -39q-33 0 -33 56q0 32 21 77q23 52 50 52q15 0 15 -8q0 -1 -25.5 -45.5t-25.5 -68.5q0 -32 19 -32q32 0 115 146q7 14 21 39q7 8 15 8q9 0 16.5 -7.5
t7.5 -17.5q0 1 -35.5 -67t-35.5 -105q0 -35 33 -35q28 0 64 32q24 21 54 60q25 32 27 32q3 0 3 -6zM199 281q0 -5 -5 -5q-4 0 -47.5 26t-53.5 34q-6 5 -6 15q0 11 8 11q5 0 14 -7q32 -22 88 -68q2 -3 2 -6z" />
    <glyph glyph-name="uacute" unicode="&#xfa;" horiz-adv-x="291" 
d="M359 119q0 -7 -6 -17q-28 -46 -65 -80q-48 -44 -90 -44q-56 0 -56 70q0 16 15 63q-35 -51 -45 -63q-33 -39 -59 -39q-33 0 -33 56q0 32 21 77q23 52 50 52q15 0 15 -8q0 -1 -25.5 -45.5t-25.5 -68.5q0 -32 19 -32q32 0 115 146q7 14 21 39q7 8 15 8q9 0 16.5 -7.5
t7.5 -17.5q0 1 -35.5 -67t-35.5 -105q0 -35 33 -35q28 0 64 32q24 21 54 60q25 32 27 32q3 0 3 -6zM272 325q0 -12 -9.5 -20t-61.5 -39t-58 -31t-6 6q0 3 3 6q37 28 105 82q11 9 17 9q10 0 10 -13z" />
    <glyph glyph-name="ucircumflex" unicode="&#xfb;" horiz-adv-x="291" 
d="M359 119q0 -7 -6 -17q-28 -46 -65 -80q-48 -44 -90 -44q-56 0 -56 70q0 16 15 63q-35 -51 -45 -63q-33 -39 -59 -39q-33 0 -33 56q0 32 21 77q23 52 50 52q15 0 15 -8q0 -1 -25.5 -45.5t-25.5 -68.5q0 -32 19 -32q32 0 115 146q7 14 21 39q7 8 15 8q9 0 16.5 -7.5
t7.5 -17.5q0 1 -35.5 -67t-35.5 -105q0 -35 33 -35q28 0 64 32q24 21 54 60q25 32 27 32q3 0 3 -6zM279 271l-3 -4q-11 0 -41.5 19.5t-41.5 30.5q-57 -48 -65 -48q-4 0 -4 6q0 5 35 34t42 30l4 -1q22 -25 71 -62z" />
    <glyph glyph-name="udieresis" unicode="&#xfc;" horiz-adv-x="291" 
d="M359 119q0 -7 -6 -17q-28 -46 -65 -80q-48 -44 -90 -44q-56 0 -56 70q0 16 15 63q-35 -51 -45 -63q-33 -39 -59 -39q-33 0 -33 56q0 32 21 77q23 52 50 52q15 0 15 -8q0 -1 -25.5 -45.5t-25.5 -68.5q0 -32 19 -32q32 0 115 146q7 14 21 39q7 8 15 8q9 0 16.5 -7.5
t7.5 -17.5q0 1 -35.5 -67t-35.5 -105q0 -35 33 -35q28 0 64 32q24 21 54 60q25 32 27 32q3 0 3 -6zM283 343q-5 -6 -12 -14q-6 -16 -13 -33q-10 -22 -22 -22q-6 0 -11.5 9t-5.5 15q0 12 24 29.5t37 17.5q1 0 3 -1v0v-1zM185 343q-5 -6 -12 -14q-7 -16 -13 -33
q-10 -22 -22 -22q-6 0 -11.5 9t-5.5 15q0 12 24 29.5t37 17.5q1 0 3 -1v0v-1z" />
    <glyph glyph-name="yacute" unicode="&#xfd;" horiz-adv-x="228" 
d="M236 317q0 -12 -8 -19q-11 -9 -62.5 -40t-57.5 -31q-7 0 -7 6q0 3 3 6q37 28 106 82q11 8 17 8q9 0 9 -12zM220 -19q0 -5 -3 -5q1 0 -8.5 4t-22.5 4h-16q-32 -125 -80 -195q-89 -132 -192 -132q-40 0 -67 23.5t-27 63.5q0 88 127 170q107 69 208 85q12 52 27 153
q-28 -67 -80 -122q-22 -23 -41 -23q-27 0 -27 47q0 27 17 65q20 43 42 43q13 0 13 -7q0 -1 -21.5 -38t-21.5 -57q0 -27 16 -27q25 0 112 168q2 12 21 12q15 0 15 -7q0 -10 -11 -70q-13 -71 -27 -136h3q44 1 44 -19zM138 -16q-55 -9 -130.5 -47t-116.5 -77q-63 -60 -63 -119
q0 -33 20.5 -52.5t53.5 -19.5q96 0 172 131q44 75 64 184z" />
    <glyph glyph-name="thorn" unicode="&#xfe;" horiz-adv-x="272" 
d="M326 99q0 -6 -4 -14q-22 -36 -72 -72q-54 -39 -90 -39h-22.5h-21.5q-5 0 -25 6q-26 -66 -71 -140q-61 -102 -101 -102q-21 0 -21 31q0 41 75 152q54 74 108 147q0 6 9 69q8 49 22 149q8 60 8 80q0 5 -3 8t-3 5q0 6 27 6q16 0 16 -29q0 -48 -27 -185q-7 -26 -14 -71
q24 43 53 78q43 53 72 53q26 0 26 -38q0 -49 -34.5 -114t-75.5 -91q36 0 78 31q30 20 62 55l27 30q2 0 2 -5zM231 175q0 26 -14 26q-30 0 -69 -74q-28 -54 -43 -103q8 -12 30 -32q36 16 67 80q29 59 29 103zM73 23q-1 1 -2 1l-69 -96q-17 -25 -44 -76q-30 -59 -30 -77
q0 -7 5 -7q36 0 100 119q17 33 37 110q-2 3 -2 8q0 10 5 18z" />
    <glyph glyph-name="ydieresis" unicode="&#xff;" horiz-adv-x="228" 
d="M252 360q0 4 -15 -17l-16 -40q-12 -27 -27 -27q-7 0 -14 10.5t-7 18.5q0 15 29.5 36t45.5 21q2 0 4 -1v1v-2zM131 360q0 4 -15 -17l-16 -40q-12 -27 -27 -27q-7 0 -14 10.5t-7 18.5q0 15 29.5 36t45.5 21q2 0 4 -1v1v-2zM220 -19q0 -5 -3 -5q1 0 -8.5 4t-22.5 4h-16
q-32 -125 -80 -195q-89 -132 -192 -132q-40 0 -67 23.5t-27 63.5q0 88 127 170q107 69 208 85q12 52 27 153q-28 -67 -80 -122q-22 -23 -41 -23q-27 0 -27 47q0 27 17 65q20 43 42 43q13 0 13 -7q0 -1 -21.5 -38t-21.5 -57q0 -27 16 -27q25 0 112 168q2 12 21 12q15 0 15 -7
q0 -10 -11 -70q-13 -71 -27 -136h3q44 1 44 -19zM138 -16q-55 -9 -130.5 -47t-116.5 -77q-63 -60 -63 -119q0 -33 20.5 -52.5t53.5 -19.5q96 0 172 131q44 75 64 184z" />
    <glyph glyph-name="dotlessi" unicode="&#x131;" horiz-adv-x="149" 
d="M202 96q0 -6 -5 -13q-77 -101 -129 -101q-46 0 -46 49q0 24 21 79q23 59 38 59q21 0 21 -21q0 1 -22.5 -43t-22.5 -74t21 -30q34 0 79 50.5t41 50.5q4 0 4 -6z" />
    <glyph glyph-name="Lslash" unicode="&#x141;" horiz-adv-x="673" 
d="M660 29q0 -47 -57 -70q-41 -17 -97 -17q-100 0 -231 68q-59 -37 -110 -37q-59 0 -105.5 40t-46.5 99q0 29 12 51q15 26 42 26q29 0 159 -120q16 -16 49 -40q41 52 75 135q-54 -28 -110 -56q-8 0 -8 17q0 8 2 9.5t30 14.5q55 26 97 43l20 55q-49 -17 -92 -17t-72 13
q-41 17 -41 54q0 41 74 80q65 36 109 36q8 0 8 -5q0 -3 -7 -5q-161 -45 -161 -104q0 -51 92 -51q46 0 96 17q28 79 44 116q29 64 64 105q54 62 98 62q60 0 60 -50q0 -56 -65 -124q-51 -54 -114 -90q-21 -10 -63 -32l-17 -48q104 38 136 38q7 0 7 -6q0 -5 -5 -6
q-13 -3 -38 -9q-51 -14 -109 -41q-48 -119 -92 -158q36 -23 103 -40q63 -16 109 -16q49 0 86 13q52 18 52 56q0 17 -14 30.5t-14 16.5q0 5 4 5q3 0 6 -3q35 -25 35 -55zM632 506q0 22 -20 22q-7 0 -17 -4q-91 -29 -170 -241q46 13 125 94q82 85 82 129zM250 16
q-51 41 -101 81q-82 65 -93 65q-25 0 -25 -44q0 -49 41 -88.5t90 -39.5q50 0 88 26z" />
    <glyph glyph-name="lslash" unicode="&#x142;" horiz-adv-x="204" 
d="M371 359q0 -5 -5 -6q-10 -2 -29 -6q-29 -8 -60 -19q-94 -137 -208 -242q0 -90 46 -90q34 0 86.5 49t50.5 49q4 0 4 -5q0 -4 -3 -7q-28 -38 -66 -67q-48 -37 -85 -37q-62 0 -62 103q0 60 53 159q-9 -4 -19 -9q-8 0 -8 17q0 8 3 10.5t47 22.5q40 66 84 121q69 85 107 85
q10 0 19 -11.5t9 -21.5q0 -37 -45 -107q62 18 74 18q7 0 7 -6zM299 450q0 16 -11 16q-40 0 -133 -167q51 22 96 36q48 78 48 115zM235 311q-34 -15 -99 -49q-54 -103 -64 -156q65 57 163 205z" />
    <glyph glyph-name="OE" unicode="&#x152;" horiz-adv-x="954" 
d="M1098 489q0 -12 -23 -12q-18 9 -68 9q-129 0 -168 -24q-23 -14 -155 -161q3 -4 9 -4q27 0 81 4t82 4q67 0 67 -7q0 -6 -29 -12q-20 -4 -127 -11q-79 -5 -124 -26q-19 -8 -61.5 -85.5t-42.5 -100.5q0 -57 89 -57t233 63q39 19 84 39q0 -1 -4 -8q-32 -44 -154 -89
q-113 -40 -178 -40q-100 0 -100 80q0 16 3 32q-71 -48 -158 -78q-92 -32 -172 -32q-127 0 -127 101q0 33 16 72q-67 30 -67 95q0 84 83 157q66 56 161 91q103 38 208 38q90 0 153 -32q80 -40 87 -121q85 96 112 112q45 27 177 27q74 0 102 -11q11 -5 11 -13zM672 374
q0 72 -66 108q-52 29 -130 29q-100 0 -215 -46q-87 -34 -152 -84q-90 -69 -90 -139q0 -63 58 -81q44 80 137 166t175 120q43 18 72 19h2q8 1 8 -5q0 -7 -10 -9q-37 -6 -71 -24q-39 -21 -85 -58q-55 -42 -111 -100q-74 -77 -83 -118q21 -4 41 -4q87 0 175 79q11 10 21 21
q17 17 19 17q2 -1 3 -4q-39 -55 -98 -90q-63 -37 -127 -37q-22 0 -39 6q-19 -35 -19 -66q0 -42 32 -66q28 -22 72 -22q84 0 179 42q88 38 155 99q36 87 143 214q4 17 4 33z" />
    <glyph glyph-name="oe" unicode="&#x153;" horiz-adv-x="270" 
d="M325 90q0 -2 -2 -5q-19 -32 -63 -60.5t-80 -28.5q-47 0 -52 53q-41 -63 -79 -63q-29 0 -29 34q0 47 42 112q-2 9 -2 18q0 30 20 58.5t49 28.5q22 0 33 -28q8 -22 7 -47q38 50 78 50q8 0 14.5 -8t6.5 -16q0 -26 -39 -62q-35 -33 -64 -44q-6 -20 -6 -35q0 -33 31 -33
q60 0 120 71q6 8 12 8q3 0 3 -3zM243 179q0 9 -10 9q-13 0 -36 -38q-21 -33 -26 -51q22 10 45 33q27 26 27 47zM144 154q0 18 -6 37q-8 26 -22 26q-19 0 -29 -23q-8 -18 -8 -40q14 16 27 16q12 0 18 -8v-4q1 -2 1 -3q0 -4 -9 -4q-14 0 -31 -32q10 -28 34 -28q6 0 14 2
q11 34 11 61zM128 75h-3q-36 -1 -50 23q-25 -52 -25 -76q0 -16 12 -16q15 0 39 28q20 23 27 41z" />
    <glyph glyph-name="Scaron" unicode="&#x160;" horiz-adv-x="570" 
d="M616 666l-4 -8q-74 -56 -108 -93l-5 -2q-12 2 -64 45.5t-52 51.5q0 9 6 9q11 0 98 -72q15 16 61.5 45t63.5 30zM600 490q0 -23 -17 -52q-19 -32 -41 -32q-5 0 -5 4q0 -2 17.5 20t17.5 40q0 42 -73 42q-37 0 -86 -10q-60 -13 -114 -38q-80 -36 -80 -73q0 -35 92 -62
q86 -25 172 -51q92 -37 92 -95q0 -63 -101 -124q-72 -43 -156 -68q-88 -25 -167 -25q-141 0 -141 78q0 71 88 135q83 61 157 61q29 0 29 -18q0 -29 -37 -65q-27 -27 -62 -47q-27 -15 -36 -15q-3 0 -3 2q0 3 19 15q60 35 82 78q5 10 5 14q0 9 -14 9q-15 0 -44 -8
q-58 -16 -107 -53q-60 -47 -60 -98q0 -58 126 -58q64 0 140 16q82 17 151 48q105 48 105 103q0 42 -64 75q-41 22 -132.5 49.5t-111.5 38.5q-41 23 -41 57q0 67 121 116q99 39 178 39q101 0 101 -48z" />
    <glyph glyph-name="scaron" unicode="&#x161;" horiz-adv-x="217" 
d="M265 361l-3 -6q-57 -43 -83 -71l-4 -2q-9 1 -49.5 34.5t-40.5 40.5t5 7q9 0 76 -56q12 13 47.5 35.5t48.5 22.5zM272 94q0 -3 -2 -6q-28 -44 -92 -56q-6 -25 -26 -40.5t-46 -15.5q-38 0 -71 29t-33 67q0 24 14 24q8 0 18 -12q12 14 40.5 62.5t46.5 69.5q29 33 59 33
q12 0 24 -7.5t12 -18.5q0 -7 -19 -7t-35 -11.5t-16 -30.5q0 -9 17 -53t17 -72q50 8 83 49q2 3 4 3q5 0 5 -7zM144 55q0 18 -15 68q-14 47 -11 61q-44 -71 -77 -110q51 -25 102 -27q1 4 1 8zM139 28q-69 0 -113 29l-2 -2q22 -55 71 -55q33 0 44 28z" />
    <glyph glyph-name="Ydieresis" unicode="&#x178;" horiz-adv-x="751" 
d="M699 613q0 4 -15 -17l-16 -40q-12 -27 -27 -27q-7 0 -14 11t-7 18q0 15 29.5 36.5t45.5 21.5q2 0 3 -1v0q1 0 1 -2zM578 613q0 4 -15 -17l-16 -40q-12 -27 -27 -27q-7 0 -14 11t-7 18q0 15 29.5 36.5t45.5 21.5q2 0 3 -1v0q1 0 1 -2zM752 48q0 -7 -8 -7q-4 0 -7 1
q-28 12 -52 12q-16 0 -37 -4q-47 -161 -166 -276q-132 -127 -290 -127q-43 0 -75 19q-38 23 -38 63q0 118 223 227q158 78 327 114q12 46 18 132l10 136q-9 -16 -77 -110q-63 -88 -90 -120q-71 -81 -115 -81q-66 0 -66 61q0 58 64 183.5t64 162.5q0 63 -78 63
q-83 0 -184.5 -60.5t-135.5 -134.5q-18 -39 -18 -64q0 -35 38 -35q9 0 24.5 3.5t22.5 3.5q3 0 3 -2q0 -10 -27 -17q-21 -5 -36 -5q-58 0 -58 50q0 21 12 49q41 87 158 157.5t215 70.5q94 0 94 -76q0 -38 -28 -96l-62 -128q-39 -88 -39 -131q0 -33 26 -33q56 0 149 115
q68 84 146 206q1 11 4 33q3 14 23.5 34t34.5 20q8 0 8 -9v-4q-26 -63 -42 -184q-19 -136 -34 -186q7 1 15 1q84 0 84 -27zM621 47q-137 -25 -307 -111q-213 -109 -213 -212q0 -56 88 -56q76 0 143 30q94 41 178 145q81 100 111 204z" />
    <glyph glyph-name="Zcaron" unicode="&#x17d;" horiz-adv-x="464" 
d="M530 626l-4 -8q-74 -56 -108 -93l-5 -2q-12 2 -64 45.5t-52 51.5q0 9 6 9q11 0 98 -72q15 16 61.5 45t63.5 30zM536 401q0 -65 -88 -150q-43 -41 -144 -115q12 1 22 1q86 0 86 -64q0 -17 -6 -37h12q81 0 86 -17q0 -5 -6 -5t-17.5 4t-16.5 5h-23t-40 -1q-8 -20 -21 -42
q-115 -199 -273 -299q-80 -51 -131 -51q-60 0 -60 63q0 50 40 114q66 102 184 163q110 57 238 65q11 25 11 43q0 42 -58 42q-46 0 -101 -23q-58 -24 -59 -24q-7 0 -7 9q0 7 12 19q7 6 39.5 16t42.5 16q82 51 154 120q98 94 98 156q0 64 -93 64q-92 0 -212 -54
q-114 -51 -183 -119q-10 2 -10 12q0 43 99 95q69 35 141 56q84 25 157 25q127 0 127 -87zM372 20q-119 -11 -220 -62q-111 -57 -170 -149q-36 -56 -36 -100q0 -54 50 -54q39 0 101 38q72 45 156 147q78 95 119 180z" />
    <glyph glyph-name="zcaron" unicode="&#x17e;" horiz-adv-x="280" 
d="M311 360l-5 -8q-73 -55 -107 -92l-5 -3q-12 2 -64 45.5t-52 52.5q0 8 6 8q11 0 98 -72q15 16 61.5 45.5t63.5 30.5zM271 -19q0 -5 -3 -5q1 0 -8.5 4t-22.5 4h-16q-2 -82 -79 -195q-91 -132 -193 -132q-40 0 -66.5 23.5t-26.5 63.5q0 88 127 170q107 69 207 85
q-1 53 -41 53q-8 0 -25 -8t-23 -8q-11 0 -11 10q0 4 48.5 51.5t48.5 71.5q0 18 -20 18q-51 0 -107 -89q-5 -8 -9 -8q-2 0 -2 4t3 10q18 38 48 65q35 31 72 31q45 0 45 -37q0 -41 -67 -95q29 1 49 -19t22 -49h4q46 1 46 -19zM190 -16q-56 -9 -131.5 -47t-116.5 -77
q-62 -60 -62 -119q0 -33 20 -52.5t53 -19.5q87 0 164 117q71 106 73 198z" />
    <glyph glyph-name="florin" unicode="&#x192;" horiz-adv-x="222" 
d="M423 483q0 -11 -4 -27q-5 -21 -13 -21q-5 0 -5 31q0 87 -52 87q-26 0 -53 -25q-58 -54 -103 -151q-22 -49 -65 -173q17 1 51 5t51 4q29 0 27 -9l-6 -4q-109 -13 -132 -27q-9 -24 -42 -127q-41 -133 -65 -199q-18 -51 -27 -74q-16 -42 -33 -72q-50 -86 -127 -86
q-34 0 -56.5 23t-22.5 57q0 41 14 41q4 0 7 -25q2 -16 4 -33q12 -47 44 -47q35 0 74 43q50 53 121 236q60 155 86 261q-50 -12 -67 -12q-8 0 -8 3q0 14 85 38q24 69 47 137q36 100 74 154q51 73 110 73q36 0 61 -22.5t25 -58.5z" />
    <glyph glyph-name="circumflex" unicode="&#x2c6;" horiz-adv-x="370" 
d="M336 331l-4 -7q-21 1 -74.5 35t-71.5 53q-101 -84 -114 -84q-8 0 -8 10t61 60.5t75 52.5l6 -2q39 -44 125 -108z" />
    <glyph glyph-name="caron" unicode="&#x2c7;" horiz-adv-x="370" 
d="M323 470l-5 -10q-86 -64 -125 -107l-6 -3q-14 2 -74.5 52.5t-60.5 60.5t7 10q13 0 114 -84q18 19 70 52q56 35 76 36z" />
    <glyph glyph-name="breve" unicode="&#x2d8;" horiz-adv-x="184" 
d="M232 457q0 -2 -2 -6q-41 -85 -107 -85q-56 0 -74 52q-3 10 -3 17q0 10 5 10t13 -15q11 -18 22 -27q17 -15 44 -15q51 0 88 64q5 9 10 9q4 0 4 -4z" />
    <glyph glyph-name="dotaccent" unicode="&#x2d9;" horiz-adv-x="173" 
d="M151 497q0 4 -14 -17q-9 -20 -17 -40q-12 -27 -27 -27q-7 0 -14 10.5t-7 18.5q0 15 30 36.5t46 21.5q1 0 3 -2v1v-2z" />
    <glyph glyph-name="ring" unicode="&#x2da;" horiz-adv-x="229" 
d="M176 527q0 -35 -28.5 -64.5t-63.5 -29.5q-41 0 -41 38q0 21 10 44q12 27 29 32q16 32 51 32q19 0 31 -15.5t12 -36.5zM152 525q0 36 -22 36q-11 0 -29 -13l11 -6q-3 -7 -20 -32q-12 -18 -12 -38t15 -20q24 0 40.5 24t16.5 49z" />
    <glyph glyph-name="ogonek" unicode="&#x2db;" horiz-adv-x="234" 
d="M201 -110q0 -13 -48 -29q-41 -13 -60 -13q-55 0 -55 42q0 26 19 69q22 48 44 49l3 -3q-34 -48 -34 -88q0 -41 45 -41q17 0 45.5 11.5t29.5 11.5q11 0 11 -9z" />
    <glyph glyph-name="tilde" unicode="&#x2dc;" horiz-adv-x="272" 
d="M251 487q0 -15 -40 -42q-12 -8 -27 -8q-18 0 -50.5 13.5t-48.5 13.5q-17 0 -33.5 -13t-21.5 -13q-1 1 -1 2q0 16 43 41q17 10 36 10q17 0 48 -10.5t47 -10.5q24 0 42 21q6 0 6 -4z" />
    <glyph glyph-name="hungarumlaut" unicode="&#x2dd;" horiz-adv-x="156" 
d="M178 484l-2 -2q-8 -13 -48 -58t-50 -53q-4 -4 -8 -4q-4 1 2 8q47 68 71 110q32 1 35 -1zM109 490l-2 -2q-8 -13 -48 -58t-50 -53q-4 -4 -8 -3q-4 0 2 8q47 67 71 109q32 1 35 -1z" />
    <glyph glyph-name="Omega" unicode="&#x3a9;" horiz-adv-x="139" 
d="M159 138q0 -35 -106 -107h12q9 1 13 1q46 0 74 -31q3 -4 3 -7q0 -5 -6 -5q-3 0 -6 2q-37 22 -69 22q-13 0 -36 -7t-29 -7q-2 0 -2 3q0 20 16 28q31 26 63 52q46 39 46 56q0 12 -21 12q-18 0 -47.5 -10.5t-28.5 -10.5q-3 0 -3 2q0 3 6 8q35 27 79 27q42 0 42 -28z" />
    <glyph glyph-name="Omega" unicode="&#x2126;" horiz-adv-x="139" 
d="M159 138q0 -35 -106 -107h12q9 1 13 1q46 0 74 -31q3 -4 3 -7q0 -5 -6 -5q-3 0 -6 2q-37 22 -69 22q-13 0 -36 -7t-29 -7q-2 0 -2 3q0 20 16 28q31 26 63 52q46 39 46 56q0 12 -21 12q-18 0 -47.5 -10.5t-28.5 -10.5q-3 0 -3 2q0 3 6 8q35 27 79 27q42 0 42 -28z" />
    <glyph glyph-name="pi" unicode="&#x3c0;" horiz-adv-x="330" 
d="M291 211q0 -7 -8 -14q-30 -28 -74 -25q-9 -34 -19 -68q-10 -40 -10 -70q0 -38 19 -38q11 0 30 14q15 12 43 63q3 7 6 7q2 -1 2 -2q0 -15 -27 -50.5t-43 -39.5q-9 -3 -17 -3q-32 0 -32 47q0 84 21 144q-21 6 -63 15q-2 -113 -38 -181q-2 -3 -5 -3q-6 1 -6 3q0 5 6.5 22.5
t7.5 21.5q11 49 11 139h-2q-43 0 -74 -27q-3 -2 -5 -2q-3 0 -3 3q0 8 7 14q39 38 83 38q23 0 65 -13.5t65 -13.5q22 0 57 23q3 0 3 -4z" />
    <glyph glyph-name="afii10023" unicode="&#x401;" horiz-adv-x="587" 
d="M593 329q-57 -35 -123 -50t-124 -15q-93 0 -217 -18q-50 -76 -50 -139q0 -60 45 -91q38 -28 102 -28q152 0 334 150q4 3 7 3q13 0 13 -13q0 -5 -4 -9q-74 -68 -174 -114q-108 -52 -199 -52q-73 0 -118 30q-52 34 -52 104t49 152q-50 -9 -45 -9q-7 0 -7 7q0 24 21 32
q5 2 57 10q40 55 90.5 100t112.5 82q133 79 260 79q42 0 66.5 -11.5t35.5 -30.5t9 -42.5t-13.5 -46.5t-31 -44.5t-44.5 -35.5zM562 344q93 72 93 120q0 49 -83 49q-102 0 -229 -74q-112 -66 -186 -155q43 5 82 7.5t76 2.5q76 0 136 12t111 38zM682 658q0 4 -15 -17l-16 -40
q-12 -27 -27 -27q-7 0 -14 10.5t-7 18.5q0 15 29.5 36t45.5 21q2 0 4 -1v1v-2zM561 658q0 4 -15 -17l-16 -40q-12 -27 -27 -27q-7 0 -14 10.5t-7 18.5q0 15 29.5 36t45.5 21q2 0 4 -1v1v-2z" />
    <glyph glyph-name="afii10053" unicode="&#x404;" horiz-adv-x="587" 
d="M683 462q0 -39 -32 -83q-29 -38 -67 -61q-7 -4 -13 -4q-17 0 -17 16q0 7 8 14q93 72 93 120q0 49 -83 49q-103 0 -229 -74q-113 -66 -186 -155q85 10 158 10q151 0 151 -28q0 -13 -14 -13q-13 0 -49.5 5.5t-56.5 5.5q-93 0 -217 -18q-50 -75 -50 -139q0 -60 45 -91
q39 -28 102 -28q153 0 334 150q4 3 7 3q13 0 13 -13q0 -5 -4 -9q-74 -67 -174 -114q-109 -52 -199 -52q-73 0 -118 30q-52 35 -52 104t49 152q-49 -9 -45 -9q-7 0 -7 7q0 25 21 32q8 3 57 10q80 109 203 182q133 79 260 79q112 0 112 -78z" />
    <glyph glyph-name="uni0406" unicode="&#x406;" horiz-adv-x="457" 
d="M675 492q0 -8 -11 -8l-3 1q-54 6 -164 14q-90 -114 -144 -216q-78 -148 -95 -237q51 6 92 6q91 0 110 -21q6 -7 6 -20q0 -17 -10 -17q-17 0 -59.5 9.5t-63.5 9.5q-36 0 -78 -4q1 -29 20 -29q9 0 25 11t19 11q8 0 8 -9q0 -12 -20.5 -22.5t-33.5 -10.5q-40 0 -44 47
q-26 -3 -111 -21q-77 -17 -101 -17q-12 0 -12 13q0 8 10 12q7 3 61 17q81 20 154 31q11 84 84 235q66 137 128 223h-17q-58 1 -100 -4q-125 -15 -125 -48q0 -14 28 -30t28 -22q0 -8 -10 -8q-3 0 -7 1q-80 38 -80 67q0 22 43 43q57 27 186 27q34 0 72 -2q12 17 49 17
q15 0 15 -6q0 -2 -10 -15q57 -4 115 -12q12 -1 35 -5q11 -3 11 -11z" />
    <glyph glyph-name="afii10056" unicode="&#x407;" horiz-adv-x="457" 
d="M675 492q0 -8 -11 -8l-3 1q-54 6 -164 14q-90 -114 -144 -216q-78 -148 -95 -237q51 6 92 6q91 0 110 -21q6 -7 6 -20q0 -17 -10 -17q-17 0 -59.5 9.5t-63.5 9.5q-36 0 -78 -4q1 -29 20 -29q9 0 25 11t19 11q8 0 8 -9q0 -12 -20.5 -22.5t-33.5 -10.5q-40 0 -44 47
q-26 -3 -111 -21q-77 -17 -101 -17q-12 0 -12 13q0 8 10 12q7 3 61 17q81 20 154 31q11 84 84 235q66 137 128 223h-17q-58 1 -100 -4q-125 -15 -125 -48q0 -14 28 -30t28 -22q0 -8 -10 -8q-3 0 -7 1q-80 38 -80 67q0 22 43 43q57 27 186 27q34 0 72 -2q12 17 49 17
q15 0 15 -6q0 -2 -10 -15q57 -4 115 -12q12 -1 35 -5q11 -3 11 -11zM626 649q0 4 -15 -17l-16 -40q-12 -27 -27 -27q-7 0 -14 10.5t-7 18.5q0 15 29.5 36t45.5 21q2 0 4 -1v1v-2zM505 649q0 4 -15 -17l-16 -40q-12 -27 -27 -27q-7 0 -14 10.5t-7 18.5q0 15 29.5 36t45.5 21
q2 0 4 -1v1v-2z" />
    <glyph glyph-name="afii10062" unicode="&#x40e;" horiz-adv-x="751" 
d="M755 48q0 -11 -11 -11q-5 0 -9 2q-27 12 -50 12q-15 0 -34 -4q-48 -162 -168 -276q-133 -127 -291 -127q-44 0 -77 19q-39 24 -39 65q0 120 222 230q158 78 328 115q10 41 26 248q-8 -13 -14 -22q-42 -58 -128 -172q-84 -103 -135 -103q-69 0 -69 64q0 59 63.5 184.5
t63.5 161.5q0 59 -74 59q-82 0 -183 -59.5t-134 -132.5q-18 -39 -18 -63q0 -31 35 -31q8 0 23.5 3t22.5 3q8 0 8 -5q0 -12 -28 -20q-21 -5 -38 -5q-63 0 -63 52q0 23 13 51q41 88 160 160q116 71 215 71q98 0 98 -80q0 -39 -29 -98t-82 -182q-17 -48 -17 -75q0 -29 22 -29
q54 0 146 113q29 35 85 107q20 33 61 98q1 11 4 33q3 15 24.5 36t36.5 21q12 0 12 -13q0 -4 -1 -5q-3 -8 -9 -23q-15 -43 -32 -154q-8 -63 -33 -188h10q26 1 51 -5q36 -8 36 -25zM616 42q-136 -26 -301 -110q-211 -107 -211 -208q0 -52 85 -52q75 0 141 29q93 41 176 142
q79 97 110 199zM750 683q0 -3 -3 -8q-67 -122 -152 -111q-73 10 -87 91q-3 16 -1 27q1 15 8 14q6 -1 13 -25q12 -30 25 -45q19 -26 54 -30q66 -9 124 82q8 13 14 12t5 -7z" />
    <glyph glyph-name="afii10017" unicode="&#x410;" 
d="M802 572q0 -3 -5 -11q-85 -142 -141 -350q45 -14 45 -26q0 -10 -11 -10q-1 0 -18 6.5t-22 7.5q-29 -120 -29 -190q0 -34 10 -34q9 0 24.5 12.5t18.5 12.5q9 0 9 -11t-19.5 -22.5t-32.5 -11.5q-38 0 -38 63q0 64 25 187q-51 7 -118 8q-30 -37 -79 -90q-80 -86 -123 -118
q-77 -56 -158 -56q-54 0 -87 24q-39 26 -39 78q0 58 49 107q44 44 104 60q100 28 319 27q65 76 131 161q18 26 56 75q4 5 9 5q13 0 13 -12q0 -3 -2 -7q-6 -9 -62 -83q-65 -87 -106 -140q50 -3 98 -14q28 127 72 238q12 31 40 88q4 7 27 21t31 14q9 0 9 -9zM458 203h-28
q-172 0 -260 -23q-50 -14 -87 -49q-42 -40 -42 -88q0 -33 28 -50q23 -15 59 -15q76 0 149 50q47 32 119 108q30 30 62 67z" />
    <glyph glyph-name="afii10018" unicode="&#x411;" horiz-adv-x="721" 
d="M792 404q0 -16 -10 -16q-5 0 -7 9q-3 17 -8 26q-17 30 -64 48q-40 15 -81 15q-64 0 -147 -18q-75 -107 -130 -220q-26 -54 -43 -100q100 7 182 -6q86 -13 146 -52q20 41 13 74q-15 58 -101 82q-33 9 -66.5 12.5t-67.5 -0.5l-21 -2q-13 0 -14 8q-3 8 3 13.5t17 9.5
q20 3 48 0.5t57 -8.5t55.5 -14t43.5 -16q74 -33 87 -85q11 -41 -21 -97q17 -15 26.5 -25t11.5 -18q1 -13 -8 -14q-2 0 -3.5 1t-4.5 2q-11 12 -19 21t-16 14q-44 -59 -134 -97q-39 -17 -81 -26.5t-89 -14.5q-59 -6 -121 13q-80 23 -92 75q-16 60 33 105q10 9 25.5 16.5t33 13
t35.5 9.5q2 0 4 1q16 42 39 94q49 111 112 216q-75 -21 -150 -43q-90 -23 -151 -23q-91 0 -91 47q0 14 10 30q28 43 103 67q61 19 125 19q60 0 86 -8q13 -4 13 -13q0 -8 -8 -8h-3q-82 8 -85 8q-52 0 -105 -14q-67 -17 -92 -48q-10 -12 -10 -20q0 -25 61 -25q59 0 160 26
q81 22 161 44q6 10 19 28q13 15 48 15q13 0 13 -5q0 -2 -17 -25q61 11 114 11q55 0 111 -29q65 -34 65 -83zM272 6q0 -39 13 -39q9 0 25 11.5t18 11.5q9 0 9 -9q0 -11 -20.5 -22.5t-33.5 -11.5q-49 0 -49 62q0 42 22 111q-43 -15 -66 -42q-29 -32 -17 -78q11 -43 73 -60
q47 -15 96 -10q201 19 279 139q-32 18 -68.5 32t-78.5 22q-80 17 -151 9q-3 0 -9.5 -1t-13.5 -2h-5q-23 -71 -23 -123z" />
    <glyph glyph-name="afii10019" unicode="&#x412;" horiz-adv-x="630" 
d="M642 454q0 -48 -78 -87q-58 -30 -121 -40q72 -17 122 -47q70 -43 70 -101q0 -47 -49 -103q29 -35 29 -51q0 -14 -11 -14q-5 0 -8 5q-15 27 -28 41q-65 -60 -170 -92q-92 -27 -192 -27q-67 0 -127 26q-78 33 -78 91q0 67 64 110q54 36 125 40q43 99 93 192q16 31 52 88
q16 22 51 22q14 0 14 -8q0 -3 -2 -6q-94 -127 -174 -288q225 -5 335 -101q32 42 32 79q0 63 -85 99q-66 27 -140 27h-11h-12q-13 0 -13 9q0 18 29 23q16 2 48 7q121 25 177 77q23 22 23 38q0 36 -93 54q-63 12 -130 12q-180 0 -336 -65q-5 -2 -8 -2q-8 0 -8 8
q0 12 13.5 26.5t25.5 19.5q104 42 265 42q96 0 178 -18q128 -27 128 -86zM541 82q-56 47 -141 74q-81 25 -159 25q-15 0 -29 -1q-60 -128 -60 -171q0 -3 1 -8t1 -8q0 -13 -11 -13q-16 0 -16 27q0 45 51 169q-133 -22 -133 -123q0 -46 61 -72q48 -21 100 -21q222 0 335 122z
" />
    <glyph glyph-name="afii10020" unicode="&#x413;" horiz-adv-x="503" 
d="M387 445q-38 -11 -75 -21.5t-75 -21.5q-92 -23 -151 -23q-91 0 -91 47q0 14 10 30q28 43 103 67q60 19 125 19q59 0 86 -8q13 -4 13 -13q0 -8 -8 -8h-3q-42 4 -62.5 6t-22.5 2q-51 0 -105 -14q-66 -16 -92 -48q-10 -11 -10 -20q0 -25 61 -25q58 0 160 26
q52 13 106.5 28.5t110.5 26.5q-7 19 -25 19q-13 0 -33 -11t-21 -11q-7 0 -7 9q0 13 34 27q29 11 47 11q36 0 46 -37l40 4t40 2q55 0 111 -29q65 -35 65 -83q0 -16 -10 -16q-6 0 -7 9q-3 16 -8 26q-16 30 -64 48q-41 15 -81 15q-14 0 -35.5 -2.5t-45.5 -6.5v-3
q0 -90 -59 -220l-5 -23l-21 -28q-60 -105 -142 -176q-102 -87 -203 -87q-47 0 -77 21q-36 24 -36 68q0 70 95 155q92 83 160 83q9 0 9 -7q0 -6 -14 -11q-113 -43 -179 -127q-40 -51 -40 -100q0 -63 72 -63q99 0 197 96q73 73 132 183l19 39q48 117 50 193q-24 -5 -45.5 -9
t-38.5 -8z" />
    <glyph glyph-name="afii10021" unicode="&#x414;" 
d="M765 311q0 -79 -55 -156q-47 -66 -122 -116q4 -9 4 -14q0 -14 -10 -14q-4 0 -14 16q-150 -90 -345 -90q-21 0 -40 1q-68 3 -126 28q-78 33 -78 89q0 67 63 110q55 36 126 40q45 105 98 201q16 31 47 79q17 22 51 22q14 0 14 -8q0 -3 -2 -6q-94 -127 -174 -288
q269 -6 367 -135q66 46 108 106q49 70 49 140q0 113 -127 173q-98 45 -225 45q-169 0 -300 -74q-8 -4 -13 -4q-13 0 -13 15q0 22 31 39q45 24 137 39q77 12 143 12q148 0 260 -52q146 -67 146 -198zM547 55q-46 57 -152 93q-95 33 -179 33q-13 0 -26 -1q-60 -128 -60 -171
q0 -3 1 -8t1 -8q0 -13 -11 -13q-16 0 -16 27q0 45 51 169q-133 -22 -133 -123q0 -45 61 -71q46 -20 100 -22h25q190 0 338 95z" />
    <glyph glyph-name="afii10022" unicode="&#x415;" horiz-adv-x="587" 
d="M593 329q-57 -35 -123 -50t-124 -15q-93 0 -217 -18q-50 -76 -50 -139q0 -60 45 -91q38 -28 102 -28q152 0 334 150q4 3 7 3q13 0 13 -13q0 -5 -4 -9q-74 -68 -174 -114q-108 -52 -199 -52q-73 0 -118 30q-52 34 -52 104t49 152q-50 -9 -45 -9q-7 0 -7 7q0 24 21 32
q5 2 57 10q40 55 90.5 100t112.5 82q133 79 260 79q42 0 66.5 -11.5t35.5 -30.5t9 -42.5t-13.5 -46.5t-31 -44.5t-44.5 -35.5zM562 344q93 72 93 120q0 49 -83 49q-102 0 -229 -74q-112 -66 -186 -155q43 5 82 7.5t76 2.5q76 0 136 12t111 38z" />
    <glyph glyph-name="afii10024" unicode="&#x416;" horiz-adv-x="1103" 
d="M405 557q63 3 101 -25q45 -30 48 -100q2 -33 -7.5 -71t-28.5 -80l-22 -40q-3 -5 -6 -10.5t-7 -10.5q37 -10 76 -9q6 -2 18 -1.5t32 2.5q16 45 39 99q58 135 113 220l16 24q11 17 43 17q13 0 13 -6q0 -2 -8 -15l-15 -21q-80 -112 -128 -213q-26 -56 -44 -103q23 2 51.5 5
t63.5 7h4l16 30q32 56 74 101.5t93 84.5q111 81 220 87q95 3 98 -73q2 -38 -25 -83q-24 -38 -55 -62q-7 -4 -11 -4q-15 -2 -15 15q0 6 6 14q78 73 76 121t-72 45q-87 -4 -194 -81q-47 -35 -85.5 -74.5t-67.5 -84.5l-20 -31q115 12 123 6q32 -24 17 -64q-3 -6 -8.5 -13.5
t-12.5 -14.5t-14 -10.5t-11 -1.5q-4 8 0 21q2 3 4.5 8.5t4.5 9.5q2 2 1.5 5t-2.5 4q-11 9 -44 8q-17 -1 -36.5 -1t-42.5 -1q-23 -54 -21 -101q3 -58 42 -88q34 -24 89 -23q32 1 57 11.5t47 29t43.5 46.5t47.5 65q8 10 13.5 1.5t1.5 -19.5q-13 -24 -37 -53t-54.5 -54
t-66.5 -43t-72 -19q-63 -3 -101 25q-45 30 -48 100q-2 27 4.5 58t19.5 64q-26 -1 -53.5 -1h-58.5q-21 -60 -28 -104l-3 -36q1 -29 18 -29q8 0 22 11t16 11q7 0 7 -9q0 -12 -18 -22.5t-29 -10.5q-36 0 -39 47l1 34q5 44 25 107q-17 0 -35.5 -0.5t-38.5 -0.5l-48 7q-1 5 -8 7
q-29 -42 -64 -77t-76 -66q-111 -81 -220 -87q-95 -3 -98 73q-2 38 25 83q24 38 55 62q7 4 11 4q15 1 15 -15q0 -7 -6 -14q-78 -73 -76 -121q1 -48 72 -45q45 2 93 22.5t101 58.5q79 57 133 130q-10 4 -22.5 10.5t-27.5 17.5q-3 2 -5.5 11.5t-0.5 14.5q5 17 33 -2
q20 -16 41 -26q1 1 1 1.5t1 1.5l23 37q40 78 39 139q-3 58 -42 88q-34 24 -89 23q-32 -2 -57 -12t-47 -28.5t-43.5 -46.5t-47.5 -65q-8 -10 -13.5 -1.5t-1.5 19.5q13 24 37 53t54.5 54t66.5 42.5t72 19.5z" />
    <glyph glyph-name="afii10025" unicode="&#x417;" horiz-adv-x="464" 
d="M540 401q0 -65 -84 -148q-44 -43 -141 -113h11q89 2 89 -68q0 -15 -5 -33h8q83 1 90 -20q-1 -8 -10 -8q-7 0 -18 4t-15 4.5t-24 0.5q-19 0 -37 -1q-8 -20 -21 -41q-116 -200 -274 -300q-80 -52 -134 -52q-63 0 -63 66q0 34 19 75q54 119 185 194q120 68 260 77q9 24 9 40
q0 38 -54 38q-45 0 -99 -22q-59 -24 -60 -24q-11 0 -11 9q0 11 13 24q6 7 39.5 17t42.5 16q81 50 153 119q97 93 97 154t-88 61q-91 0 -212 -54q-114 -53 -183 -120q-15 3 -15 16q0 45 100 97q69 36 143 58q85 25 159 25q130 0 130 -91zM366 16q-211 -22 -338 -154
q-42 -44 -62 -87q-17 -39 -17 -66q0 -51 47 -51q38 0 99 38q71 44 153 144q75 91 118 176z" />
    <glyph glyph-name="afii10026" unicode="&#x418;" horiz-adv-x="689" 
d="M779 521q0 -2 -2 -4q-96 -166 -134 -269q-56 -153 -56 -245q0 -60 26 -60q10 0 25.5 14t18.5 14q9 0 9 -9q0 -13 -26.5 -28.5t-40.5 -15.5q-47 0 -47 75q0 86 61 268q-60 -81 -119 -162q-92 -113 -143 -113q-64 0 -64 62q0 53 48 158q39 76 77 153q21 45 21 75
q0 59 -74 59q-82 0 -183 -59.5t-134 -132.5q-18 -39 -18 -63q0 -31 35 -31q8 0 23.5 3t22.5 3q8 0 8 -5q0 -12 -28 -20q-21 -5 -38 -5q-63 0 -63 52q0 23 13 51q41 88 160 160q116 71 215 71q98 0 98 -80q0 -39 -28 -98q-34 -66 -96 -201q-24 -63 -24 -94q0 -29 21 -29
q52 0 143 113q66 83 138 200q15 24 42 73q16 37 53 105q6 8 23 14t28 6q9 0 9 -5z" />
    <glyph glyph-name="afii10027" unicode="&#x419;" horiz-adv-x="689" 
d="M779 521q0 -2 -2 -4q-96 -166 -134 -269q-56 -153 -56 -245q0 -60 26 -60q10 0 25.5 14t18.5 14q9 0 9 -9q0 -13 -26.5 -28.5t-40.5 -15.5q-47 0 -47 75q0 86 61 268q-60 -81 -119 -162q-92 -113 -143 -113q-64 0 -64 62q0 53 48 158q39 76 77 153q21 45 21 75
q0 59 -74 59q-82 0 -183 -59.5t-134 -132.5q-18 -39 -18 -63q0 -31 35 -31q8 0 23.5 3t22.5 3q8 0 8 -5q0 -12 -28 -20q-21 -5 -38 -5q-63 0 -63 52q0 23 13 51q41 88 160 160q116 71 215 71q98 0 98 -80q0 -39 -28 -98q-34 -66 -96 -201q-24 -63 -24 -94q0 -29 21 -29
q52 0 143 113q66 83 138 200q15 24 42 73q16 37 53 105q6 8 23 14t28 6q9 0 9 -5zM750 683q0 -3 -3 -8q-67 -122 -152 -111q-73 10 -87 91q-3 16 -1 27q1 15 8 14q6 -1 13 -25q12 -30 25 -45q19 -26 54 -30q66 -9 124 82q8 13 14 12t5 -7z" />
    <glyph glyph-name="afii10028" unicode="&#x41a;" horiz-adv-x="731" 
d="M751 478v-3q-7 -124 -302 -252q42 -62 107 -131q88 -93 131 -93q23 0 23 25q0 6 -2.5 17.5t-2.5 14.5q0 9 8 9q17 0 17 -40q0 -21 -13 -35t-33 -14q-52 0 -141 87q-58 57 -115 132q-60 -105 -142 -176q-102 -87 -203 -87q-47 0 -77 21q-36 24 -36 68q0 70 95 155
q92 83 160 83q9 0 9 -7q0 -6 -14 -11q-113 -43 -179 -127q-40 -51 -40 -100q0 -63 72 -63q99 0 197 96q73 73 132 183q-47 67 -47 83q0 10 6 30.5t13 20.5q3 0 5 -5q22 -55 42 -90q50 120 50 197q0 48 -29 48q-13 0 -33 -11t-21 -11q-7 0 -7 9q0 13 34 27q29 11 47 11
q51 0 51 -73q0 -90 -59 -220q206 94 263 204q5 9 13 33q3 10 10 10q12 0 11 -15z" />
    <glyph glyph-name="afii10029" unicode="&#x41b;" horiz-adv-x="683" 
d="M618 195q33 151 77 263q6 16 16 37.5t24 50.5q4 7 27 21t31 14q9 0 9 -9q0 -3 -5 -11q-86 -143 -141 -350l-6 -22q-29 -122 -29 -190q0 -34 10 -34t24 13q16 12 19 12q9 0 9 -11t-20 -22q-20 -12 -32 -12q-38 0 -38 63q0 66 25 187zM449 140q-81 -90 -176 -142
q-118 -64 -216 -43q-46 10 -71 36q-31 31 -21 74q14 69 125 132q107 62 174 48q8 -2 7 -9q-1 -6 -16 -8q-120 -18 -202 -86q-49 -42 -60 -90q-13 -62 58 -77q97 -20 212 53q87 56 171 150.5t117 134.5t66 83q9 13 23 31.5t33 43.5q5 5 9 5q13 0 13 -12q0 -1 -2 -7
q-5 -8 -62 -83q-32 -44 -59 -79t-123 -155z" />
    <glyph glyph-name="afii10030" unicode="&#x41c;" horiz-adv-x="966" 
d="M893 403q-42 -35 -105 -113q-42 -53 -77.5 -102t-63.5 -95q-8 -15 -15.5 -27.5t-13.5 -23.5q-2 -5 -5.5 -11t-8.5 -13q-3 -1 -8 -1q-28 0 -29 24q0 5 3 10q1 1 8.5 17t17 38.5t20 46.5t18.5 42q9 39 20.5 76t22.5 69t20 58.5t14 43.5q6 22 3 27t-21 -12q-4 -7 -62 -83
q-16 -22 -30.5 -42t-28.5 -37t-44.5 -56t-78.5 -99q-80 -88 -176 -142q-118 -64 -216 -43q-45 10 -71 36q-31 31 -21 74q13 69 125 132q106 61 174 48q8 -2 7 -9q-2 -7 -16 -8q-119 -18 -202 -86q-50 -42 -60 -90q-14 -62 58 -77q98 -20 212 53q87 55 171 150q84 94 117 135
q17 20 33 40.5t33 42.5q9 13 23 31.5t33 43.5q10 21 30 29.5t38 9.5t29 -1.5t3 -2.5q9 0 9 -9q0 -3 -5 -11q-6 -10 -11.5 -19.5t-10.5 -19.5q-15 -29 -26 -57t-20.5 -58.5t-19 -66t-21.5 -80.5q60 76 131 152q22 24 46 45.5t48 38t46.5 26t40.5 9.5q9 0 9 -9
q0 -10 -5.5 -23.5t-12.5 -28.5t-14.5 -29.5t-10.5 -24.5q-14 -38 -26.5 -76.5t-26.5 -77.5q-33 -108 -32 -154q1 -37 27 -37q14 0 35 18q23 17 26 17q4 0 4 -5q2 -21 -26 -36q-24 -15 -44 -15q-53 0 -56 68q-2 44 18 119q8 27 19.5 61.5t26.5 76.5q6 14 14 34t17 49
q6 22 -2.5 29.5t-26.5 -9.5z" />
    <glyph glyph-name="afii10031" unicode="&#x41d;" horiz-adv-x="811" 
d="M953 530q0 -2 -2 -5q-125 -166 -189 -312q64 -31 64 -66q0 -8 -5.5 -17t-12.5 -9q-12 0 -12 12q0 3 3 7t3 8q0 20 -50 43q-54 -127 -54 -188q0 -36 21 -36q9 0 25 11.5t18 11.5q9 0 9 -9q0 -11 -20.5 -22.5t-33.5 -11.5q-46 0 -46 61q0 63 53 194q-53 17 -139 26
q-64 -120 -179 -215q-131 -109 -250 -109q-69 0 -118 33q-56 38 -56 104q0 123 203 180q137 38 304 38q36 0 63 -2q52 129 52 191q0 39 -25 39q-13 0 -33 -11t-22 -11q-6 0 -6 9q0 13 33 26q30 12 48 12q46 0 46 -65q0 -69 -48 -194q88 -12 136 -28q15 35 32 72
q74 162 127 223q13 15 48 15q13 0 13 -5zM539 231q-23 2 -52 2q-151 0 -280 -36q-190 -53 -190 -163q0 -52 46 -81q39 -25 93 -25q108 0 226 103q100 88 157 200z" />
    <glyph glyph-name="afii10032" unicode="&#x41e;" horiz-adv-x="646" 
d="M701 359q0 -71 -56 -151q-71 -103 -204.5 -171t-258.5 -68q-131 0 -131 105q0 32 15 70q-66 31 -66 97q0 86 84 159q66 57 163 92q104 38 208 38q97 0 163 -36q83 -46 83 -135zM668 374q0 70 -64 105q-51 28 -128 28q-100 0 -214 -45q-85 -34 -150 -83q-89 -69 -89 -137
q0 -59 52 -77q46 81 138.5 166.5t175.5 119.5q42 17 72 19h2q12 1 12 -9t-14 -13q-38 -6 -69 -23q-37 -20 -83 -56q-54 -41 -109 -98q-73 -75 -85 -116q19 -4 37 -4q89 0 179 84q36 33 35 33q7 0 7 -8q-39 -56 -99 -91q-64 -38 -129 -38q-21 0 -37 5q-17 -33 -17 -62
q0 -40 29 -62t70 -22q120 0 240 72q112 67 184 171q54 78 54 141z" />
    <glyph glyph-name="afii10033" unicode="&#x41f;" horiz-adv-x="884" 
d="M877 376q0 -59 -58 -186t-58 -164q0 -30 28 -30q16 0 39.5 17t27.5 17t4 -5q0 -20 -27.5 -35t-49.5 -15q-53 0 -53 56q0 41 30 110q36 81 38 87q21 50 32.5 90.5t11.5 63.5q0 35 -25 35q-12 0 -31 -8q-72 -33 -181 -170q-80 -101 -146 -211q-16 -29 -49 -70q-22 0 -22 22
q0 7 3 12q55 67 122 217q72 161 72 234q0 108 -128 108q-61 0 -139 -27q-90 -30 -174 -88q-111 -76 -111 -146q0 -57 77 -57q41 0 111 20q7 2 10 2q8 0 8 -6q0 -17 -52 -29q-41 -10 -68 -10q-112 0 -112 88q0 82 114 161q86 59 188 91q84 25 154 25q165 0 165 -130
q0 -91 -73 -229q57 68 114 137q86 93 135 93q73 0 73 -70z" />
    <glyph glyph-name="afii10034" unicode="&#x420;" horiz-adv-x="462" 
d="M576 391q0 -26 -14 -54q-33 -66 -122 -105q-78 -34 -160 -34q-44 0 -91 5q-101 -190 -101 -251q0 -3 1 -8t1 -7q0 -14 -11 -14q-16 0 -16 27q0 68 90 259q-83 16 -83 47q0 20 25 33q21 11 43 11q11 0 11 -7t-24.5 -12.5t-24.5 -17.5q0 -17 62 -34q38 79 75 145
q11 19 34 55q15 21 51 21q14 0 14 -7q0 -3 -2 -7q-71 -96 -135 -214q22 -3 44 -3q82 0 165 37q95 44 119 111q5 16 5 31q0 66 -88 83q-61 12 -138 12q-166 0 -326 -58q-7 -2 -11 -2q-7 0 -7 6q0 12 17 27q14 13 28 18q109 36 256 36q104 0 200 -21q113 -25 113 -108z" />
    <glyph glyph-name="afii10035" unicode="&#x421;" horiz-adv-x="516" 
d="M646 462q0 -68 -75 -125q-70 -55 -141 -55q-73 0 -73 56q0 40 18 40q7 0 7 -9q0 -3 -1 -9t-1 -9q0 -39 51 -39q53 0 120 51t67 101q0 49 -83 49q-17 0 -33 -2q-86 -9 -196 -72.5t-183 -148.5q-81 -96 -81 -184q0 -55 37 -84q33 -26 90 -26q182 0 353 142q4 3 8 3
q12 0 12 -13q0 -5 -4 -9q-73 -67 -173 -114q-110 -52 -199 -52q-73 0 -118 30q-53 35 -53 104q0 82 67 179q79 115 205 191q135 83 266 83q113 0 113 -78z" />
    <glyph glyph-name="afii10036" unicode="&#x422;" horiz-adv-x="1114" 
d="M1101 365q0 -33 -20 -81q-31 -76 -63 -152q-40 -105 -40 -152q0 -36 27 -36q15 0 38.5 17t27.5 17t4 -5q0 -20 -27.5 -35t-48.5 -15q-57 0 -57 67q0 44 24 117q19 54 55 136q14 27 36 82q9 27 9 40q0 11 -7 11q-51 0 -182 -143q-95 -104 -158 -194q-20 -29 -33 -50
q-5 -11 -16 -24q-4 -1 -8 -1q-30 0 -30 24q0 5 3.5 10t37.5 76q101 210 101 302q0 42 -26 42q-42 0 -140 -107q-111 -122 -208 -283q-11 -19 -22 -37q-16 -25 -26 -33q-23 0 -23 22q0 7 4 12q55 67 119 212q70 156 70 230q0 100 -110 100q-58 0 -140 -29q-55 -20 -112.5 -51
t-108.5 -70q-76 -59 -76 -97q0 -56 109 -56q22 0 65 6.5t64 6.5q8 0 8 -4t-5 -7q-34 -24 -113 -24q-57 0 -98 16q-56 22 -56 71q0 52 75 112q51 41 121 75q59 28 121 47q88 26 157 26q146 0 146 -111q0 -90 -72 -229q57 68 114 137q86 93 135 93q60 0 60 -90q0 -78 -61 -226
q66 74 145 150q112 106 158 121q13 4 22 4q31 0 31 -40z" />
    <glyph glyph-name="afii10037" unicode="&#x423;" horiz-adv-x="751" 
d="M755 48q0 -11 -11 -11q-5 0 -9 2q-27 12 -50 12q-15 0 -34 -4q-48 -162 -168 -276q-133 -127 -291 -127q-44 0 -77 19q-39 24 -39 65q0 120 222 230q158 78 328 115q10 41 26 248q-8 -13 -14 -22q-42 -58 -128 -172q-84 -103 -135 -103q-69 0 -69 64q0 59 63.5 184.5
t63.5 161.5q0 59 -74 59q-82 0 -183 -59.5t-134 -132.5q-18 -39 -18 -63q0 -31 35 -31q8 0 23.5 3t22.5 3q8 0 8 -5q0 -12 -28 -20q-21 -5 -38 -5q-63 0 -63 52q0 23 13 51q41 88 160 160q116 71 215 71q98 0 98 -80q0 -39 -29 -98t-82 -182q-17 -48 -17 -75q0 -29 22 -29
q54 0 146 113q29 35 85 107q20 33 61 98q1 11 4 33q3 15 24.5 36t36.5 21q12 0 12 -13q0 -4 -1 -5q-3 -8 -9 -23q-15 -43 -32 -154q-8 -63 -33 -188h10q26 1 51 -5q36 -8 36 -25zM616 42q-136 -26 -301 -110q-211 -107 -211 -208q0 -52 85 -52q75 0 141 29q93 41 176 142
q79 97 110 199z" />
    <glyph glyph-name="afii10038" unicode="&#x424;" horiz-adv-x="634" 
d="M275 108h-2q-18 -43 -30 -80q-12 -39 -18.5 -68.5t-6.5 -44.5q0 -3 1 -8t1 -7q0 -10 -7 -10q-13 0 -13 23q0 17 6 47.5t17 70.5q11 37 26 80q-93 11 -138 31q-96 37 -96 124q0 75 70 141q59 54 134.5 80t148.5 26q27 0 55 -2q12 0 24 -1q8 15 17 32q-198 -2 -386 -75
q-8 -2 -10 -2q-6 0 -6 5q0 7 5.5 15.5t13 16t16.5 13t16 7.5q65 23 141 34.5t167 11.5h31q13 0 26 -1q8 15 13 24q7 14 21 35q13 19 49 19q10 0 10 -4q-1 -1 -1 -2t-1 -2q-17 -26 -37 -57q-6 -9 -12 -19h2q109 -12 164 -34q95 -37 95 -124q0 -77 -70 -141q-29 -27 -63 -47
t-71 -33.5t-74.5 -20t-73.5 -6.5q-28 0 -56 2t-57 6q-10 2 -16 5q-9 -19 -17 -38h4q39 1 60.5 -3.5t22.5 -10t-21.5 -8.5t-73.5 0zM323 179q31 -6 61 -6q28 0 56 4t57 12q87 26 154 76q87 66 87 147q0 76 -85 106q-23 8 -62 14q-37 5 -84 8l-16 -28l-5 -8q23 -10 32 -20
q10 -11 5.5 -18t-21.5 -8q-15 0 -37 9q-7 -13 -15 -27q-21 -38 -43.5 -77.5t-44.5 -79.5t-41 -76q-7 -13 -14 -25q7 -1 16 -3zM180 228q0 23 29 39q22 13 48 13q10 0 10 -5q0 -3 -31 -13q-29 -9 -29 -26q0 -27 73 -48l12 24q20 43 58 116q36 70 83 158q-3 3 -7 5q-6 4 -13 4
q-56 0 -114 -15q-88 -26 -153 -76q-87 -66 -87 -147q0 -78 84 -106q24 -8 60 -13q24 -4 54 -6q7 19 16 38q-93 20 -93 58z" />
    <glyph glyph-name="afii10039" unicode="&#x425;" horiz-adv-x="646" 
d="M727 512q0 -52 -97 -173q-73 -91 -144 -157q25 -61 55 -108q47 -75 85 -75q32 0 40 52q2 14 11 14t9 -10q0 -32 -22 -57t-53 -25q-49 0 -99 67q-35 46 -61 110q-99 -87 -200 -145q-132 -75 -231 -75q-76 0 -76 52q0 39 46 88q35 38 80 65q9 5 13 5q7 0 7 -5q0 -8 -16 -22
q-97 -81 -97 -131q0 -31 48 -31q161 0 413 231q-44 126 -44 261v28q1 8 13.5 21t20.5 13q6 0 6 -7q0 7 0 -32q0 -134 40 -251l29 29q45 45 104 124q75 98 75 132q0 14 -15 14q-14 0 -38.5 -10.5t-26.5 -10.5q-5 0 -5 5q0 14 42 29q37 13 57 13q31 0 31 -28z" />
    <glyph glyph-name="afii10040" unicode="&#x426;" horiz-adv-x="689" 
d="M779 521q0 -2 -2 -4q-96 -166 -134 -269q-56 -153 -51 -186q0 -60 26 -60q10 0 25.5 14t18.5 14q9 0 9 -9q0 -13 -26.5 -28.5t-40.5 -15.5q-47 0 -47 75q-5 27 56 209q-60 -81 -119 -162q-92 -113 -143 -113q-64 0 -64 62q0 53 48 158q39 76 77 153q21 45 21 75
q0 59 -74 59q-82 0 -183 -59.5t-134 -132.5q-18 -39 -18 -63q0 -31 35 -31q8 0 23.5 3t22.5 3q8 0 8 -5q0 -12 -28 -20q-21 -5 -38 -5q-63 0 -63 52q0 23 13 51q41 88 160 160q116 71 215 71q98 0 98 -80q0 -39 -28 -98q-34 -66 -96 -201q-24 -63 -24 -94q0 -29 21 -29
q52 0 143 113q66 83 138 200q15 24 42 73q16 37 53 105q6 8 23 14t28 6q9 0 9 -5zM489 -167q5 14 17 15q1 2 24 -11.5t40 -11.5q47 7 68 68q22 59 13 124l4 6q22 2 19 -66q-3 -61 -17 -100q-22 -62 -78 -71q-20 -1 -56 12q-40 16 -34 35z" />
    <glyph glyph-name="afii10041" unicode="&#x427;" horiz-adv-x="689" 
d="M623 305q-3 2 -62 -79q-92 -113 -143 -113q-64 0 -64 62q0 53 48 158q31 71 31 101q0 59 -74 59q-82 0 -183 -59.5t-134 -132.5q-18 -39 -18 -63q0 -31 35 -31q8 0 23.5 3t22.5 3q8 0 8 -5q0 -12 -28 -20q-21 -5 -38 -5q-63 0 -63 52q0 23 13 51q41 88 160 160
q116 71 215 71q98 0 98 -80q0 -39 -28 -98q-9 -18 -31 -77.5t-22 -90.5q0 -29 21 -29q52 0 143 113q66 83 97.5 133t53 88t38.5 44t28 6q9 0 9 -5q0 -2 -2 -4q-96 -166 -134 -269q-56 -153 -56 -245q0 -60 26 -60q10 0 25.5 14t18.5 14q9 0 9 -9q0 -13 -26.5 -28.5
t-40.5 -15.5q-47 0 -47 75q5 167 71 312z" />
    <glyph glyph-name="afii10042" unicode="&#x428;" horiz-adv-x="914" 
d="M681 334q-3 -6 -6 -11.5t-7 -12.5q0 -1 -0.5 -1.5t-0.5 -1.5q-2 -5 -4 -7q-15 -30 -34.5 -70t-42.5 -92q-24 -63 -24 -94q0 -29 21 -29q51 0 143 113q33 42 67 91.5t70 108.5q8 12 18 30t24 43q8 19 21 45t32 60q6 8 23 14t28 6q9 0 9 -5q0 -2 -2 -4q-35 -61 -62.5 -113
t-47.5 -97q-7 -16 -13 -30.5t-11 -28.5q-56 -153 -51 -186q0 -60 26 -60q9 0 25 14q17 14 19 14q9 0 9 -9q0 -13 -27 -28q-25 -16 -40 -16q-47 0 -47 75q-5 27 57 209q-30 -41 -60 -81t-59 -81q-92 -113 -143 -113q-64 0 -64 62q0 53 48 158q2 3 3.5 6l3.5 7
q-23 -30 -44.5 -60t-43.5 -60q-92 -113 -143 -113q-64 0 -64 62q0 53 48 158q20 38 39 76.5t38 76.5q21 45 21 75q0 59 -74 59q-83 0 -183 -60q-101 -59 -134 -132q-18 -39 -18 -63q0 -31 35 -31q8 0 23.5 3t22.5 3q8 0 8 -5q0 -13 -28 -20q-23 -5 -38 -5q-63 0 -63 52
q0 24 13 51q40 87 160 160q116 71 215 71q98 0 98 -80q0 -41 -28 -98q-35 -66 -96 -201q-24 -63 -24 -94q0 -29 21 -29q51 0 143 113q65 81 138 200q8 12 18 30t24 43q8 19 21 45t32 60q6 8 23 14t28 6q9 0 9 -5q0 -2 -2 -4q-60 -103 -97 -182z" />
    <glyph glyph-name="afii10043" unicode="&#x429;" horiz-adv-x="914" 
d="M681 334q-3 -6 -6 -11.5t-7 -12.5q0 -1 -0.5 -1.5t-0.5 -1.5q-2 -5 -4 -7q-15 -30 -34.5 -70t-42.5 -92q-24 -63 -24 -94q0 -29 21 -29q51 0 143 113q33 42 67 91.5t70 108.5q8 12 18 30t24 43q8 19 21 45t32 60q6 8 23 14t28 6q9 0 9 -5q0 -2 -2 -4q-35 -61 -62.5 -113
t-47.5 -97q-7 -16 -13 -30.5t-11 -28.5q-56 -153 -51 -186q0 -60 26 -60q9 0 25 14q17 14 19 14q9 0 9 -9q0 -13 -27 -28q-25 -16 -40 -16q-47 0 -47 75q-5 27 57 209q-30 -41 -60 -81t-59 -81q-92 -113 -143 -113q-64 0 -64 62q0 53 48 158q2 3 3.5 6l3.5 7
q-23 -30 -44.5 -60t-43.5 -60q-92 -113 -143 -113q-64 0 -64 62q0 53 48 158q20 38 39 76.5t38 76.5q21 45 21 75q0 59 -74 59q-83 0 -183 -60q-101 -59 -134 -132q-18 -39 -18 -63q0 -31 35 -31q8 0 23.5 3t22.5 3q8 0 8 -5q0 -13 -28 -20q-23 -5 -38 -5q-63 0 -63 52
q0 24 13 51q40 87 160 160q116 71 215 71q98 0 98 -80q0 -41 -28 -98q-35 -66 -96 -201q-24 -63 -24 -94q0 -29 21 -29q51 0 143 113q65 81 138 200q8 12 18 30t24 43q8 19 21 45t32 60q6 8 23 14t28 6q9 0 9 -5q0 -2 -2 -4q-60 -103 -97 -182zM727 -174q5 14 17 15
q1 2 24 -11.5t40 -11.5q47 7 68 68q22 59 13 124l4 6q22 2 19 -66q-3 -61 -17 -100q-22 -62 -78 -71q-20 -1 -56 12q-40 16 -34 35z" />
    <glyph glyph-name="afii10047" unicode="&#x42d;" horiz-adv-x="587" 
d="M529 165q15 23 28.5 52t24 59t16.5 58.5t4 50.5q-4 49 -25.5 81.5t-63.5 48.5q-67 26 -127 -12q-29 -21 -47.5 -52t-26.5 -74q-1 -8 -10 -13q-20 -14 -34 -8q-5 2 -5 7q-1 15 5 32t17 37q30 47 77 77q98 63 185 27q101 -41 107 -143q4 -48 -16.5 -103t-55.5 -108
t-81 -98.5t-93 -73.5q-43 -27 -85 -43.5t-84 -21.5q-69 -12 -130 10q-75 31 -94 103q-20 69 6 146q2 5 6 6q16 10 28 6q2 -2 2 -4q-45 -173 78 -221q50 -20 115 -7q71 8 147 53q39 26 72.5 57.5t59.5 70.5zM604 200q37 2 34 3q5 -2 8 -9q8 -29 -7 -31q-5 -2 -15 -2.5
t-29 0.5q-17 1 -38.5 2.5t-44 4t-43 5.5t-34.5 6q-118 23 -128 54q-3 14 8 11q5 -1 16 -4t25 -9t25 -9t19 -4q19 -5 44 -8t53 -5t55.5 -3.5t51.5 -1.5z" />
    <glyph glyph-name="afii10048" unicode="&#x42e;" horiz-adv-x="1283" 
d="M724 212q-54 17 -139 26q-32 -60 -76.5 -113.5t-102.5 -101.5q-130 -109 -250 -109q-69 0 -118 33q-56 38 -56 104q0 123 203 180q138 38 304 38q18 0 33.5 -0.5t29.5 -1.5q52 128 52 191q0 39 -25 39q-13 0 -33 -11t-22 -11q-6 0 -6 9q0 12 33 26q30 12 48 12
q46 0 46 -65q0 -70 -48 -194q45 -6 87 -17t66 -19q0 -1 1 -1q3 5 6.5 9t6.5 9q-32 25 -32 70q0 71 66 134q13 12 23 20.5t20 15t21.5 13.5t28.5 16q105 38 208 38q97 0 163 -36q83 -47 83 -135q0 -71 -56 -151q-70 -103 -205 -171q-134 -68 -258 -68q-131 0 -131 105
q0 32 15 70q6 10 12 20.5t14 21.5q-10 4 -12 5zM752 157q-17 -34 -17 -62q0 -40 28.5 -62t70.5 -22q120 0 240 72q112 67 184 171q54 78 54 141q0 71 -64 105q-50 28 -128 28q-100 0 -214 -45q-25 -8 -52.5 -26.5t-50.5 -42t-38 -50t-15 -50.5q0 -39 25 -57q17 20 35.5 39.5
t39.5 39.5q93 85 176 120q21 8 39 13t33 6h2q12 1 12 -9t-14 -13q-36 -6 -69 -23q-19 -10 -39.5 -24t-43.5 -32q-27 -20 -54 -44.5t-55 -53.5q-16 -16 -28 -31h12q68 0 141 70l28 29q5 0 5 -7q-30 -49 -78 -77q-52 -32 -102 -32q-5 0 -10 -0.5t-10 0.5q-4 -5 -7 -9.5
t-6 -9.5q20 -13 32 -26t12 -26q0 -8 -5.5 -17t-12.5 -9q-12 0 -12 12q0 3 3 7t3 8q0 5 -10 13.5t-23 16.5q-11 -17 -17 -31zM539 241q-11 1 -24.5 1.5t-27.5 0.5q-151 0 -280 -36q-190 -52 -190 -163q0 -53 46 -81q38 -25 93 -25q108 0 226 103q101 89 157 200z" />
    <glyph glyph-name="afii10049" unicode="&#x42f;" horiz-adv-x="683" 
d="M600 245q-38 -43 -62.5 -70.5t-50 -49.5t-57.5 -43.5t-83 -52.5q-29 -18 -63 -33.5t-68 -26.5t-66 -15t-56 1q-45 10 -71 36q-31 31 -21 74q13 69 125 132q15 9 34.5 16.5t37 11.5t29 1t8.5 -15q-2 -7 -16 -8q-30 -5 -61 -17t-57 -31t-45.5 -45t-26.5 -58q-11 -51 27 -72
t109.5 -4t167 75.5t199.5 165.5q-60 -24 -108.5 -20.5t-82.5 25t-51 57t-13.5 75.5t29 81t77.5 73q66 42 123.5 39t98.5 -39q38 -34 44.5 -91.5t-30.5 -128.5q19 10 31.5 23t24 25.5t24.5 22t32 12.5q12 3 14 -6q0 -3 -4 -10q-7 -12 -16.5 -29t-19.5 -35t-18.5 -35.5
t-13.5 -31.5l-8 -22q-17 -57 -25.5 -101.5t-9.5 -75.5q-1 -29 12 -29q14 3 31 17q21 15 22 14q13 3 13 -7q0 -12 -25 -24q-26 -15 -39 -18q-46 -6 -49 50q0 61 31 175q2 11 9 34.5t16 49.5q-5 -5 -17.5 -16.5t-34.5 -25.5zM412 492q-22 -10 -42 -27.5t-35 -40t-22.5 -48.5
t-4.5 -53q3 -29 19 -53t48.5 -35t82.5 -5t121 36q43 80 41.5 134t-31.5 82t-78.5 30.5t-98.5 -20.5z" />
    <glyph glyph-name="afii10065" unicode="&#x430;" horiz-adv-x="288" 
d="M350 112q0 -5 -6 -14q-44 -71 -83 -91q-18 -9 -36 -9q-61 0 -61 86q0 14 2 30q-67 -119 -119 -119q-31 0 -31 34q0 52 50 125.5t97 89.5q17 7 33 7q36 0 52 -25q3 -5 3 -7q0 -1 -7 -3t-10 -7q-24 -39 -24 -117q0 -72 31 -72q22 0 62.5 48.5t43.5 48.5t3 -5zM203 217
q-4 1 -9 1q-40 0 -83 -51q-61 -74 -61 -121q0 -21 14 -21q22 0 57 46q49 62 82 146z" />
    <glyph glyph-name="afii10066" unicode="&#x431;" horiz-adv-x="243" 
d="M459 443q-14 -19 -49 -33t-107 -19q-41 -2 -77 -28.5t-71 -86.5q-17 -29 -27.5 -47.5t-17.5 -33t-12 -27.5t-10 -31q25 45 61 86q48 55 85 55q30 0 30 -43q0 -62 -39 -141q-26 -54 -68 -94q-50 -47 -102 -47q-40 0 -40 15q0 6 6 6q3 0 14.5 -3.5t19.5 -3.5q45 0 89 51
q33 39 54 91q19 45 19 99q0 33 -15 33q-33 0 -88 -91q-52 -85 -52 -127q0 -11 7.5 -17t7.5 -10t-5 -4q-37 0 -37 54q0 39 20 94.5t54 111t77 102t90 67.5q24 10 45 16t38.5 9.5t31.5 6.5t25 8q15 6 25.5 12.5t16.5 7.5t6.5 -7.5t-5.5 -30.5z" />
    <glyph glyph-name="afii10067" unicode="&#x432;" horiz-adv-x="243" 
d="M150 276q-17 -27 -34.5 -65.5t-27.5 -73.5q25 45 61 86q48 55 85 55q30 0 30 -43q0 -62 -39 -141q-26 -54 -68 -94q-50 -47 -102 -47q-40 0 -40 15q0 6 6 6q3 0 14.5 -3.5t19.5 -3.5q45 0 89 51q33 39 54 91q19 45 19 99q0 33 -15 33q-33 0 -88 -91q-52 -85 -52 -127
q0 -11 7.5 -17t7.5 -10t-5 -4q-37 0 -37 54q0 38 18.5 98.5t56.5 138.5q32 63 111 189q122 195 199 195q45 0 45 -41q0 -72 -126 -201q-81 -82 -189 -149zM446 608q0 21 -17 22q-26 0 -81 -44q-97 -77 -167 -236q-11 -27 -16 -42q72 42 166 135q113 109 115 165z" />
    <glyph glyph-name="afii10068" unicode="&#x433;" horiz-adv-x="257" 
d="M197 142q-15 -12 -25 -27t-15.5 -30t-7.5 -28t-2 -22q0 -34 33 -32q14 1 23 5t26 21l80 107q11 -5 8 -9t-11 -12q-38 -62 -70 -96.5t-70 -36.5q-24 1 -45.5 11t-26.5 35q-4 15 3 30.5t20.5 32t32.5 35.5t39 42q16 13 15.5 26.5t-11.5 20.5t-28.5 4t-34.5 -22
q-9 -10 -15.5 -18t-11.5 -16t-10 -16.5t-12 -19.5q-36 -55 -47 -55q-4 0 -5 4q1 1 2 3.5l3 7.5q12 15 24 34.5t26 40t31.5 40t40.5 34.5q37 13 60.5 12t30 -14t-5.5 -36.5t-44 -55.5z" />
    <glyph glyph-name="afii10069" unicode="&#x434;" horiz-adv-x="262" 
d="M255 220q0 -4 -9 -7t-12 -9q-5 -22 -11 -51q-12 -51 -35 -153h4q53 2 53 -23q0 -6 -4 -6q-1 0 -8.5 5t-28.5 5q-10 0 -20 -1q-37 -150 -95 -233q-108 -158 -230 -158q-48 0 -80.5 28t-32.5 75q0 107 152 205q129 83 250 102q7 38 23 115q-67 -119 -119 -119q-31 0 -31 34
q0 51 50 125t97 90q18 7 33 7q14 0 34 -9.5t20 -21.5zM208 217q-4 1 -9 1q-40 0 -83 -51q-61 -74 -61 -121q0 -21 14 -21q22 0 57 46q49 62 82 146zM147 -19q-66 -11 -157 -57t-140 -92q-75 -72 -75 -143q0 -39 24.5 -62.5t63.5 -23.5q62 0 122 52q48 41 85 105
q53 90 77 221z" />
    <glyph glyph-name="afii10070" unicode="&#x435;" horiz-adv-x="203" 
d="M263 108q0 -2 -2 -6q-25 -39 -75 -72q-53 -35 -97 -35q-63 0 -63 79q0 52 45 114q48 66 99 66q10 0 17.5 -9t7.5 -19q0 -31 -47 -75q-42 -39 -77 -52q-7 -25 -7 -42q0 -41 37 -41q35 0 79 29q38 25 65 57q7 10 14 10q4 0 4 -4zM165 214q0 12 -12 12q-15 0 -44 -46
q-25 -39 -31 -61q26 11 54 39q33 32 33 56z" />
    <glyph glyph-name="afii10072" unicode="&#x436;" horiz-adv-x="541" 
d="M41 120q-11 -12 -17 -12q-4 0 -4 3t6 11q11 21 23.5 41t28 35t34 24.5t40.5 9.5q74 0 74 -79q0 -19 -8 -39l4 4q62 43 80 89q3 10 0 19q-1 4 -2 7t1 4.5t8 0t19 -7.5q27 -11 7 -73q-1 -5 -4 -12t-6 -15t-6 -15t-4 -11q-6 -16 -9.5 -23.5t-7.5 -20.5q38 30 53 38
q11 37 50 80q56 59 103 59q32 0 32 -25q0 -10 -15 -35q-14 -24 -23 -24q-4 0 -4 5q0 4 3.5 13t3.5 14q0 21 -26 21q-36 0 -65 -47q-27 -44 -27 -81q0 -62 54 -62q68 0 142 93q10 12 17 12q4 0 4 -3q0 -4 -6 -11q-34 -50 -97 -93q-37 -23 -76 -23q-74 0 -74 79v8
q-53 -39 -69 -81q-2 -5 3 -9t7 -9q1 -4 2 -7t-1.5 -4.5t-8.5 0t-18 7.5q-27 10 -7 73q2 9 7.5 21.5t7.5 20.5q6 16 9.5 29t6.5 26q-56 -45 -66 -42q-4 0 -5 4q-13 -30 -43 -62q-56 -59 -103 -59q-32 0 -32 25q0 9 15 35q13 24 23 24q4 0 4 -5q0 -4 -3.5 -13t-3.5 -14
q0 -21 26 -21q36 0 65 47q27 43 27 81q0 62 -54 62q-17 0 -29.5 -6t-23 -17.5t-20 -27t-20.5 -34.5z" />
    <glyph glyph-name="afii10073" unicode="&#x437;" horiz-adv-x="336" 
d="M325 -23q0 -6 -3 -6q-2 0 -9 5t-28 5q-10 0 -20 -1q-2 -97 -95 -233q-108 -158 -231 -158q-48 0 -80 28t-32 75q0 107 152 205q129 83 249 102q-1 63 -49 63q-10 0 -30.5 -9.5t-27.5 -9.5q-13 0 -13 12q0 6 9 15q108 99 108 133q0 22 -25 22q-61 0 -128 -107
q-7 -10 -10 -10q-4 0 -4 5t4 12q22 46 58 78q42 37 86 37q54 0 54 -45q0 -49 -80 -113h3q33 1 56.5 -23.5t26.5 -58.5h4q47 1 54 -14q1 -4 1 -9zM228 -19q-67 -11 -158 -57t-139 -92q-76 -72 -76 -143q0 -39 24.5 -62.5t64.5 -23.5q114 0 207 157q75 127 77 221z" />
    <glyph glyph-name="afii10074" unicode="&#x438;" horiz-adv-x="291" 
d="M359 119q0 -7 -6 -17q-28 -46 -65 -80q-48 -44 -90 -44q-56 0 -56 70q0 16 15 63q-35 -51 -45 -63q-33 -39 -59 -39q-33 0 -33 56q0 32 21 77q23 52 50 52q15 0 15 -8q0 -1 -25.5 -45.5t-25.5 -68.5q0 -32 19 -32q32 0 115 146q7 14 21 39q7 8 15 8q9 0 16.5 -7.5
t7.5 -17.5q0 1 -35.5 -67t-35.5 -105q0 -35 33 -35q28 0 64 32q24 21 54 60q25 32 27 32q3 0 3 -6z" />
    <glyph glyph-name="afii10075" unicode="&#x439;" horiz-adv-x="291" 
d="M359 119q0 -7 -6 -17q-28 -46 -65 -80q-48 -44 -90 -44q-56 0 -56 70q0 16 15 63q-35 -51 -45 -63q-33 -39 -59 -39q-33 0 -33 56q0 32 21 77q23 52 50 52q15 0 15 -8q0 -1 -25.5 -45.5t-25.5 -68.5q0 -32 19 -32q32 0 115 146q7 14 21 39q7 8 15 8q9 0 16.5 -7.5
t7.5 -17.5q0 1 -35.5 -67t-35.5 -105q0 -35 33 -35q28 0 64 32q24 21 54 60q25 32 27 32q3 0 3 -6zM328 359q-2 -1 -4 -5q-68 -75 -133 -65q-55 9 -57 62q1 10 3 17q3 10 8 9t8 -17q5 -19 13 -29q12 -17 38 -21q51 -9 108 47q7 8 12 7q4 -1 4 -5z" />
    <glyph glyph-name="afii10076" unicode="&#x43a;" horiz-adv-x="364" 
d="M470 546q0 -72 -126 -201q-81 -82 -192 -166q-20 -42 -33 -81l99 99q74 70 109 70q26 0 26 -38q0 -39 -54 -76q-50 -35 -90 -33q21 -96 80 -96q58 0 127 91q6 9 12 9q5 0 5 -5q0 -4 -4 -10q-24 -35 -68 -74q-53 -48 -83 -48q-37 0 -74 51q-34 46 -39 86q-24 -28 -47 -55
q-23 -30 -30 -69q-11 -5 -23 -5q-22 0 -22 10q0 23 42 119q62 142 141 268q122 195 199 195q45 0 45 -41zM447 532q0 21 -17 21q-26 0 -80 -46q-95 -79 -161 -240q-15 -37 -15 -43q71 44 163 140q110 112 110 168zM310 214q0 20 -13 20q-20 0 -109 -93q4 -8 18 -8
q30 0 67 26.5t37 54.5z" />
    <glyph glyph-name="afii10077" unicode="&#x43b;" horiz-adv-x="397" 
d="M267 170q-33 -43 -63 -81t-50 -58q-28 -27 -53 -35t-42 0.5t-24.5 33t-0.5 63.5q3 19 11 26t17 7t16 -5.5t9 -12.5q-16 -41 -15.5 -66t14 -30t37.5 11.5t54 58.5q6 8 22.5 30.5t45.5 54.5q10 12 19 22t29 32q7 7 16 7q23 0 23 -23q0 -5 -4 -12q-56 -92 -56 -146
q0 -38 36 -38q28 0 60 29q22 19 47 54q21 29 24 29t3 -6q0 -7 -6 -17q-68 -113 -141 -113q-57 0 -57 72q0 63 29 113z" />
    <glyph glyph-name="afii10078" unicode="&#x43c;" horiz-adv-x="479" 
d="M240 176q-20 -42 -43 -83.5t-43 -61.5q-28 -27 -53 -35t-42 0.5t-24.5 33t-0.5 63.5q3 19 11 26t17 7t16 -5.5t9 -12.5q-16 -41 -15.5 -66t14 -30t37.5 11.5t54 58.5q11 15 25.5 42t29.5 78q37 19 53 18.5t17.5 -13t-7.5 -34t-20 -45t-20.5 -45t-9.5 -34.5q3 4 11 14.5
t20 25t26.5 31.5t30.5 34q20 23 62 68q4 4 9 7t9 3q23 0 23 -23q0 -5 -4 -12q-56 -92 -56 -146q0 -38 36 -38q28 0 60 29q22 19 47 54q21 29 24 29t3 -6q0 -7 -6 -17q-68 -113 -141 -113q-57 0 -57 72q0 32 6.5 58.5t20.5 51.5q-20 -19 -36.5 -38t-37.5 -45q-9 -12 -18 -25
t-18 -23t-18 -15t-19 1q-11 7 -6.5 30t14 49t18.5 47t6 24q0 5 -7 5t-7 -5z" />
    <glyph glyph-name="afii10079" unicode="&#x43d;" horiz-adv-x="286" 
d="M185 174q3 3 6 10t6.5 15t7 15.5t6.5 10.5q7 7 16 7q23 0 23 -23q0 -5 -4 -12q-56 -92 -56 -146q0 -38 36 -38q28 0 60 29q22 19 47 54q21 29 24 29t3 -6q0 -7 -6 -17q-68 -113 -141 -113q-57 0 -57 72q0 40 12 75q-24 -6 -49 -14t-52 -19q-2 -8 -5 -15.5t-5 -15.5
q-8 -47 -18 -64t-23 -17q-9 0 -9 18q0 4 2 8q11 26 22 61.5t22 83.5q2 8 4 19.5t6 27.5q3 7 14 14t20 7q7 0 7 -6q0 -5 -8 -30.5t-23 -73.5q14 5 34 11.5t47 14.5q7 1 20 6q5 11 11 22z" />
    <glyph glyph-name="afii10080" unicode="&#x43e;" horiz-adv-x="229" 
d="M291 108q0 -2 -2 -4q-14 -24 -42.5 -41t-55.5 -17q-20 0 -37 10q-46 -73 -95 -73q-35 0 -35 41q0 57 50 134q-2 11 -2 22q0 36 24 70t59 34q23 0 37 -27q11 -23 11 -48q0 -54 -42 -137q15 -9 34 -9q33 0 62 26t27 26q7 0 7 -7zM173 184q0 22 -7 45q-10 32 -26 32
q-23 0 -36 -28q-10 -22 -9 -48q16 19 32 19q15 0 22 -10v-5q1 -3 1 -5q0 -3 -10 -3q-18 0 -38 -38q13 -38 46 -62q25 63 25 103zM140 67q-33 22 -50 51q-30 -63 -30 -91q0 -20 15 -20q14 0 37 24q20 19 28 36z" />
    <glyph glyph-name="afii10081" unicode="&#x43f;" horiz-adv-x="278" 
d="M343 119q0 -7 -6 -17q-68 -113 -141 -113q-57 0 -57 72q0 64 29 113q-70 -63 -143 -174q-6 -9 -9 -9q-9 0 -9 18q0 5 2 8q21 51 44 145q3 16 10 47q3 7 14 14t20 7q7 0 7 -6q0 -10 -47 -152q12 16 75 85q21 24 62 68q8 7 16 7q23 0 23 -23q0 -5 -4 -12q-56 -92 -56 -146
q0 -38 36 -38q28 0 60 29q21 18 47 54q21 29 24 29t3 -6z" />
    <glyph glyph-name="afii10082" unicode="&#x440;" horiz-adv-x="327" 
d="M392 119q0 -7 -6 -17q-26 -43 -86 -86q-64 -48 -108 -48q-9 0 -27 1h-26q-4 0 -30 7q-31 -80 -84 -168q-75 -122 -122 -122q-25 0 -25 37q0 49 90 182q64 88 129 177v6q0 36 -1 63q-38 -62 -48 -62q-6 0 -6 7q0 4 3 8q44 62 44 111q0 10 -5.5 16.5t-5.5 10.5t31 4
q34 0 34 -68q0 -10 -1.5 -29.5t-1.5 -28.5q28 51 62 94q52 64 87 64q32 0 32 -47q0 -59 -41.5 -137t-90.5 -109q87 2 193 135q4 5 6 5q4 0 4 -6zM277 210q0 31 -17 31q-5 0 -10 -2q-36 -16 -76 -93q-30 -57 -48 -117q10 -15 35 -38q44 19 81 95q35 72 35 124zM88 28
q-1 1 -2 1q-4 0 -11 -10q-24 -36 -72 -106q-21 -30 -53 -91q-37 -71 -37 -92q0 -9 6 -9q44 0 121 144q20 38 43 131q-1 5 -1 10q0 12 6 22z" />
    <glyph glyph-name="afii10083" unicode="&#x441;" horiz-adv-x="220" 
d="M289 118q0 -4 -6 -11q-35 -51 -97 -93q-36 -23 -76 -23q-74 0 -74 79q0 49 54.5 108t102.5 59q32 0 32 -25q0 -10 -14.5 -34.5t-23.5 -24.5q-4 0 -4 5q0 4 3.5 13t3.5 14q0 21 -26 21q-36 0 -65 -47q-27 -43 -27 -81q0 -62 54 -62q68 0 142 93q10 12 17 12q4 0 4 -3z" />
    <glyph glyph-name="afii10084" unicode="&#x442;" horiz-adv-x="382" 
d="M446 110q0 -4 -2 -6q-25 -35 -56 -65q-43 -40 -72 -40q-47 0 -47 104q0 16 1 36q-36 -32 -81 -115q-15 -28 -33 -28q-6 0 -9 4q-3 11 -3 28q0 29 13 106q7 39 7 50q0 8 -3 8q-17 -15 -55 -65q-41 -54 -88 -127q-6 -9 -10 -9q-8 0 -8 18q0 5 1 8q23 54 47 152q2 14 8 40
q2 7 13.5 14t19.5 7q7 0 7 -6q0 -10 -47 -152q36 48 74 99l36 48q15 18 31 18t16 -18q0 -13 -7 -51.5t-16 -112.5q28 40 87 117q16 19 32 19q15 0 15 -19q0 -16 -5 -47.5t-5 -47.5q0 -52 27 -52q38 0 97 84q6 10 10 10q5 0 5 -9zM345 296q-126 30 -185 -3q-11 -6 -18 -19
q-3 -7 -3 -19t-3 -18l-4 -3q-10 -7 -8.5 14.5t9.5 36.5q10 23 34 35q44 26 116 20q18 0 121 -17q63 -11 83 0q12 7 17 18q6 13 2.5 24t0.5 19l2 1q8 5 7.5 -20t-6.5 -37q-15 -29 -32 -40q-25 -14 -79 -5q-6 3 -24 5q-8 0 -30 8z" />
    <glyph glyph-name="afii10085" unicode="&#x443;" horiz-adv-x="274" 
d="M264 -23q0 -6 -3 -6q-1 0 -9 5t-29 5q-10 0 -19 -1q-38 -150 -95 -233q-108 -158 -231 -158q-48 0 -80.5 28t-32.5 75q0 107 153 205q128 83 249 102q14 62 32 184q-12 -29 -43 -76.5t-53 -70.5q-26 -27 -49 -27q-32 0 -32 56q0 32 20 77q23 52 51 52q14 0 14 -8
q0 -1 -25 -45.5t-25 -68.5q0 -32 18 -32q31 0 135 201q2 15 25 15q18 0 18 -8q0 -13 -13 -85q-15 -85 -33 -163h4q53 2 53 -23zM166 -19q-66 -11 -157 -57t-139 -92q-76 -72 -76 -143q0 -39 24.5 -62.5t64.5 -23.5q61 0 121 52q48 41 85 105q53 90 77 221z" />
    <glyph glyph-name="afii10086" unicode="&#x444;" horiz-adv-x="405" 
d="M88 -379q-6 23 -9.5 35.5t-4.5 21.5t-1 17v23q0 81 46 215q13 40 26.5 77t29.5 72q-18 -22 -44 -45q-50 -46 -90 -46q-31 0 -31 36q0 52 42 118q14 23 31.5 43t39.5 37q52 39 108 39q22 0 31 -4q10 19 20.5 39.5t21.5 43.5q29 60 37 73q22 42 43 68q16 18 33 18
q24 0 24 -21q0 -5 -3 -11q-4 -9 -25.5 -34t-60.5 -84q-35 -53 -62 -101.5t-52 -105.5l-1 -2q49 63 79 90q52 46 90 46q32 0 32 -36q0 -52 -42 -118q-14 -23 -31.5 -43t-39.5 -37q-53 -39 -108 -39q-32 0 -39 7q-21 -51 -37.5 -100t-23 -95.5t-1 -90t27.5 -81.5q5 -14 -1 -27
t-16 -19t-21.5 -2.5t-17.5 23.5zM197 20q6 -1 11 -1.5t9 -0.5q48 0 95 42q34 33 57 77q20 42 20 83q0 28 -17 28q-35 0 -93 -76q-55 -73 -55 -107q0 -9 9 -14.5t9 -8.5t-6 -3q-28 0 -36 23l-18 -39q4 0 15 -3zM256 248q-1 1 -6 1q-11 3 -19 3q-49 0 -95 -43q-34 -31 -57 -76
q-20 -42 -20 -83q0 -28 17 -28q35 0 92 76q55 73 55 107q0 9 -8.5 14.5t-8.5 7.5q0 4 6 4q19 0 30 -12q3 7 6.5 14z" />
    <glyph glyph-name="afii10087" unicode="&#x445;" horiz-adv-x="245" 
d="M315 121q0 -4 -7 -14q-67 -105 -110 -105q-31 0 -74 92q-9 -7 -61.5 -58.5t-55.5 -51.5q-4 0 -4 4q0 8 51 60q56 57 62 66q-6 24 -20 45q-3 -11 -22.5 -40.5t-25.5 -29.5t-6 7q0 1 15.5 26.5t15.5 43.5q0 1 -3 16q-1 1 -1 3q0 17 32 17q15 0 32 -26q14 -22 18 -41
q2 1 65 48q51 37 60 37q4 0 4 -3q0 -5 -54 -46q-57 -44 -65 -56q10 -23 21 -47q15 -31 33 -31q23 0 57 43.5t40 43.5q3 0 3 -3z" />
    <glyph glyph-name="afii10088" unicode="&#x446;" horiz-adv-x="241" 
d="M68 -114q5 11 15 11q0 2 18 -10q17 -13 31 -11q38 2 59 50q18 40 16 88q-29 -17 -48 -6t-19 40q0 14 4 31t11 29q-17 -24 -27.5 -39t-15.5 -21q-33 -39 -59 -39q-33 0 -33 56q0 32 21 77q22 52 50 52q15 0 15 -8l-26 -46q-25 -43 -25 -68q0 -32 19 -32q29 0 98 117
q10 18 18.5 31t17.5 37q8 8 15 8q9 0 16.5 -7.5t7.5 -17.5l-36 -67q-35 -68 -35 -103q0 -11 3 -16.5t10 -4t19 12t31 31.5q5 6 7 -2t-12 -23l-7.5 -7.5t-6.5 -5.5q6 -13 2 -48q-2 -24 -7 -43.5t-12 -35.5q-20 -47 -65 -52q-17 0 -45 12q-32 17 -25 30z" />
    <glyph glyph-name="afii10089" unicode="&#x447;" horiz-adv-x="295" 
d="M362 119q0 -8 -6 -17q-78 -124 -155 -124q-56 0 -56 65q0 62 42 131q-6 -2 -13 -2q-16 0 -31 10q-18 11 -18 25q-11 -25 -41 -71q-37 -58 -49 -58q-4 0 -4 4t5 11q39 53 79 137q-2 9 -2 22q0 23 9 53q10 38 27 38q11 0 19 -18q7 -14 7 -27q0 -25 -41 -73q9 -31 35 -31
q18 0 35 19.5t24 19.5q9 0 16 -7.5t7 -17.5q0 1 -35 -67t-35 -105q0 -35 33 -35q28 0 64 32q23 21 54 60q25 32 26 32q4 0 4 -6z" />
    <glyph glyph-name="afii10090" unicode="&#x448;" horiz-adv-x="439" 
d="M306 112q-17 -26 -30 -42t-18 -22q-33 -39 -59 -39q-33 0 -33 56q0 14 3 29q-12 -18 -20 -29.5t-13 -16.5q-33 -39 -59 -39q-33 0 -33 56q0 32 21 77q22 52 50 52q15 0 15 -8l-26 -46q-25 -43 -25 -68q0 -32 19 -32q26 0 87 97q0 1 2 5q10 24 23 39q1 2 2 3t2 3l-2 -5
q12 12 25 12q15 0 15 -8l-26 -46q-25 -43 -25 -68q0 -32 19 -32q32 0 115 146l21 39q8 8 15 8q9 0 16.5 -7.5t7.5 -17.5l-36 -67q-35 -68 -35 -105q0 -35 33 -35q27 0 64 32q24 21 54 60q26 32 27 32q3 0 3 -6q0 -7 -6 -17q-28 -46 -65 -80q-49 -44 -90 -44q-56 0 -56 70
q0 8 5 24.5t13 39.5z" />
    <glyph glyph-name="afii10091" unicode="&#x449;" horiz-adv-x="397" 
d="M382 36q-20 -20 -37 -27t-29.5 -4.5t-20 14t-7.5 29.5q0 8 5 24.5t13 39.5q-17 -26 -30 -42t-18 -22q-33 -39 -59 -39q-33 0 -33 56q0 14 3 29q-12 -18 -20 -29.5t-13 -16.5q-33 -39 -59 -39q-33 0 -33 56q0 32 21 77q22 52 50 52q15 0 15 -8l-26 -46q-25 -43 -25 -68
q0 -32 19 -32q26 0 87 97q0 1 2 5q10 24 23 39q1 2 2 3t2 3l-2 -5q12 12 25 12q15 0 15 -8l-26 -46q-25 -43 -25 -68q0 -32 19 -32q32 0 115 146l21 39q8 8 15 8q9 0 16.5 -7.5t7.5 -17.5l-36 -67q-35 -68 -35 -103q0 -11 3 -16.5t10 -4t19 12t31 31.5q5 6 7 -2t-12 -23z
M216 -114q5 11 15 11q0 2 18 -10.5t31 -10.5q38 2 59 50q20 45 16 98l4 4q18 1 11 -53q-5 -48 -19 -79q-20 -47 -65 -52q-17 0 -45 12q-32 16 -25 30z" />
    <glyph glyph-name="afii10092" unicode="&#x44a;" horiz-adv-x="397" 
d="M441 145q0 -6 -14 -19t-35.5 -26.5t-46.5 -24t-46.5 -12t-36.5 9t-16 38.5q-2 18 7.5 34.5t24 28t31.5 16.5t31.5 0t23.5 -20.5t7 -45.5q-2 -28 -18 -52t-40.5 -42.5t-53.5 -30t-56 -14.5q-58 -6 -58 58q0 62 42 131q-8 -2 -13 -2q-17 0 -31 10q-18 10 -18 25
q-5 -13 -15.5 -30.5t-25.5 -40.5q-37 -58 -49 -58q-4 0 -4 4q0 3 5 11q20 26 39.5 60.5t39.5 76.5q-1 5 -1.5 10t-0.5 12q0 23 9 53q11 38 27 38q11 0 19 -18q7 -13 7 -27q0 -24 -41 -73q9 -31 35 -31q19 0 35 19q17 20 24 20q9 0 16 -7.5t7 -17.5q0 1 -35 -67t-35 -105
q0 -35 33 -35q15 0 32 8.5t33.5 22t30.5 30t22 31.5q11 21 9.5 34.5t-10.5 19.5t-22 5.5t-24 -6.5t-17 -18t0 -28q7 -20 25.5 -22.5t42.5 6.5t48.5 26t43.5 38z" />
    <glyph glyph-name="afii10093" unicode="&#x44b;" horiz-adv-x="457" 
d="M517 116q0 -8 -7 -16q-91 -121 -155 -121q-55 0 -55 59q0 26 17 74q-32 -25 -71 -41q-12 -18 -29 -32.5t-37 -25.5t-41.5 -18t-41.5 -9q-58 -6 -58 58q0 27 10 60t25 66.5t33 63.5t34 51q4 6 11 4.5t14 -6t12 -11t5 -11.5t-4 -10q-3 -5 -11.5 -17.5t-18 -27t-18 -27.5
t-11.5 -17q-17 -34 -31 -70t-14 -55q0 -35 33 -35q21 0 47.5 17.5t46.5 40.5q-26 -2 -43.5 9t-18.5 43q-2 18 7 34.5t23.5 28t32 16.5t32 0.5t23.5 -20.5t7 -46q-1 -14 -6 -28q20 10 39 23t33 28q7 14 13.5 25.5t13.5 21.5q6 9 14 9q9 0 16.5 -8t7.5 -17q0 -6 -4 -11
q-50 -79 -50 -130q0 -36 26 -36q28 0 65 32q12 11 25.5 25t27.5 33l26 32q5 0 5 -8zM226 94q11 22 9.5 35t-10.5 19.5t-22 5.5t-24 -7.5t-17 -18t0 -27.5q5 -16 20.5 -20t36.5 1q2 3 3.5 6t3.5 6z" />
    <glyph glyph-name="afii10094" unicode="&#x44c;" horiz-adv-x="267" 
d="M109 162q-17 -34 -31 -70t-14 -55q0 -35 33 -35q21 0 47.5 17.5t46.5 40.5q-26 -2 -43.5 9t-18.5 43q-2 18 7 34.5t23.5 28t32 16.5t32 0.5t23.5 -20.5t7 -46q-1 -14 -6 -28q23 11 44 26.5t36 32.5l13 -3q-4 -10 -14.5 -21.5t-25 -22.5t-31.5 -21t-35 -17
q-12 -18 -29 -32.5t-37 -25.5t-41.5 -18t-41.5 -9q-58 -6 -58 58q0 27 10 60t25.5 66.5t33.5 64t34 51.5q4 5 11 4t14 -5.5t11.5 -11t4.5 -11.5q0 -6 -4 -11q-3 -5 -11.5 -17.5t-18 -27t-18 -27.5t-11.5 -17zM215 94q11 22 9.5 35t-10.5 19.5t-22 5.5t-24 -7.5t-17 -18
t0 -27.5q5 -16 20.5 -20t36.5 1q2 3 3.5 6t3.5 6z" />
    <glyph glyph-name="afii10095" unicode="&#x44d;" horiz-adv-x="266" 
d="M134 127q69 4 95 3q0 3 2 9q9 61 -45 66q-17 1 -30.5 -3.5t-25.5 -15t-24 -25t-26 -32.5l-2 -2q-5 -6 -10.5 -8.5t-8.5 -2.5q-3 1 -2 4q0 2 6 10q14 20 30 38.5t33.5 32.5t37 21.5t42.5 5.5q74 -6 62 -84q-8 -50 -71 -102q-65 -54 -111 -50q-31 1 -28 27q2 9 20 34
q16 22 27 21q5 0 2 -5q0 -4 -4.5 -12.5t-5.5 -13.5q-3 -22 22 -23q37 -3 72 41q11 14 19.5 26.5t13.5 25.5h-13q-22 0 -33 -1q-35 -1 -56 -5q-2 0 -10 -2.5t-12 -2.5q-4 -1 -4 6q-1 17 38 19z" />
    <glyph glyph-name="afii10096" unicode="&#x44e;" horiz-adv-x="338" 
d="M407 101q0 -2 -2 -4q-15 -22 -44.5 -38.5t-56.5 -16.5q-21 0 -39 10q-47 -69 -98 -69q-36 0 -36 39q0 46 39 107q-29 -6 -60 -15q-27 -8 -56 -18q-6 -14 -12 -29q-13 -45 -24.5 -60.5t-25.5 -15.5q-7 0 -6 17q0 5 1 7q27 47 58 137q2 8 5 18.5t8 25.5q5 7 16.5 13.5
t21.5 6.5q7 0 6 -6q0 -5 -16 -40q-9 -22 -25 -58q29 9 84 25q11 3 25 7q6 1 12 3l1 1q-3 10 -3 21q0 34 25 66t61 32q24 0 39 -26q11 -21 11 -45q0 -51 -43 -129q15 -9 35 -9q34 0 64 25t28 25q7 0 7 -7zM285 173q0 20 -7 42q-11 30 -27 30q-24 0 -37 -26q-11 -21 -10 -45
q17 17 33 17t23 -9v-5q1 -3 1 -4q0 -3 -10 -3q-19 0 -40 -36q14 -36 48 -59q26 60 26 98zM251 62q-34 21 -52 48q-31 -59 -31 -85q0 -19 16 -19q14 0 38 22q21 18 29 34z" />
    <glyph glyph-name="afii10097" unicode="&#x44f;" horiz-adv-x="393" 
d="M297 158q22 -2 22 -23q0 -2 -4 -12q-11 -23 -20.5 -40t-9.5 -36q0 -38 36 -38q28 0 60 29q22 19 47 54q21 29 24 29t3 -6q0 -7 -6 -17q-68 -113 -141 -113q-57 0 -57 72v13.5t1 12.5q4 14 11 30q-6 -2 -12 -3t-11 -1q-17 -23 -34 -43.5t-22 -25.5q-28 -27 -55 -36.5
t-47 -2.5t-29.5 30t-2.5 62q3 19 11 26t17 7t16 -5.5t9 -12.5q-16 -41 -15.5 -66t14 -30t37.5 11.5t54 58.5q6 8 18 26q-30 1 -53.5 14t-31.5 33.5t3 44t49 45.5q27 15 46 15.5t30.5 -9t16 -26t3.5 -35.5t-7 -36.5t-17 -29.5h10t10 2q14 25 20 28.5t7 3.5zM247 217
q-42 14 -60.5 4.5t-19.5 -28t14.5 -39t42.5 -27.5q9 14 16.5 29t11 27.5t3 22t-7.5 11.5z" />
    <glyph glyph-name="afii10071" unicode="&#x451;" horiz-adv-x="203" 
d="M263 108q0 -2 -2 -6q-25 -39 -75 -72q-53 -35 -97 -35q-63 0 -63 79q0 52 45 114q48 66 99 66q10 0 17.5 -9t7.5 -19q0 -31 -47 -75q-42 -39 -77 -52q-7 -25 -7 -42q0 -41 37 -41q35 0 79 29q38 25 65 57q7 10 14 10q4 0 4 -4zM165 214q0 12 -12 12q-15 0 -44 -46
q-25 -39 -31 -61q26 11 54 39q33 32 33 56zM274 352q-5 -6 -11 -14l-14 -32q-9 -23 -22 -23q-6 0 -11.5 9t-5.5 15q0 12 24.5 29.5t36.5 17.5q1 0 3 -1v-1zM176 352q-5 -6 -12 -14q-7 -16 -13 -32q-10 -23 -22 -23q-6 0 -11.5 9t-5.5 15q0 12 24 29.5t37 17.5q1 0 3 -1v-1z
" />
    <glyph glyph-name="afii10101" unicode="&#x454;" horiz-adv-x="220" 
d="M289 118q0 -4 -6 -11q-35 -51 -97 -93q-36 -23 -76 -23q-74 0 -74 79q0 49 54.5 108t102.5 59q32 0 32 -25q0 -10 -14.5 -34.5t-23.5 -24.5q-4 0 -4 5q0 4 3.5 13t3.5 14q0 21 -26 21q-36 0 -65 -47q-27 -43 -27 -81q0 -62 54 -62q68 0 142 93q10 12 17 12q4 0 4 -3z
M175 98q-95 -14 -108 -10q-4 2 -5 8q-1 5 3 5q10 2 31.5 4t32.5 4q35 4 55 10q2 0 9.5 3.5t11.5 3.5q4 1 5 -6q3 -17 -35 -22z" />
    <glyph glyph-name="afii10103" unicode="&#x456;" horiz-adv-x="179" 
d="M176 296q0 -12 -9.5 -21.5t-22.5 -9.5q-24 0 -24 24q0 12 9.5 21.5t22.5 9.5q24 0 24 -24zM243 115q0 -7 -7 -16q-91 -121 -155 -121q-55 0 -55 59q0 30 20 82q18 48 38 75q6 9 14 9q9 0 16.5 -8t7.5 -17q0 -5 -4 -11q-50 -78 -50 -130q0 -36 26 -36q29 0 65 32
q24 21 53 58q25 32 26 32q5 0 5 -8z" />
    <glyph glyph-name="afii10104" unicode="&#x457;" horiz-adv-x="179" 
d="M202 96q0 -6 -5 -13q-77 -101 -129 -101q-46 0 -46 49q0 24 21 79q23 59 38 59q21 0 21 -21q0 1 -22.5 -43t-22.5 -74t21 -30q34 0 79 50.5t41 50.5q4 0 4 -6zM215 309q-5 -6 -12 -14q-7 -16 -14 -33q-9 -22 -21 -22q-6 0 -11.5 9t-5.5 15q0 12 24 29.5t37 17.5q1 0 3 -1
v-1zM117 309q-5 -6 -12 -14q-7 -16 -14 -33q-9 -22 -22 -22q-5 0 -11 9t-6 15q0 12 24.5 29.5t37.5 17.5q1 0 2 -1q1 0 1 -1z" />
    <glyph glyph-name="afii10110" unicode="&#x45e;" horiz-adv-x="274" 
d="M264 -23q0 -6 -3 -6q-1 0 -9 5t-29 5q-10 0 -19 -1q-38 -150 -95 -233q-108 -158 -231 -158q-48 0 -80.5 28t-32.5 75q0 107 153 205q128 83 249 102q14 62 32 184q-12 -29 -43 -76.5t-53 -70.5q-26 -27 -49 -27q-32 0 -32 56q0 32 20 77q23 52 51 52q14 0 14 -8
q0 -1 -25 -45.5t-25 -68.5q0 -32 18 -32q31 0 135 201q2 15 25 15q18 0 18 -8q0 -13 -13 -85q-15 -85 -33 -163h4q53 2 53 -23zM166 -19q-66 -11 -157 -57t-139 -92q-76 -72 -76 -143q0 -39 24.5 -62.5t64.5 -23.5q61 0 121 52q48 41 85 105q53 90 77 221zM305 386
q-2 -1 -4 -5q-68 -75 -133 -65q-55 9 -57 62q1 10 3 17q3 10 8 9t8 -17q5 -19 13 -29q12 -17 38 -21q51 -9 108 47q7 8 12 7q4 -1 4 -5z" />
    <glyph glyph-name="endash" unicode="&#x2013;" horiz-adv-x="360" 
d="M278 121q0 -7 -26 -8q-69 -5 -208 -12h-5q-20 -1 -20 7q0 13 35 25q16 6 63 6q78 0 135 -8q26 -4 26 -10z" />
    <glyph glyph-name="emdash" unicode="&#x2014;" horiz-adv-x="443" 
d="M426 121q0 -7 -26 -8q-37 -1 -109 -3q-82 -4 -247 -9h-5q-20 -1 -20 7q0 13 35 25q15 6 106 6q73 0 157 -4q28 0 83 -4q26 -4 26 -10z" />
    <glyph glyph-name="quoteleft" unicode="&#x2018;" horiz-adv-x="168" 
d="M156 335q0 -3 -7 -11q-17 -19 -48 -68q17 0 17 -22q0 -29 -33 -29q-8 0 -14.5 8.5t-6.5 17.5q0 20 36 63t54 43q2 0 2 -2z" />
    <glyph glyph-name="quoteright" unicode="&#x2019;" horiz-adv-x="168" 
d="M162 312q0 -20 -36 -63t-54 -43q-2 0 -2 2q0 4 7 12q11 13 49 68q-18 0 -18 22q0 27 34 27q20 0 20 -25z" />
    <glyph glyph-name="quotesinglbase" unicode="&#x201a;" horiz-adv-x="86" 
d="M87 71q0 -13 -7.5 -59t-11.5 -54q-2 -4 -6 -4q-3 0 -3 8q0 68 -5 109q21 3 30 3q2 0 3 -1v-2z" />
    <glyph glyph-name="quotedblleft" unicode="&#x201c;" horiz-adv-x="259" 
d="M234 524q0 -4 -7 -12q-12 -13 -49 -68q18 0 18 -22q0 -27 -34 -27q-20 0 -20 25q0 20 36 63t54 43q2 0 2 -2zM156 524q0 -4 -7 -12q-12 -13 -49 -68q18 0 18 -22q0 -27 -34 -27q-20 0 -20 25q0 20 36 63t54 43q2 0 2 -2z" />
    <glyph glyph-name="quotedblright" unicode="&#x201d;" horiz-adv-x="259" 
d="M240 496q0 -21 -36 -64t-55 -43q-1 0 -1 2q0 3 7 11q13 15 49 70l-2 -1q-16 0 -16 22q0 28 34 28q7 0 13.5 -8.5t6.5 -16.5zM162 496q0 -20 -36 -63.5t-54 -43.5q-2 1 -2 2q0 4 7 11q13 15 49 70l-2 -1q-16 0 -16 22q0 12 10.5 20t23.5 8q7 0 13.5 -8.5t6.5 -16.5z" />
    <glyph glyph-name="quotedblbase" unicode="&#x201e;" horiz-adv-x="156" 
d="M156 71q0 -13 -7.5 -59t-11.5 -54q-2 -4 -6 -4q-3 0 -3 8q0 68 -5 109q21 3 30 3q2 0 3 -1v-2zM87 71q0 -13 -7.5 -59t-11.5 -54q-2 -4 -6 -4q-3 0 -3 8q0 68 -5 109q21 3 30 3q2 0 3 -1v-2z" />
    <glyph glyph-name="dagger" unicode="&#x2020;" horiz-adv-x="387" 
d="M380 413q0 -5 -11 -5q-66 0 -158 -4q-15 -175 -33 -302q-3 -32 -16 -88q-1 -3 -4 -3q-4 0 -4 6q0 2 3 38l7 92q14 164 20 256q-41 -2 -80 -4q-46 -3 -42 -3q-7 0 -19.5 8.5t-14.5 14.5q1 2 3 2q50 6 154 7q4 78 4 180q0 5 13 12.5t19 8.5l2 -1v-19q0 -57 -10 -181
q111 -1 162 -12q5 -1 5 -3z" />
    <glyph glyph-name="daggerdbl" unicode="&#x2021;" horiz-adv-x="446" 
d="M414 558q0 -2 -3 -5q-18 -22 -53 -65q-52 -67 -107 -150q66 11 93 11q15 0 18 -6q-9 -12 -130 -34q-24 -36 -45 -72q85 15 118 15q15 0 18 -6q-9 -12 -71 -24q-41 -7 -81 -14q-142 -249 -142 -413q0 -10 3 -31t3 -31l-1 -1q-32 -1 -32 64q0 144 135 406q-10 -2 -43 -13
q-27 -10 -41 -10q-21 0 -21 17q0 13 53 24q33 5 66 11q19 35 40 71q-9 -2 -52 -15q-39 -11 -47 -11q-21 0 -21 17q0 13 60 26l76 12q50 85 68 111q42 66 79 103q19 19 45 19q15 0 15 -6z" />
    <glyph glyph-name="bullet" unicode="&#x2022;" horiz-adv-x="537" 
d="M487 237q0 -90 -63.5 -153.5t-152.5 -63.5q-90 0 -153.5 63.5t-63.5 153.5q0 89 63.5 152.5t153.5 63.5q89 0 152.5 -63.5t63.5 -152.5z" />
    <glyph glyph-name="ellipsis" unicode="&#x2026;" horiz-adv-x="498" 
d="M467 8q0 -24 -26 -24t-26 24t26 24t26 -24zM326 8q0 -24 -25 -24q-27 0 -27 24t27 24q25 0 25 -24zM161 8q0 -24 -25 -24q-27 0 -27 24t27 24q25 0 25 -24z" />
    <glyph glyph-name="perthousand" unicode="&#x2030;" horiz-adv-x="521" 
d="M443 524q0 -2 -2 -5q-25 -24 -73 -73q-241 -244 -312 -391q-6 -12 -20 -53q-2 -5 -9 -5q-8 0 -8 7q0 4 11 30q55 135 237 349q-14 -5 -28 -5q-17 0 -31 8q-38 -60 -80 -60q-29 0 -29 33q0 48 42 112q-1 9 -1 19q0 30 20 58.5t49 28.5q19 0 30 -24q10 -19 10 -39
q0 -45 -35 -114q12 -8 28 -8q28 0 47 17q8 9 23 25q34 39 98 98q6 4 13 4q20 0 20 -12zM489 174q0 -45 -34 -114q8 -5 8 -8q0 -5 -14 -5q-39 -61 -80 -61q-29 0 -29 34q0 22 12 54q-28 -22 -56 -22q-17 0 -31 9q-39 -61 -80 -61q-29 0 -29 34q0 47 42 112q-2 9 -2 18
q0 30 20 58.5t50 28.5q18 0 30 -23q9 -19 9 -40q0 -45 -34 -114q12 -8 28 -8q43 0 67 38q5 9 16 28q-2 9 -2 18q0 30 20 58.5t50 28.5q18 0 30 -23q9 -19 9 -40zM224 493q0 18 -6 38q-8 26 -22 26q-19 0 -30 -23q-8 -19 -8 -40q15 16 27 16q13 0 18 -8q0 -2 1 -4.5t1 -4.5
q0 -3 -9 -3q-15 0 -31 -32q11 -31 38 -51q21 52 21 86zM464 154q0 18 -6 37q-8 26 -21 26q-19 0 -30 -23q-8 -18 -8 -40q14 16 27 16t18 -8q0 -1 1 -4v-5t-8 -2q-15 0 -32 -32q11 -32 39 -52q20 53 20 87zM196 396q-27 18 -42 42q-25 -53 -25 -76q0 -16 13 -16q12 0 31 19
q16 17 23 31zM437 56q-28 18 -42 42q-25 -52 -25 -76q0 -16 13 -16q12 0 31 19q16 17 23 31zM280 168q0 18 -6 37q-8 26 -21 26q-19 0 -30 -23q-8 -18 -8 -40q14 16 27 16t18 -8q0 -1 1 -4v-5q0 -3 -8 -3q-15 0 -32 -31q11 -32 39 -52q20 53 20 87zM253 70q-28 18 -42 42
q-25 -52 -25 -76q0 -16 13 -16q12 0 31 19q16 17 23 31z" />
    <glyph glyph-name="guilsinglleft" unicode="&#x2039;" horiz-adv-x="279" 
d="M229 436q0 -15 -99 -153q97 -123 97 -134q0 -14 -10 -13l-8 4q-22 30 -57 59q-32 26 -64 51q-3 2 -3 6q0 11 52 86q46 65 66 89q9 11 19 11q7 0 7 -6z" />
    <glyph glyph-name="guilsinglright" unicode="&#x203a;" horiz-adv-x="264" 
d="M229 315q0 -11 -53 -86q-45 -65 -66 -89q-9 -11 -19 -11q-6 0 -6 6q0 15 99 153q-98 124 -98 134q0 14 11 13l8 -4q22 -30 55.5 -57.5t65.5 -52.5q3 -2 3 -6z" />
    <glyph glyph-name="fraction" unicode="&#x2044;" horiz-adv-x="296" 
d="M462 503q0 -2 -2 -5q-25 -24 -74 -73q-241 -244 -311 -391q-6 -12 -21 -53q-2 -5 -8 -5q-8 0 -8 7q0 8 18 47q79 172 289 399q26 29 83 82q6 4 14 4q20 0 20 -12z" />
    <glyph glyph-name="afii61352" unicode="&#x2116;" horiz-adv-x="1075" 
d="M877 376q0 -59 -58 -186t-58 -164q0 -30 28 -30q16 0 39.5 17t27.5 17t4 -5q0 -20 -27.5 -35t-49.5 -15q-53 0 -53 56q0 41 30 110q36 81 38 87q21 50 32.5 90.5t11.5 63.5q0 35 -25 35q-12 0 -31 -8q-72 -33 -181 -170q-80 -101 -146 -211q-16 -29 -49 -70q-22 0 -22 22
q0 7 3 12q55 67 122 217q72 161 72 234q0 108 -128 108q-61 0 -139 -27q-90 -30 -174 -88q-111 -76 -111 -146q0 -57 77 -57q41 0 111 20q7 2 10 2q8 0 8 -6q0 -17 -52 -29q-41 -10 -68 -10q-112 0 -112 88q0 82 114 161q86 59 188 91q84 25 154 25q165 0 165 -130
q0 -91 -73 -229q57 68 114 137q86 93 135 93q73 0 73 -70zM1138 326q0 -7 -26 -8q-18 0 -54 -3q-30 -4 -94 -9h-5q-20 -1 -20 7q0 14 35 25q16 6 45 6q35 0 93 -8q26 -4 26 -10zM1156 489q0 -35 -28.5 -64.5t-63.5 -29.5q-41 0 -41 38q0 21 10 44q12 27 29 32q16 32 51 32
q19 0 31 -15.5t12 -36.5zM1132 487q0 36 -22 36q-11 0 -29 -13l11 -6q-3 -7 -20 -32q-12 -18 -12 -38t15 -20q24 0 40.5 24t16.5 49z" />
    <glyph glyph-name="trademark" unicode="&#x2122;" horiz-adv-x="656" 
d="M634 597q0 -10 -5 -34q-7 -28 -8 -37q-3 -79 -14 -169q-10 -17 -35 -17q-11 0 -11 9q0 2 1 8q10 55 32 165q-105 -135 -153 -135q-52 0 -89 135q-11 -23 -29 -92q-16 -62 -31 -86q-10 -16 -27 -16q-11 0 -11 7q0 4 38 99q40 101 45 115q2 25 5 49q5 35 24 35q7 0 13 -22
q10 -58 19 -117q19 -86 53 -86q30 0 99.5 108t71.5 108q12 0 12 -27zM337 635q0 -12 -69 -20q-74 -8 -81 -21q-17 -31 -38 -96q-15 -50 -31 -100q-8 -26 -26 -67q-6 -9 -21 -9q-18 0 -18 13q0 14 38 105q24 57 49 114q12 34 12 42q0 9 -28 9q-12 0 -36 -2.5t-36 -2.5
q-21 0 -25 13q8 13 135 22q98 8 153 8q22 0 22 -8z" />
    <glyph glyph-name="partialdiff" unicode="&#x2202;" horiz-adv-x="191" 
d="M174 266q0 -45 -10 -96q-12 -61 -36 -111q-35 -73 -79 -73q-30 0 -30 33q0 19 11 48t30 60q27 43 46 43q12 0 18 -8q1 -9 1 -8q0 -3 -9 -3q-18 0 -43 -56q-23 -52 -23 -73q0 -16 12 -16q22 0 46 48q18 35 26 68q13 51 13 129q0 102 -38 102q-18 0 -18 8q0 13 33 13
q50 0 50 -108z" />
    <glyph glyph-name="product" unicode="&#x220f;" horiz-adv-x="638" 
d="M581 364q0 -117 -124 -228q-121 -107 -240 -107q-71 0 -121 42q-55 44 -55 114q0 118 127 229q122 108 242 108q71 0 121 -44t50 -114zM543 356q0 64 -39.5 105t-103.5 41q-112 0 -217.5 -103t-105.5 -215q0 -60 48 -98q44 -36 106 -36q106 0 209 100t103 206zM494 332
q0 -47 -57 -78q-49 -26 -100 -26q-22 0 -46 3q-52 -98 -52 -129v-4q1 -3 1 -4q0 -10 -8 -10q-11 0 -11 17q0 35 46 134q-42 8 -42 26q0 12 14 19q11 7 24 7q8 0 8 -7q0 -5 -12.5 -8t-12.5 -7q0 -8 28 -15q19 40 56 103q10 12 29 12q10 0 10 -6q0 -3 -2 -5q-40 -56 -68 -109
q9 -1 19 -1q45 0 92 23q57 28 57 68q0 47 -116 47q-84 0 -170 -30q-4 -1 -7 -1q-6 0 -6 6q0 24 68 36q45 8 92 8q166 0 166 -69z" />
    <glyph glyph-name="infinity" unicode="&#x221e;" horiz-adv-x="728" 
d="M704 389q0 -73 -86 -147q-83 -70 -157 -70q-88 0 -88 99q-16 -14 -33 -25q-80 -53 -98 -62q-56 -30 -111 -30q-110 0 -110 86t91 160q86 70 175 70q45 0 79 -21q44 -28 46 -106q140 139 216 139q34 0 56 -31q20 -27 20 -62zM676 373q0 78 -73 78q-34 0 -101 -59
q-45 -44 -90 -87q2 -101 78 -101q44 0 98 35q51 33 74 73q14 23 14 61zM375 337q0 63 -36 87q-30 18 -68 18q-53 0 -110 -36q-53 -34 -83 -82q-36 -58 -36 -96q0 -57 70 -57q62 0 142 44q66 37 120 90q1 20 1 32z" />
    <glyph glyph-name="approxequal" unicode="&#x2248;" horiz-adv-x="302" 
d="M289 212q0 -12 -46 -35q-14 -6 -32 -6q-20 0 -58 11t-58 11q-18 0 -38 -11t-26 -11q-1 1 -1 2q0 13 50 34q20 8 43 8q19 0 55.5 -8.5t55.5 -8.5q28 0 48 18q7 0 7 -4zM289 118q0 -12 -46 -35q-14 -6 -32 -6q-20 0 -58 11t-58 11q-18 0 -38 -11t-26 -10q-1 0 -1 1
q0 13 50 34q20 8 43 8q19 0 55.5 -8.5t55.5 -8.5q28 0 48 18q7 0 7 -4z" />
    <glyph glyph-name="approxequal" unicode="&#x22f2;" horiz-adv-x="302" 
d="M289 212q0 -12 -46 -35q-14 -6 -32 -6q-20 0 -58 11t-58 11q-18 0 -38 -11t-26 -11q-1 1 -1 2q0 13 50 34q20 8 43 8q19 0 55.5 -8.5t55.5 -8.5q28 0 48 18q7 0 7 -4zM289 118q0 -12 -46 -35q-14 -6 -32 -6q-20 0 -58 11t-58 11q-18 0 -38 -11t-26 -10q-1 0 -1 1
q0 13 50 34q20 8 43 8q19 0 55.5 -8.5t55.5 -8.5q28 0 48 18q7 0 7 -4z" />
    <glyph glyph-name="notequal" unicode="&#x2260;" horiz-adv-x="348" 
d="M302 79q0 -3 -6 -3q-90 0 -170 -8l-28 -38q-22 -26 -35 -26q-7 0 -7 5q3 7 41 56q-20 -1 -22 -1q-5 0 -12.5 9.5t-7.5 14.5l1 1q6 2 64 5l64 81q-12 0 -54 -5q-34 -3 -55 -3q-5 0 -12.5 9t-7.5 15l1 1q25 7 95 7q30 0 50 -2q14 19 29 39q21 26 35 26q5 0 5 -4
q0 -5 -45 -63q22 -2 43 -3q34 -4 34 -10q0 -4 -6 -4q-52 0 -85 -1l-64 -81h19q107 1 133 -12q3 -1 3 -5z" />
    <glyph glyph-name="lessequal" unicode="&#x2264;" horiz-adv-x="318" 
d="M229 436q0 -15 -99 -153q97 -123 97 -134q0 -14 -10 -13l-8 4q-22 30 -57 59q-32 26 -64 51q-3 2 -3 6q0 11 52 86q46 65 66 89q9 11 19 11q7 0 7 -6zM266 78q0 -5 -6 -5q-31 0 -91 -6t-90 -6q-5 0 -12.5 9t-8.5 15l2 1q21 7 97 7q82 0 106 -12q3 -1 3 -3z" />
    <glyph glyph-name="greaterequal" unicode="&#x2265;" horiz-adv-x="318" 
d="M229 315q0 -11 -53 -86q-45 -65 -66 -89q-9 -11 -19 -11q-6 0 -6 6q0 15 99 153q-98 124 -98 134q0 14 11 13l8 -4q22 -30 55.5 -57.5t65.5 -52.5q3 -2 3 -6zM249 78q0 -5 -6 -5q-31 0 -91 -6t-90 -6q-5 0 -12.5 9t-8.5 15l2 1q21 7 97 7q82 0 106 -12q3 -1 3 -3z" />
    <glyph glyph-name="lozenge" unicode="&#x25ca;" horiz-adv-x="408" 
d="M344 334q0 -28 -118 -248q-9 -19 -28 -54q-7 -12 -15 -12q-7 0 -11.5 12.5t-14.5 37.5q-17 46 -51 111q-53 102 -56 108t-3 14q0 37 146 303q8 14 15 14q6 0 12 -15q15 -41 51 -124q24 -44 71 -134q2 -5 2 -13zM296 296q-33 89 -91 271q-37 -75 -110 -225q33 -90 91 -271
q37 74 110 225z" />
    <glyph glyph-name="apple" unicode="&#xf000;" horiz-adv-x="847" 
d="M863 376q0 -9 -9 -24t-18 -16q-7 2 -7 11q0 2 1.5 6.5t1.5 6.5q0 5 -5 5q-11 0 -40 -13q-95 -43 -285 -131q-10 -16 -30 -39q154 -38 227 -71q147 -66 147 -157q0 -16 -8 -34q-8 -21 -21 -27l-8 3q1 6 7 17t6 25q0 79 -144 154q-119 62 -217 72q-185 -200 -319 -200
q-45 0 -79 21q-40 25 -40 67q0 19 11 19q7 0 7 -9q0 -6 -3 -10q1 -31 41 -48q32 -14 67 -14q74 0 159 61q70 49 126 119q-13 10 -112 10q-3 0 -8.5 4t-5.5 7q0 12 30 12q76 0 144 33q51 88 51 142q0 89 -136 89q-94 0 -180 -36q-112 -45 -112 -124q0 -78 104 -110
q15 -3 45 -10q11 -2 11 -9q0 -6 -20 -6q-59 0 -114 45t-55 103q0 27 27 61q23 30 50 45q100 58 256 58q158 0 158 -106q0 -55 -43 -128q27 8 166 83q131 70 141 70q35 0 35 -27zM457 208l-43 -15q10 -3 29 -7q5 7 14 22z" />
    <glyph glyph-name="fi" unicode="&#xf001;" horiz-adv-x="347" 
d="M348 247q0 -26 -26 -26q-20 0 -20 19q0 26 26 26q20 0 20 -19zM404 96q0 -6 -6 -13q-73 -101 -129 -101q-47 0 -46 50q-23 -20 -46 -20q-9 0 -28 5q3 -17 3 -36q0 -67 -32 -147q-34 -83 -82 -124q-23 -20 -43 -20q-26 0 -39 35q-9 25 -9 56q0 68 40 180q33 93 75 172
q35 67 105 200q31 59 35 66q21 38 41 61q13 15 28 15q22 0 22 -17q0 -5 -3 -10q-9 -17 -73 -113q-83 -124 -126 -203q6 6 12 6q26 0 44 -91q21 -12 36 -12q20 0 44 22q5 25 22 63q21 49 34 49q20 0 20 -21q0 1 -22.5 -43t-22.5 -74t22 -30q33 0 78 50.5t42 50.5q4 0 4 -6z
M135 -23q0 32 -6 61q-20 12 -34.5 35t-11.5 44q-99 -223 -99 -339q0 -57 26 -57q10 0 24 11q47 39 75 112q26 66 26 133z" />
    <glyph glyph-name="fl" unicode="&#xf002;" horiz-adv-x="406" 
d="M551 475q0 -57 -113 -203q-92 -119 -164 -186q0 -90 46 -90q34 0 87 49t50 49q4 0 4 -5q0 -4 -2 -7q-29 -38 -67 -67q-47 -37 -84 -37q-54 0 -62 78q-41 -49 -73 -49q-14 0 -24 10q3 -17 3 -36q0 -66 -32 -147q-34 -84 -82 -124q-23 -20 -43 -20q-26 0 -39 35
q-9 25 -9 56q0 68 40 180q33 93 75 172q24 44 81 154q43 83 46 90q33 60 54 83q13 15 28 15q22 0 22 -17q0 -5 -3 -10q-9 -17 -73 -113q-83 -124 -126 -203q6 6 12 6q26 0 44 -91q21 -12 36 -12q26 0 62 41v5q-1 71 74 199q62 106 127 178q46 50 77 50q10 0 19 -11.5
t9 -21.5zM515 471q0 16 -11 16q-24 0 -59 -47q-40 -53 -96 -163q-61 -118 -72 -171q44 39 128 157q86 122 103 173q7 23 7 35zM135 -23q0 32 -6 61q-20 12 -34.5 35t-11.5 44q-99 -223 -99 -339q0 -57 26 -57q10 0 24 11q47 39 75 112q26 66 26 133z" />
    <glyph glyph-name="NULL" horiz-adv-x="0" 
 />
    <glyph glyph-name="glyph288" horiz-adv-x="500" 
 />
    </font>
</defs>
</svg>
