<svg width="53" height="51" viewBox="0 0 53 51" fill="none" xmlns="http://www.w3.org/2000/svg">
<path d="M52.8463 25.5001C52.8463 28.2322 50.4251 30.5486 49.6247 33.0139C48.795 35.5691 49.3637 38.8605 47.8159 40.9873C46.2526 43.1353 42.9361 43.6043 40.7881 45.1677C38.6612 46.7156 37.1988 49.7337 34.6437 50.5634C32.1784 51.3639 29.2324 49.808 26.5004 49.808C23.7683 49.808 20.8223 51.3639 18.357 50.5634C15.8019 49.7338 14.3395 46.7156 12.2126 45.1677C10.0646 43.6045 6.74807 43.1355 5.18467 40.9873C3.63683 38.8605 4.20548 35.5691 3.37592 33.014C2.57538 30.5488 0.154297 28.2324 0.154297 25.5002C0.154297 22.7681 2.57551 20.4517 3.37592 17.9864C4.20548 15.4312 3.63683 12.1398 5.18467 10.0131C6.74794 7.86506 10.0645 7.39607 12.2126 5.83267C14.3395 4.28483 15.8019 1.26671 18.357 0.437015C20.8223 -0.363518 23.7683 1.19243 26.5004 1.19243C29.2324 1.19243 32.1784 -0.363518 34.6437 0.436884C37.1988 1.26645 38.6612 4.2847 40.7881 5.83254C42.9361 7.39581 46.2528 7.8648 47.816 10.0129C49.3639 12.1398 48.7952 15.4312 49.6248 17.9862C50.4251 20.4515 52.8463 22.768 52.8463 25.5001Z" fill="#7449D0"/>
<path d="M49.6253 17.986C48.7958 15.4309 49.3644 12.1394 47.8166 10.0127C46.2533 7.86474 42.9368 7.39562 40.7886 5.83248C38.6618 4.28464 37.1994 1.26639 34.6442 0.436826C33.4618 0.0528423 32.1687 0.211354 30.8418 0.479855C33.322 1.36422 34.7723 4.30936 36.8651 5.83248C39.0131 7.39575 42.3298 7.86474 43.8931 10.0127C45.4409 12.1396 44.8722 15.431 45.7018 17.986C46.5023 20.4513 48.9234 22.7677 48.9234 25.4999C48.9234 28.232 46.5022 30.5484 45.7018 33.0137C44.8721 35.5689 45.4409 38.8603 43.8931 40.987C42.3298 43.135 39.0132 43.6041 36.8652 45.1674C34.7725 46.6904 33.3221 49.6355 30.8419 50.5199C32.1689 50.7884 33.4619 50.9469 34.6444 50.5631C37.1995 49.7334 38.6619 46.7153 40.7888 45.1674C42.9368 43.6041 46.2533 43.1352 47.8166 40.987C49.3644 38.8602 48.7958 35.5687 49.6253 33.0137C50.4257 30.5484 52.847 28.2321 52.847 25.4999C52.847 22.7677 50.4257 20.4513 49.6253 17.986Z" fill="#8649FF"/>
<path d="M19.8093 36.0409L14.9398 30.1819C14.2049 29.2977 14.326 27.985 15.2102 27.2501L16.5754 26.1156C17.4596 25.3807 18.7722 25.5018 19.5072 26.386L21.9604 29.3378C22.5466 30.0432 23.6169 30.0795 24.2496 29.4154L36.7913 17.1787C37.5844 16.3461 38.9021 16.3142 39.7346 17.1072L41.0199 18.3317C41.8525 19.1247 41.8844 20.4425 41.0913 21.275L25.9423 36.2486C24.2475 38.0278 21.3799 37.9308 19.8093 36.0409Z" fill="white"/>
<path d="M41.0184 18.3316L39.7331 17.1072C38.9005 16.3141 37.5827 16.3462 36.7897 17.1786L36.3426 17.6149L37.0949 18.3316C37.9274 19.1247 37.9594 20.4425 37.1663 21.2749L22.0172 36.2486C21.7126 36.5683 21.3698 36.8264 21.0039 37.0254C22.5812 37.8827 24.618 37.6371 25.9408 36.2486L41.0899 21.2749C41.8829 20.4423 41.851 19.1246 41.0184 18.3316Z" fill="white"/>
</svg>
