<svg width="54" height="54" viewBox="0 0 54 54" fill="none" xmlns="http://www.w3.org/2000/svg">
<path d="M51.5 27C51.5 13.4695 40.5317 2.50072 27.0013 2.5C13.4754 2.51518 2.51435 13.4767 2.5 27.0027C2.50143 40.5324 13.4699 51.5 27 51.5C40.531 51.5 51.5 40.531 51.5 27Z" stroke="#7449D0" stroke-width="5"/>
<path d="M26.857 26.9286H25.357V25.4286V11.9286C25.357 11.6919 25.1651 11.5 24.9284 11.5C24.6917 11.5 24.4999 11.6918 24.4999 11.9286V27.3572C24.4999 27.5939 24.6917 27.7858 24.9285 27.7858H40.357C40.5938 27.7858 40.7856 27.5939 40.7856 27.3572C40.7856 27.1204 40.5938 26.9286 40.357 26.9286H26.857Z" stroke="#51CB56" stroke-width="3"/>
</svg>
