<svg width="59" height="59" viewBox="0 0 59 59" fill="none" xmlns="http://www.w3.org/2000/svg">
<g clip-path="url(#clip0)">
<path d="M17.6863 55.1333L17.686 55.1331C9.74616 51.8442 3.90087 44.5258 2.69303 35.7385L2.69269 35.7361C2.53937 34.6308 2.46094 33.4996 2.46094 32.3477C2.46094 18.7315 13.4982 7.69434 27.1134 7.69434C40.7283 7.69434 51.7668 18.7316 51.7668 32.3477C51.7668 45.9629 40.7283 57.0002 27.1134 57.0002C23.7697 57.0002 20.5874 56.3357 17.6863 55.1333Z" stroke="#51CB56" stroke-width="4"/>
<path d="M41.0462 39.2049L41.0465 39.2047L56.2656 29.1268C57.1641 28.5315 57.4106 27.3202 56.8148 26.4204C56.6497 26.171 56.4461 25.9749 56.2241 25.8324L56.2188 25.829C55.7395 25.5186 55.1639 25.4359 54.6418 25.5962C54.1854 25.776 53.6424 25.7444 53.1936 25.4361C52.9929 25.3004 52.8264 25.118 52.7096 24.9045C52.2732 24.1148 52.6421 23.3151 53.1052 22.9446L53.1655 22.8964L53.2304 22.8546C53.2425 22.8468 53.2555 22.8382 53.2721 22.827C53.2848 22.8185 53.2996 22.8084 53.3178 22.7961L53.3248 22.7914L53.3318 22.7867C54.2317 22.1912 54.4772 20.9804 53.8823 20.0823L53.8814 20.0809C53.7349 19.8591 53.543 19.6738 53.3187 19.5302C52.9845 19.3175 52.5836 19.2015 52.1787 19.2015C52.0351 19.2015 51.8954 19.2155 51.7606 19.2434C51.1825 19.4191 50.5369 19.249 50.1238 18.7799C50.0645 18.7136 50.0037 18.6337 49.9482 18.5391C49.5291 17.8322 49.7257 16.9186 50.4013 16.4466L50.4095 16.4409L50.4177 16.4353C50.5208 16.3654 51.086 15.9577 51.2361 15.1992L51.2364 15.198C51.3334 14.71 51.2453 14.1892 50.9495 13.7422L50.9495 13.7422C50.7952 13.5091 50.6019 13.3224 50.3852 13.1823L50.3851 13.1822C50.0686 12.9776 49.6952 12.8685 49.3185 12.8685C49.0875 12.8685 48.8558 12.9094 48.6348 12.9928C47.7252 13.356 46.9808 12.7812 46.7161 12.2917L46.6786 12.2223L46.6486 12.1493C46.4484 11.663 46.4478 10.7953 47.2175 10.2821L47.2216 10.2794C48.1474 9.66649 48.405 8.4535 47.8615 7.58264L47.8611 7.58208C47.2766 6.64466 46.0401 6.37976 45.1253 6.9854L45.1242 6.98616L35.0002 13.6752L33.4247 14.7161L32.7672 12.9459L31.7841 10.2991L31.7837 10.2983C30.8576 7.79996 29.3823 5.54041 27.4692 3.68406C27.4691 3.68393 27.4689 3.6838 27.4688 3.68367L25.6566 1.92865L25.6558 1.92788C25.1444 1.43184 24.3577 1.35881 23.7637 1.75233L23.7634 1.75248C23.3237 2.04365 23.0839 2.52339 23.0839 3.01944C23.0839 3.30731 23.1649 3.59684 23.3357 3.85515L41.0462 39.2049ZM41.0462 39.2049C40.275 39.7158 39.3417 39.918 38.4298 39.7722L38.4288 39.772M41.0462 39.2049L38.4288 39.772M38.4288 39.772C36.7744 39.5088 35.0776 39.8694 33.6742 40.7985L33.6737 40.7989M38.4288 39.772L33.6737 40.7989M33.6737 40.7989L32.8737 41.3291L22.6682 26.2854L25.3189 14.8339L25.3191 14.8332M33.6737 40.7989L25.3191 14.8332M25.3191 14.8332C25.5621 13.781 25.6826 12.7139 25.6826 11.6503M25.3191 14.8332L25.6826 11.6503M25.6826 11.6503C25.6826 8.89999 24.8783 6.18553 23.3359 3.8554L25.6826 11.6503Z" fill="white" stroke="#7449D0" stroke-width="3"/>
<path d="M32.6106 46.5902L26.1899 50.8422L16.9203 56.9807C8.33895 53.4255 2.01817 45.5185 0.711426 36.0107L11.4687 28.8869L18.0173 24.5498C18.7713 24.0502 19.7886 24.2577 20.2882 25.013L33.0738 44.3179C33.5735 45.0733 33.366 46.0888 32.6106 46.5902Z" fill="url(#paint0_linear)"/>
</g>
<defs>
<linearGradient id="paint0_linear" x1="0.711426" y1="40.6291" x2="33.3461" y2="40.6291" gradientUnits="userSpaceOnUse">
<stop stop-color="#472297"/>
<stop offset="1" stop-color="#7449D0"/>
</linearGradient>
<clipPath id="clip0">
<rect width="59" height="59" fill="white"/>
</clipPath>
</defs>
</svg>
