<svg width="44" height="48" viewBox="0 0 44 48" fill="none" xmlns="http://www.w3.org/2000/svg">
<path d="M22 48C21.8394 48 21.6786 47.9782 21.5236 47.9347C15.3476 46.2011 10.0596 42.8304 6.23095 38.187C2.40254 33.5435 0.378906 28.0462 0.378906 22.2892V7.96875C0.378906 7.19212 1.08723 6.5625 1.96094 6.5625C6.53037 6.5625 10.6848 4.33537 12.8122 0.750188C13.0859 0.288844 13.6246 0 14.2114 0H29.7884C30.3753 0 30.914 0.28875 31.1878 0.750188C33.3152 4.33537 37.4696 6.5625 42.0296 6.5625C42.9033 6.5625 43.6211 7.19212 43.6211 7.96875V22.2892C43.6211 28.0462 41.5975 33.5435 37.7691 38.1869C33.9404 42.8303 28.6524 46.201 22.4764 47.9347C22.3214 47.9783 22.1606 48 22 48Z" fill="url(#paint0_linear)"/>
<path d="M42.0296 6.5625C37.4696 6.5625 33.3152 4.33537 31.1878 0.750188C30.9141 0.28875 30.3754 0 29.7885 0H22V48C22.1606 48 22.3214 47.9782 22.4764 47.9347C28.6524 46.2011 33.9404 42.8304 37.7691 38.187C41.5975 33.5435 43.6211 28.0462 43.6211 22.2892V7.96875C43.6211 7.19212 42.9033 6.5625 42.0296 6.5625Z" fill="url(#paint1_linear)"/>
<path d="M22.0001 43C21.7834 43 21.5668 42.9623 21.363 42.8869C12.0303 39.4345 6 31.3931 6 22.4005V12.3835C6 11.7493 6.45904 11.1867 7.13821 10.9886C10.6514 9.96392 13.7455 8.07959 16.0859 5.53919C16.4003 5.19794 16.8707 5 17.3674 5H26.6326C27.1293 5 27.6 5.19794 27.9142 5.53919C30.2545 8.07998 33.3486 9.9646 36.8619 10.9895C37.5411 11.1877 38 11.7503 38 12.3845V22.4005C38 31.3931 31.9697 39.4345 22.637 42.8868C22.4333 42.9622 22.2167 43 22.0001 43Z" fill="white"/>
<path d="M19.5386 29.6961C19.1337 29.6961 18.7288 29.5588 18.42 29.2841L13.498 24.9091C12.8802 24.36 12.8802 23.4696 13.498 22.9204C14.1158 22.3712 15.1175 22.3712 15.7354 22.9204L19.5387 26.301L28.2638 18.5454C28.8815 17.9962 29.8832 17.9962 30.5011 18.5454C31.1189 19.0946 31.1189 19.985 30.5011 20.5342L20.6574 29.2841C20.3483 29.5588 19.9435 29.6961 19.5386 29.6961Z" fill="url(#paint2_linear)"/>
<defs>
<linearGradient id="paint0_linear" x1="0.378906" y1="24" x2="43.6211" y2="24" gradientUnits="userSpaceOnUse">
<stop stop-color="#7449D0"/>
<stop offset="1" stop-color="#7449D0"/>
</linearGradient>
<linearGradient id="paint1_linear" x1="22" y1="24" x2="43.6211" y2="24" gradientUnits="userSpaceOnUse">
<stop stop-color="#7449D0"/>
<stop offset="1" stop-color="#7449D0"/>
</linearGradient>
<linearGradient id="paint2_linear" x1="13.0347" y1="23.9148" x2="30.9645" y2="23.9148" gradientUnits="userSpaceOnUse">
<stop stop-color="#51CB56"/>
</linearGradient>
</defs>
</svg>
