<svg width="54" height="50" viewBox="0 0 54 50" fill="none" xmlns="http://www.w3.org/2000/svg">
<path d="M53.3525 41.4822L31.4213 2.5501C29.5513 -0.850033 24.4509 -0.850033 22.5808 2.5501L0.649646 41.4822C-1.2204 44.8824 1.15971 49.1327 5.06991 49.1327H48.7623C52.8425 48.9627 55.2226 44.8824 53.3525 41.4822Z" fill="#E24C4B"/>
<path d="M26.9995 5.1001L48.9307 44.0322H5.06836L26.9995 5.1001Z" fill="white"/>
<path d="M23.4294 22.9513L24.7895 31.9618C24.9595 32.9818 25.8095 33.8319 26.9996 33.8319C28.0196 33.8319 29.0398 32.9818 29.2098 31.9618L30.5699 22.9513C30.9098 20.7411 29.2098 18.8711 26.9996 18.8711C24.7894 18.871 23.2593 20.7411 23.4294 22.9513Z" fill="black"/>
<path d="M27.0001 39.7823C28.1269 39.7823 29.0403 38.8689 29.0403 37.7422C29.0403 36.6154 28.1269 35.702 27.0001 35.702C25.8734 35.702 24.96 36.6154 24.96 37.7422C24.96 38.8689 25.8734 39.7823 27.0001 39.7823Z" fill="black"/>
</svg>
