<svg width="33" height="60" viewBox="0 0 33 60" fill="none" xmlns="http://www.w3.org/2000/svg">
<path d="M29.2686 21.6134L25.8789 32.3895L25.6665 32.3085L3.03613 23.7317C3.06693 20.9203 3.09449 18.0132 3.09449 14.9298C3.09449 14.2577 3.63918 13.7151 4.31031 13.7151H28.0155C28.6883 13.7151 29.2313 14.2577 29.2313 14.9298C29.2313 17.2458 29.2475 19.4628 29.2686 21.6134Z" fill="white"/>
<path d="M29.2683 21.6134L25.8786 32.3895L25.6663 32.3085C25.6468 26.1447 25.1427 19.6959 24.9189 13.7151H28.0152C28.688 13.7151 29.2311 14.2577 29.2311 14.9298C29.2311 17.2458 29.2473 19.4628 29.2683 21.6134Z" fill="white"/>
<path d="M24.5999 56.9472C22.5654 59.0008 19.8063 60.0001 16.1637 60.0001C15.4212 60.0001 14.7144 59.9579 14.0449 59.8738C11.4252 59.5483 9.3453 58.5831 7.72744 56.9474C2.72148 51.8896 2.83982 41.2252 3.02139 25.0803C3.02625 24.6333 3.03111 24.183 3.03598 23.7312C3.87571 22.9312 10.2402 17.3535 20.2715 21.527C22.4033 22.4145 24.0714 22.7692 25.3634 22.829C27.9231 22.9521 29.0028 21.9253 29.2686 21.6127C29.28 22.7853 29.293 23.94 29.3059 25.0801C29.4859 41.2251 29.6058 51.8896 24.5999 56.9472Z" fill="url(#paint0_linear)"/>
<path d="M32.0442 14.7678C32.0069 15.3588 31.5481 15.8367 30.9581 15.8982C30.9159 15.903 29.5785 16.039 27.3122 16.1864C24.6131 16.3613 20.5911 16.5524 15.8591 16.5524C11.4789 16.5524 6.4908 16.3889 1.37947 15.8998C0.784525 15.8414 0.32089 15.3621 0.281984 14.7678C-0.0827636 9.06217 0.265773 2.78011 0.281984 2.5162C0.316027 1.91704 0.781283 1.43266 1.37947 1.37608C11.9134 0.365494 21.9285 0.742884 27.1695 1.07975C29.5234 1.23035 30.9143 1.37284 30.9581 1.3777C31.5514 1.4393 32.0118 1.9219 32.0458 2.5162C32.0604 2.78027 32.4106 9.06233 32.0442 14.7678Z" fill="#EB5757"/>
<path d="M16.1631 5.64624C15.4915 5.64624 14.9473 6.18995 14.9473 6.86092V10.2398C14.9473 10.9107 15.4915 11.4545 16.1631 11.4545C16.8347 11.4545 17.3789 10.9107 17.3789 10.2398V6.86092C17.3789 6.19012 16.8347 5.64624 16.1631 5.64624Z" fill="white"/>
<path d="M9.03027 5.64624C8.35865 5.64624 7.81445 6.18995 7.81445 6.86092V10.2398C7.81445 10.9107 8.35865 11.4545 9.03027 11.4545C9.70189 11.4545 10.2461 10.9107 10.2461 10.2398V6.86092C10.2461 6.19012 9.70189 5.64624 9.03027 5.64624Z" fill="white"/>
<path d="M23.2959 5.64624C22.6243 5.64624 22.0801 6.18995 22.0801 6.86092V10.2398C22.0801 10.9107 22.6243 11.4545 23.2959 11.4545C23.9675 11.4545 24.5117 10.9107 24.5117 10.2398V6.86092C24.5117 6.19012 23.9675 5.64624 23.2959 5.64624Z" fill="white"/>
<path d="M17.8809 29.9199H21.2553C21.9269 29.9199 22.4712 29.3761 22.4712 28.7052C22.4712 28.0342 21.9269 27.4905 21.2553 27.4905H17.8809C17.2092 27.4905 16.665 28.0342 16.665 28.7052C16.665 29.3761 17.2092 29.9199 17.8809 29.9199Z" fill="white"/>
<path d="M21.2553 33.9829H14.6387C13.9671 33.9829 13.4229 34.5266 13.4229 35.1976C13.4229 35.8686 13.9671 36.4123 14.6387 36.4123H21.2553C21.9269 36.4123 22.4711 35.8686 22.4711 35.1976C22.4711 34.5266 21.9269 33.9829 21.2553 33.9829Z" fill="white"/>
<path d="M21.2553 40.4756H17.8809C17.2092 40.4756 16.665 41.0193 16.665 41.6903C16.665 42.3612 17.2092 42.905 17.8809 42.905H21.2553C21.9269 42.905 22.4712 42.3612 22.4712 41.6903C22.4712 41.0193 21.9269 40.4756 21.2553 40.4756Z" fill="white"/>
<path d="M21.2553 46.9685H14.6387C13.9671 46.9685 13.4229 47.5123 13.4229 48.1835C13.4229 48.8546 13.9671 49.3984 14.6387 49.3984H21.2553C21.9269 49.3984 22.4711 48.8546 22.4711 48.1835C22.4711 47.5123 21.9269 46.9685 21.2553 46.9685Z" fill="white"/>
<defs>
<linearGradient id="paint0_linear" x1="16.1634" y1="19.9929" x2="16.1634" y2="60.0001" gradientUnits="userSpaceOnUse">
<stop stop-color="#7449D0"/>
<stop offset="1" stop-color="#472297" stop-opacity="0.45"/>
</linearGradient>
</defs>
</svg>
