<svg width="33" height="60" viewBox="0 0 33 60" fill="none" xmlns="http://www.w3.org/2000/svg">
<path d="M29.1525 20.8231L25.7628 31.5645L25.5504 31.4837L2.91992 22.9345C2.95072 20.1322 2.97828 17.2345 2.97828 14.161C2.97828 13.491 3.52297 12.9502 4.1941 12.9502H27.8994C28.5721 12.9502 29.1152 13.491 29.1152 14.161C29.1152 16.4694 29.1314 18.6793 29.1525 20.8231Z" fill="white"/>
<path d="M29.1522 20.8231L25.7624 31.5645L25.5501 31.4837C25.5306 25.3397 25.0264 18.9117 24.8027 12.9502H27.899C28.5718 12.9502 29.1149 13.491 29.1149 14.161C29.1149 16.4694 29.1311 18.6793 29.1522 20.8231Z" fill="white"/>
<path d="M24.4836 56.0416C22.4491 58.0885 19.69 59.0845 16.0474 59.0845C15.3049 59.0845 14.5981 59.0425 13.9286 58.9586C11.3089 58.6341 9.22906 57.6721 7.61121 56.0417C2.60527 51.0004 2.72361 40.3708 2.90518 24.2785C2.91004 23.833 2.9149 23.3842 2.91977 22.9338C3.75949 22.1364 10.1239 16.5769 20.1552 20.7368C22.287 21.6215 23.9551 21.975 25.2471 22.0346C27.8068 22.1573 28.8864 21.1338 29.1523 20.8223C29.1636 21.991 29.1766 23.142 29.1896 24.2784C29.3695 40.3707 29.4895 51.0003 24.4836 56.0416Z" fill="url(#paint0_linear)"/>
<path d="M31.9278 13.9999C31.8905 14.5891 31.4318 15.0654 30.8417 15.1267C30.7995 15.1315 29.4621 15.2671 27.1958 15.414C24.4967 15.5883 20.4748 15.7788 15.7428 15.7788C11.3626 15.7788 6.37455 15.6158 1.26325 15.1283C0.668313 15.0701 0.204678 14.5923 0.165772 13.9999C-0.198973 8.31289 0.149561 2.05125 0.165772 1.7882C0.199815 1.19099 0.665071 0.708182 1.26325 0.651789C11.7971 -0.355515 21.8122 0.0206487 27.0532 0.356417C29.407 0.506527 30.7979 0.648558 30.8417 0.653405C31.435 0.714807 31.8954 1.19584 31.9294 1.7882C31.944 2.05125 32.2942 8.31306 31.9278 13.9999Z" fill="url(#paint1_linear)"/>
<path d="M16.0469 4.90796C15.3753 4.90796 14.8311 5.4499 14.8311 6.11869V9.48654C14.8311 10.1553 15.3753 10.6973 16.0469 10.6973C16.7185 10.6973 17.2627 10.1553 17.2627 9.48654V6.11869C17.2627 5.4499 16.7185 4.90796 16.0469 4.90796Z" fill="white"/>
<path d="M8.91406 4.90796C8.24244 4.90796 7.69824 5.4499 7.69824 6.11869V9.48654C7.69824 10.1553 8.24244 10.6973 8.91406 10.6973C9.58568 10.6973 10.1299 10.1553 10.1299 9.48654V6.11869C10.1299 5.4499 9.58568 4.90796 8.91406 4.90796Z" fill="white"/>
<path d="M23.1797 4.90796C22.5081 4.90796 21.9639 5.4499 21.9639 6.11869V9.48654C21.9639 10.1553 22.5081 10.6973 23.1797 10.6973C23.8513 10.6973 24.3955 10.1553 24.3955 9.48654V6.11869C24.3955 5.4499 23.8513 4.90796 23.1797 4.90796Z" fill="white"/>
<path d="M17.7646 29.1021H21.1391C21.8107 29.1021 22.3549 28.5601 22.3549 27.8912C22.3549 27.2224 21.8107 26.6804 21.1391 26.6804H17.7646C17.093 26.6804 16.5488 27.2224 16.5488 27.8912C16.5488 28.5601 17.0932 29.1021 17.7646 29.1021Z" fill="white"/>
<path d="M21.1392 33.1528H14.5225C13.8508 33.1528 13.3066 33.6948 13.3066 34.3635C13.3066 35.0323 13.8508 35.5742 14.5225 35.5742H21.1392C21.8108 35.5742 22.355 35.0323 22.355 34.3635C22.355 33.6948 21.8106 33.1528 21.1392 33.1528Z" fill="white"/>
<path d="M21.1392 39.6233H17.7647C17.093 39.6233 16.5488 40.1653 16.5488 40.8342C16.5488 41.5031 17.093 42.0452 17.7647 42.0452H21.1392C21.8108 42.0452 22.355 41.5031 22.355 40.8342C22.355 40.1653 21.8106 39.6233 21.1392 39.6233Z" fill="white"/>
<path d="M21.1392 46.0955H14.5225C13.8508 46.0955 13.3066 46.6374 13.3066 47.3063C13.3066 47.9751 13.8508 48.5171 14.5225 48.5171H21.1392C21.8108 48.5171 22.355 47.9751 22.355 47.3063C22.355 46.6374 21.8106 46.0955 21.1392 46.0955Z" fill="white"/>
<defs>
<linearGradient id="paint0_linear" x1="2.84277" y1="39.1461" x2="29.2514" y2="39.1461" gradientUnits="userSpaceOnUse">
<stop stop-color="#4B21A7"/>
<stop offset="1" stop-color="#472297" stop-opacity="0.45"/>
</linearGradient>
<linearGradient id="paint1_linear" x1="0" y1="7.8894" x2="32.0944" y2="7.8894" gradientUnits="userSpaceOnUse">
<stop stop-color="#E58435"/>
<stop offset="1" stop-color="#FFB600"/>
</linearGradient>
</defs>
</svg>
