<svg width="59" height="59" viewBox="0 0 59 59" fill="none" xmlns="http://www.w3.org/2000/svg">
<g clip-path="url(#clip0)">
<path d="M17.6863 55.1333L17.686 55.1331C9.74616 51.8442 3.90087 44.5258 2.69303 35.7385L2.69269 35.7361C2.53937 34.6308 2.46094 33.4996 2.46094 32.3477C2.46094 18.7315 13.4982 7.69434 27.1134 7.69434C40.7283 7.69434 51.7668 18.7316 51.7668 32.3477C51.7668 45.9629 40.7283 57.0002 27.1134 57.0002C23.7697 57.0002 20.5874 56.3357 17.6863 55.1333Z" stroke="#51CB56" stroke-width="4"/>
<path d="M41.0467 39.2049L41.047 39.2047L56.2661 29.1268C57.1646 28.5315 57.411 27.3202 56.8153 26.4204C56.6502 26.171 56.4466 25.9749 56.2246 25.8324L56.2193 25.829C55.74 25.5186 55.1644 25.4359 54.6423 25.5962C54.1859 25.776 53.6429 25.7444 53.1941 25.4361C52.9934 25.3004 52.8269 25.118 52.71 24.9045C52.2737 24.1148 52.6426 23.3151 53.1057 22.9446L53.166 22.8964L53.2309 22.8546C53.243 22.8468 53.256 22.8382 53.2726 22.827C53.2853 22.8185 53.3001 22.8084 53.3183 22.7961L53.3253 22.7914L53.3323 22.7867C54.2321 22.1912 54.4777 20.9804 53.8828 20.0823L53.8819 20.0809C53.7354 19.8591 53.5435 19.6738 53.3192 19.5302C52.985 19.3175 52.584 19.2015 52.1792 19.2015C52.0356 19.2015 51.8959 19.2155 51.7611 19.2434C51.183 19.4191 50.5374 19.249 50.1243 18.7799C50.065 18.7136 50.0042 18.6337 49.9487 18.5391C49.5295 17.8322 49.7262 16.9186 50.4018 16.4466L50.41 16.4409L50.4182 16.4353C50.5213 16.3654 51.0865 15.9577 51.2366 15.1992L51.2368 15.198C51.3338 14.71 51.2458 14.1892 50.95 13.7422L50.9499 13.7422C50.7957 13.5091 50.6024 13.3224 50.3857 13.1823L50.3856 13.1822C50.0691 12.9776 49.6957 12.8685 49.319 12.8685C49.088 12.8685 48.8563 12.9094 48.6353 12.9928C47.7257 13.356 46.9813 12.7812 46.7166 12.2917L46.6791 12.2223L46.649 12.1493C46.4489 11.663 46.4483 10.7953 47.218 10.2821L47.2221 10.2794C48.1479 9.66649 48.4055 8.4535 47.862 7.58264L47.8616 7.58208C47.2771 6.64466 46.0406 6.37976 45.1258 6.9854L45.1246 6.98616L35.0007 13.6752L33.4251 14.7161L32.7676 12.9459L31.7846 10.2991L31.7842 10.2983C30.8581 7.79996 29.3828 5.54041 27.4697 3.68406C27.4695 3.68393 27.4694 3.6838 27.4693 3.68367L25.6571 1.92865L25.6563 1.92788C25.1449 1.43184 24.3582 1.35881 23.7641 1.75233L23.7639 1.75248C23.3242 2.04365 23.0844 2.52339 23.0844 3.01944C23.0844 3.30731 23.1654 3.59684 23.3362 3.85515L41.0467 39.2049ZM41.0467 39.2049C40.2755 39.7158 39.3422 39.918 38.4303 39.7722L38.4292 39.772M41.0467 39.2049L38.4292 39.772M38.4292 39.772C36.7749 39.5088 35.0781 39.8694 33.6747 40.7985L33.6742 40.7989M38.4292 39.772L33.6742 40.7989M33.6742 40.7989L32.8742 41.3291L22.6687 26.2854L25.3194 14.8339L25.3196 14.8332M33.6742 40.7989L25.3196 14.8332M25.3196 14.8332C25.5626 13.781 25.6831 12.7139 25.6831 11.6503M25.3196 14.8332L25.6831 11.6503M25.6831 11.6503C25.6831 8.89999 24.8788 6.18553 23.3364 3.8554L25.6831 11.6503Z" fill="white" stroke="#7449D0" stroke-width="3"/>
<path d="M32.6102 46.5902L26.1894 50.8422L16.9198 56.9807C8.33846 53.4255 2.01768 45.5185 0.710938 36.0107L11.4682 28.8869L18.0168 24.5498C18.7708 24.0502 19.7881 24.2577 20.2877 25.013L33.0733 44.3179C33.573 45.0733 33.3655 46.0888 32.6102 46.5902Z" fill="url(#paint0_linear)"/>
</g>
<defs>
<linearGradient id="paint0_linear" x1="0.710938" y1="40.6291" x2="33.3456" y2="40.6291" gradientUnits="userSpaceOnUse">
<stop stop-color="#472297"/>
<stop offset="1" stop-color="#7449D0"/>
</linearGradient>
<clipPath id="clip0">
<rect width="59" height="59" fill="white"/>
</clipPath>
</defs>
</svg>
