<svg width="42" height="49" viewBox="0 0 42 49" fill="none" xmlns="http://www.w3.org/2000/svg">
<path d="M26.25 16.0325V6.22337H28C29.925 6.22337 31.5 4.9622 31.5 3.42077C31.5 1.87934 29.925 0.618164 28 0.618164H14C12.075 0.618164 10.5 1.87934 10.5 3.42077C10.5 4.9622 12.075 6.22337 14 6.22337H15.75V16.0325L0 45.4598C0 47.0013 1.575 48.2625 3.5 48.2625H38.5C40.425 48.2625 42 47.0013 42 45.4598L26.25 16.0325ZM6.475 44.0585L20.65 17.7141L21 16.8733L21.35 17.7141L35.525 44.0585H6.475Z" fill="#51CB56"/>
<path d="M30.2746 41.2561L26.4246 33.9695L11.7246 41.2561H30.2746Z" fill="#7449D0"/>
</svg>
