<svg width="48" height="39" viewBox="0 0 48 39" fill="none" xmlns="http://www.w3.org/2000/svg">
<g clip-path="url(#clip0)">
<path d="M41.2989 6.42173C38.9612 7.67475 36.9353 8.14463 35.221 8.14463C34.4417 8.14463 33.6625 7.988 32.8833 7.83137C32.4158 7.67475 31.9482 7.51812 31.3249 7.20487C28.9872 6.26511 25.2469 4.85547 24.156 4.85547C24.0002 4.85547 24.0002 4.85547 24.0002 4.85547C23.0651 5.48197 16.3638 7.83137 14.9612 8.30125C14.9612 8.30125 14.9612 8.30125 14.8054 8.30125C14.8054 8.30125 14.0262 8.45788 13.8703 8.92776C13.5586 9.39764 13.8703 10.0241 14.182 10.494C14.6495 11.4338 16.3638 11.747 17.6106 11.747C19.6366 11.747 21.9742 11.2772 22.4417 11.1205C22.7534 10.9639 22.9093 10.9639 23.221 10.9639C24.3119 10.9639 25.8703 11.4338 25.8703 11.4338C25.8703 11.4338 26.0262 11.4338 26.0262 11.5904C26.182 11.747 37.4028 22.241 39.7404 23.494C40.3638 23.6507 40.9872 23.8073 41.6106 23.8073C44.5716 23.8073 47.221 21.6145 48.0002 20.8314L41.2989 6.42173Z" fill="#543A3A"/>
<path d="M14.4936 29.2892C14.3377 29.2892 14.1819 29.1325 14.1819 29.1325C14.1819 28.9759 14.1819 28.8193 14.1819 28.8193C14.9611 27.5663 15.1169 26.6265 14.6494 25.8434C14.026 24.747 12.0001 24.747 11.8442 24.747C11.6884 24.747 11.5325 24.747 11.5325 24.5904C11.5325 24.4337 11.3767 24.4337 11.3767 24.2771C11.6884 22.8675 11.5325 21.7711 11.065 21.1446C10.5975 20.5181 9.81824 20.3615 9.03902 20.3615C8.41564 20.3615 7.79226 20.5181 7.79226 20.5181C7.79226 20.5181 7.79226 20.5181 7.63642 20.5181C7.48058 20.5181 7.48058 20.5181 7.32473 20.3615C7.16889 20.3615 7.16889 20.2048 7.16889 20.0482C7.16889 19.4217 7.16889 19.1084 6.8572 18.7952C6.70136 18.6386 6.38967 18.4819 6.07798 18.4819C4.98707 18.4819 3.42863 19.4217 2.49356 20.6747C1.09097 22.3976 2.02603 23.9639 2.02603 23.9639L10.9091 34.7711C11.3767 35.0843 11.8442 35.241 12.4676 35.241C13.8702 35.241 15.4286 33.9879 16.5195 31.7952C16.8312 31.1687 16.8312 30.6988 16.6754 30.2289C16.3637 29.6024 14.9611 29.2892 14.4936 29.2892Z" fill="#543A3A"/>
<path d="M38.8048 25.5301C36.3113 24.2771 27.584 16.1325 24.7788 13.4699C24.3113 13.3133 23.5321 13.1566 23.0645 13.1566H22.9087C22.2853 13.3133 19.7918 13.9398 17.4542 13.9398C14.649 13.9398 12.9347 13.1566 11.9996 11.5904C11.3762 9.86747 11.6879 8.61446 11.9996 7.98795C12.623 6.73494 13.8697 6.26506 14.3373 6.26506C15.8957 5.63855 17.4542 5.16867 18.8568 4.54217L7.16844 0C6.54506 0.156626 3.11649 1.25301 0.622985 8.61446C-0.935457 13.3133 0.311296 16.4458 1.71389 18.4819C2.8048 17.3855 4.51909 16.2892 6.23337 16.2892C7.32428 16.2892 8.1035 16.759 8.57104 17.2289C8.72688 17.3855 9.03857 17.6988 9.03857 18.012C10.7529 18.012 11.9996 18.6386 12.7788 19.5783C13.4022 20.3614 13.7139 21.3012 13.7139 22.5542C14.9606 22.8675 15.8957 23.6506 16.5191 24.5904C16.9866 25.5301 17.1425 26.4699 16.8308 27.5663C17.61 27.8795 18.2334 28.506 18.5451 29.1325C19.0126 29.9157 19.3243 31.1687 18.3892 32.7349C17.9217 33.8313 17.2983 34.7711 16.5191 35.3976L17.61 36.6506C19.1684 38.0602 20.571 38.6867 21.8178 38.6867C22.4412 38.6867 23.0645 38.5301 23.6879 38.0602L21.3503 36.0241C20.7269 35.5542 20.7269 34.6145 21.1944 33.9879C21.5061 33.6747 21.8178 33.5181 22.2853 33.5181C22.597 33.5181 23.0645 33.6747 23.2204 33.8313L27.584 37.9036C27.8957 37.9036 28.2074 38.0602 28.5191 38.0602C29.61 38.0602 30.5451 37.5904 31.1684 36.8072L23.9996 30.2289C23.3762 29.759 23.3762 28.8193 23.8438 28.1928C24.1555 27.8795 24.4671 27.7229 24.9347 27.7229C25.2464 27.7229 25.7139 27.8795 25.8697 28.0361L33.3503 34.9277C35.2204 34.9277 36.1554 33.6747 36.4671 32.7349L27.584 24.4337C26.9606 23.9639 26.9606 23.0241 27.4282 22.3976C27.7399 22.0843 28.0516 21.9277 28.5191 21.9277C28.8308 21.9277 29.2983 22.0843 29.4542 22.241L38.1814 30.2289C39.7399 29.2892 40.5191 27.8795 40.2074 26C39.8957 25.8434 39.4282 25.6867 38.8048 25.5301Z" fill="#51CB56"/>
<path d="M41.2989 6.42173C38.9612 7.67475 36.9353 8.14463 35.221 8.14463C34.4417 8.14463 33.6625 7.988 32.8833 7.83137C32.4158 7.67475 31.9482 7.51812 31.3249 7.20487C28.9872 6.26511 25.2469 4.85547 24.156 4.85547C24.0002 4.85547 24.0002 4.85547 24.0002 4.85547C23.0651 5.48197 16.3638 7.83137 14.9612 8.30125C14.9612 8.30125 14.9612 8.30125 14.8054 8.30125C14.8054 8.30125 14.0262 8.45788 13.8703 8.92776C13.5586 9.39764 13.8703 10.0241 14.182 10.494C14.6495 11.4338 16.3638 11.747 17.6106 11.747C19.6366 11.747 21.9742 11.2772 22.4417 11.1205C22.7534 10.9639 22.9093 10.9639 23.221 10.9639C24.3119 10.9639 25.8703 11.4338 25.8703 11.4338C25.8703 11.4338 26.0262 11.4338 26.0262 11.5904C26.182 11.747 37.4028 22.241 39.7404 23.494C40.3638 23.6507 40.9872 23.8073 41.6106 23.8073C44.5716 23.8073 47.221 21.6145 48.0002 20.8314L41.2989 6.42173Z" fill="#543A3A"/>
<path d="M14.4936 29.2892C14.3377 29.2892 14.1819 29.1325 14.1819 29.1325C14.1819 28.9759 14.1819 28.8193 14.1819 28.8193C14.9611 27.5663 15.1169 26.6265 14.6494 25.8434C14.026 24.747 12.0001 24.747 11.8442 24.747C11.6884 24.747 11.5325 24.747 11.5325 24.5904C11.5325 24.4337 11.3767 24.4337 11.3767 24.2771C11.6884 22.8675 11.5325 21.7711 11.065 21.1446C10.5975 20.5181 9.81824 20.3615 9.03902 20.3615C8.41564 20.3615 7.79226 20.5181 7.79226 20.5181C7.79226 20.5181 7.79226 20.5181 7.63642 20.5181C7.48058 20.5181 7.48058 20.5181 7.32473 20.3615C7.16889 20.3615 7.16889 20.2048 7.16889 20.0482C7.16889 19.4217 7.16889 19.1084 6.8572 18.7952C6.70136 18.6386 6.38967 18.4819 6.07798 18.4819C4.98707 18.4819 3.42863 19.4217 2.49356 20.6747C1.09097 22.3976 2.02603 23.9639 2.02603 23.9639L10.9091 34.7711C11.3767 35.0843 11.8442 35.241 12.4676 35.241C13.8702 35.241 15.4286 33.9879 16.5195 31.7952C16.8312 31.1687 16.8312 30.6988 16.6754 30.2289C16.3637 29.6024 14.9611 29.2892 14.4936 29.2892Z" fill="#543A3A"/>
<path d="M41.2989 6.42173C38.9612 7.67475 36.9353 8.14463 35.221 8.14463C34.4417 8.14463 33.6625 7.988 32.8833 7.83137C32.4158 7.67475 31.9482 7.51812 31.3249 7.20487C28.9872 6.26511 25.2469 4.85547 24.156 4.85547C24.0002 4.85547 24.0002 4.85547 24.0002 4.85547C23.0651 5.48197 16.3638 7.83137 14.9612 8.30125C14.9612 8.30125 14.9612 8.30125 14.8054 8.30125C14.8054 8.30125 14.0262 8.45788 13.8703 8.92776C13.5586 9.39764 13.8703 10.0241 14.182 10.494C14.6495 11.4338 16.3638 11.747 17.6106 11.747C19.6366 11.747 21.9742 11.2772 22.4417 11.1205C22.7534 10.9639 22.9093 10.9639 23.221 10.9639C24.3119 10.9639 25.8703 11.4338 25.8703 11.4338C25.8703 11.4338 26.0262 11.4338 26.0262 11.5904C26.182 11.747 37.4028 22.241 39.7404 23.494C40.3638 23.6507 40.9872 23.8073 41.6106 23.8073C44.5716 23.8073 47.221 21.6145 48.0002 20.8314L41.2989 6.42173Z" fill="#7449D0"/>
<path d="M14.4936 29.2892C14.3377 29.2892 14.1819 29.1325 14.1819 29.1325C14.1819 28.9759 14.1819 28.8193 14.1819 28.8193C14.9611 27.5663 15.1169 26.6265 14.6494 25.8434C14.026 24.747 12.0001 24.747 11.8442 24.747C11.6884 24.747 11.5325 24.747 11.5325 24.5904C11.5325 24.4337 11.3767 24.4337 11.3767 24.2771C11.6884 22.8675 11.5325 21.7711 11.065 21.1446C10.5975 20.5181 9.81824 20.3615 9.03902 20.3615C8.41564 20.3615 7.79226 20.5181 7.79226 20.5181C7.79226 20.5181 7.79226 20.5181 7.63642 20.5181C7.48058 20.5181 7.48058 20.5181 7.32473 20.3615C7.16889 20.3615 7.16889 20.2048 7.16889 20.0482C7.16889 19.4217 7.16889 19.1084 6.8572 18.7952C6.70136 18.6386 6.38967 18.4819 6.07798 18.4819C4.98707 18.4819 3.42863 19.4217 2.49356 20.6747C1.09097 22.3976 2.02603 23.9639 2.02603 23.9639L10.9091 34.7711C11.3767 35.0843 11.8442 35.241 12.4676 35.241C13.8702 35.241 15.4286 33.9879 16.5195 31.7952C16.8312 31.1687 16.8312 30.6988 16.6754 30.2289C16.3637 29.6024 14.9611 29.2892 14.4936 29.2892Z" fill="#7449D0"/>
</g>
<defs>
<clipPath id="clip0">
<rect width="48" height="39" fill="white"/>
</clipPath>
</defs>
</svg>
