<svg width="54" height="54" viewBox="0 0 54 54" fill="none" xmlns="http://www.w3.org/2000/svg">
<path d="M51.5 26.9121C51.5 13.4378 40.5394 2.50071 27.0013 2.5C13.4678 2.51514 2.51434 13.445 2.5 26.9148C2.50145 40.3883 13.4622 51.3242 27 51.3242C40.5387 51.3242 51.5 40.3869 51.5 26.9121Z" stroke="#7449D0" stroke-width="5"/>
<path d="M26.8565 26.846H25.3565V25.346V11.8899C25.3565 11.6612 25.1692 11.4675 24.9279 11.4675C24.6867 11.4675 24.4994 11.6611 24.4994 11.8899V27.2683C24.4994 27.497 24.6867 27.6907 24.928 27.6907H40.3565C40.5979 27.6907 40.7852 27.497 40.7852 27.2683C40.7852 27.0396 40.5979 26.846 40.3565 26.846H26.8565Z" stroke="#51CB56" stroke-width="3"/>
</svg>
