<svg width="33" height="60" viewBox="0 0 33 60" fill="none" xmlns="http://www.w3.org/2000/svg">
<path d="M29.1526 20.8234L25.7629 31.5645L25.5505 31.4837L2.92004 22.9348C2.95084 20.1325 2.97841 17.2348 2.97841 14.1614C2.97841 13.4915 3.52309 12.9507 4.19423 12.9507H27.8995C28.5722 12.9507 29.1153 13.4915 29.1153 14.1614C29.1153 16.4697 29.1315 18.6797 29.1526 20.8234V20.8234Z" fill="white"/>
<path d="M29.1524 20.8234L25.7627 31.5645L25.5503 31.4837C25.5308 25.3399 25.0267 18.912 24.803 12.9507H27.8993C28.572 12.9507 29.1151 13.4915 29.1151 14.1614C29.1151 16.4697 29.1313 18.6797 29.1524 20.8234Z" fill="white"/>
<path d="M24.4839 56.0418C22.4495 58.0887 19.6904 59.0847 16.0478 59.0847C15.3053 59.0847 14.5985 59.0427 13.929 58.9588C11.3093 58.6344 9.22943 57.6723 7.61158 56.042C2.60564 51.0007 2.72398 40.3711 2.90554 24.2788C2.91041 23.8333 2.91527 23.3844 2.92013 22.9341C3.75986 22.1367 10.1243 16.5772 20.1556 20.7371C22.2873 21.6217 23.9555 21.9753 25.2475 22.0349C27.8072 22.1575 28.8868 21.1341 29.1527 20.8225C29.164 21.9913 29.177 23.1422 29.19 24.2786C29.3699 40.3709 29.4899 51.0005 24.4839 56.0418V56.0418Z" fill="url(#paint0_linear)"/>
<path d="M31.9278 13.9999C31.8905 14.5891 31.4318 15.0654 30.8417 15.1267C30.7996 15.1315 29.4622 15.2671 27.1959 15.414C24.4967 15.5883 20.4748 15.7788 15.7428 15.7788C11.3627 15.7788 6.37456 15.6158 1.26325 15.1283C0.668314 15.0701 0.204678 14.5923 0.165772 13.9999C-0.198974 8.31289 0.149561 2.05125 0.165772 1.7882C0.199815 1.19099 0.665072 0.708182 1.26325 0.651789C11.7971 -0.355515 21.8122 0.0206487 27.0532 0.356417C29.407 0.506527 30.7979 0.648558 30.8417 0.653405C31.435 0.714807 31.8954 1.19584 31.9295 1.7882C31.944 2.05125 32.2942 8.31306 31.9278 13.9999Z" fill="url(#paint1_linear)"/>
<path d="M16.047 4.9082C15.3754 4.9082 14.8312 5.45015 14.8312 6.11893V9.48678C14.8312 10.1556 15.3754 10.6975 16.047 10.6975C16.7186 10.6975 17.2628 10.1556 17.2628 9.48678V6.11893C17.2628 5.45015 16.7186 4.9082 16.047 4.9082V4.9082Z" fill="white"/>
<path d="M8.91418 4.9082C8.24257 4.9082 7.69836 5.45015 7.69836 6.11893V9.48678C7.69836 10.1556 8.24257 10.6975 8.91418 10.6975C9.5858 10.6975 10.13 10.1556 10.13 9.48678V6.11893C10.13 5.45015 9.5858 4.9082 8.91418 4.9082V4.9082Z" fill="white"/>
<path d="M23.1798 4.9082C22.5082 4.9082 21.964 5.45015 21.964 6.11893V9.48678C21.964 10.1556 22.5082 10.6975 23.1798 10.6975C23.8514 10.6975 24.3956 10.1556 24.3956 9.48678V6.11893C24.3956 5.45015 23.8514 4.9082 23.1798 4.9082V4.9082Z" fill="white"/>
<path d="M17.7642 29.1023H21.1386C21.8102 29.1023 22.3544 28.5604 22.3544 27.8916C22.3544 27.2229 21.8102 26.6809 21.1386 26.6809H17.7642C17.0925 26.6809 16.5483 27.2229 16.5483 27.8916C16.5483 28.5604 17.0927 29.1023 17.7642 29.1023Z" fill="white"/>
<path d="M21.1387 33.1531H14.5221C13.8505 33.1531 13.3063 33.695 13.3063 34.3638C13.3063 35.0325 13.8505 35.5745 14.5221 35.5745H21.1387C21.8104 35.5745 22.3546 35.0325 22.3546 34.3638C22.3546 33.695 21.8102 33.1531 21.1387 33.1531V33.1531Z" fill="white"/>
<path d="M21.1387 39.6235H17.7643C17.0927 39.6235 16.5485 40.1656 16.5485 40.8345C16.5485 41.5034 17.0927 42.0454 17.7643 42.0454H21.1387C21.8104 42.0454 22.3546 41.5034 22.3546 40.8345C22.3546 40.1656 21.8102 39.6235 21.1387 39.6235V39.6235Z" fill="white"/>
<path d="M21.1387 46.0959H14.5221C13.8505 46.0959 13.3063 46.6379 13.3063 47.3066C13.3063 47.9754 13.8505 48.5173 14.5221 48.5173H21.1387C21.8104 48.5173 22.3546 47.9754 22.3546 47.3066C22.3546 46.6379 21.8102 46.0959 21.1387 46.0959V46.0959Z" fill="white"/>
<defs>
<linearGradient id="paint0_linear" x1="2.84314" y1="39.1464" x2="29.2518" y2="39.1464" gradientUnits="userSpaceOnUse">
<stop stop-color="#7449D0"/>
<stop offset="1" stop-color="#472297" stop-opacity="0.45"/>
</linearGradient>
<linearGradient id="paint1_linear" x1="0" y1="7.8894" x2="32.0944" y2="7.8894" gradientUnits="userSpaceOnUse">
<stop stop-color="#1E67B7"/>
<stop offset="1" stop-color="#5EC1CB"/>
</linearGradient>
</defs>
</svg>
