<svg width="72" height="56" viewBox="0 0 72 56" fill="none" xmlns="http://www.w3.org/2000/svg">
<path d="M49.9713 4.71946L49.9718 4.72014C53.312 8.89699 56.0645 14.3312 56.0645 19.803C56.0645 26.0068 53.7206 29.4413 51.1206 30.8176L51.0982 30.8294L51.0778 30.8431L51.0776 30.8432L51.0776 30.8432L51.0774 30.8433L51.0772 30.8435L51.0748 30.845L51.0597 30.8548C51.0455 30.8638 51.0231 30.8779 50.9928 30.8964C50.9322 30.9332 50.8402 30.9874 50.7197 31.0531C50.4785 31.1847 50.1244 31.3619 49.6803 31.5395C48.7898 31.8957 47.5517 32.248 46.1446 32.248C44.7415 32.248 43.6567 31.8976 42.9269 31.5519C42.5616 31.3789 42.2854 31.207 42.1035 31.081C42.0125 31.018 41.9454 30.9667 41.9026 30.9326C41.8812 30.9155 41.8659 30.9028 41.8569 30.8951L41.848 30.8874L41.8479 30.8874L41.8475 30.887L41.8472 30.8867L41.847 30.8866L41.8282 30.8696L41.8061 30.8537C39.796 29.4067 38.3616 27.9732 37.3707 26.553C36.654 24.6926 36.2247 22.3536 36.2247 19.8027C36.2247 12.2766 41.436 4.83919 46.1449 0.663398C47.4165 1.78968 48.7313 3.16335 49.9713 4.71946Z" fill="url(#paint0_linear)" stroke="#7449D0"/>
<mask id="path-2-inside-1" fill="white">
<path d="M54.3584 40.0605L58.3973 31.674C59.2209 29.9622 61.2265 29.1834 62.9853 29.8824C62.9942 29.8859 63.0029 29.8893 63.0118 29.8928C64.8668 30.6454 65.7545 32.7635 64.9931 34.6151L64.1647 36.6293"/>
</mask>
<path d="M54.3584 40.0605L58.3973 31.674C59.2209 29.9622 61.2265 29.1834 62.9853 29.8824C62.9942 29.8859 63.0029 29.8893 63.0118 29.8928C64.8668 30.6454 65.7545 32.7635 64.9931 34.6151L64.1647 36.6293" fill="url(#paint1_linear)"/>
<path d="M58.3973 31.674L59.2982 32.1079L59.2984 32.1076L58.3973 31.674ZM62.9853 29.8824L62.616 30.8117L62.6192 30.8129L62.9853 29.8824ZM63.0118 29.8928L63.3877 28.9661L63.3779 28.9623L63.0118 29.8928ZM64.9931 34.6151L65.9179 34.9955L65.9179 34.9954L64.9931 34.6151ZM55.2594 40.4944L59.2982 32.1079L57.4963 31.2401L53.4574 39.6266L55.2594 40.4944ZM59.2984 32.1076C59.8941 30.8695 61.3446 30.3064 62.616 30.8117L63.3546 28.9531C61.1084 28.0605 58.5477 29.0549 57.4961 31.2404L59.2984 32.1076ZM62.6192 30.8129C62.6221 30.8141 62.6252 30.8153 62.6298 30.8171C62.634 30.8188 62.6397 30.8211 62.6456 30.8234L63.3779 28.9623C63.375 28.9611 63.3719 28.9599 63.3673 28.9581C63.3631 28.9564 63.3574 28.9542 63.3514 28.9518L62.6192 30.8129ZM62.6358 30.8195C63.9765 31.3634 64.6193 32.8949 64.0683 34.2347L65.9179 34.9954C66.8898 32.6322 65.757 29.9274 63.3877 28.9662L62.6358 30.8195ZM64.0683 34.2347L63.2398 36.2489L65.0895 37.0097L65.9179 34.9955L64.0683 34.2347Z" fill="#7449D0" mask="url(#path-2-inside-1)"/>
<mask id="path-4-inside-2" fill="white">
<path d="M0 28.6597L11.6673 20.8873C15.2213 18.5188 19.6861 17.8344 23.7219 19.2211C23.8855 19.2771 24.05 19.3356 24.2104 19.3993L46.1545 27.8169C47.1511 28.197 47.8883 28.9519 48.277 29.8536C48.6776 30.7825 48.7109 31.8667 48.2716 32.8696C47.4828 34.6776 45.438 35.5787 43.571 34.9386L29.6488 30.1778C28.7859 29.8823 27.8921 29.9438 27.1216 30.2759C26.1682 30.6872 25.403 31.5127 25.1147 32.6027C24.645 34.3767 25.6209 36.2112 27.3538 36.8183L43.3091 42.394C44.7284 42.8901 46.2733 42.8882 47.69 42.394L65.9823 35.9933C68.2261 35.2073 70.69 36.2929 71.6281 38.4679C71.6327 38.479 71.6375 38.4897 71.6422 38.5008C72.6179 40.8084 71.5289 43.4684 69.2168 44.433L45.2881 54.4143C42.8829 55.4191 40.1955 55.5216 37.7213 54.7059L12.8535 46.5122C11.9274 46.2066 10.9411 46.1568 9.99837 46.3593C9.28481 46.5126 8.69278 47.1771 7.96449 47.1297"/>
</mask>
<path d="M0 28.6597L11.6673 20.8873C15.2213 18.5188 19.6861 17.8344 23.7219 19.2211C23.8855 19.2771 24.05 19.3356 24.2104 19.3993L46.1545 27.8169C47.1511 28.197 47.8883 28.9519 48.277 29.8536C48.6776 30.7825 48.7109 31.8667 48.2716 32.8696C47.4828 34.6776 45.438 35.5787 43.571 34.9386L29.6488 30.1778C28.7859 29.8823 27.8921 29.9438 27.1216 30.2759C26.1682 30.6872 25.403 31.5127 25.1147 32.6027C24.645 34.3767 25.6209 36.2112 27.3538 36.8183L43.3091 42.394C44.7284 42.8901 46.2733 42.8882 47.69 42.394L65.9823 35.9933C68.2261 35.2073 70.69 36.2929 71.6281 38.4679C71.6327 38.479 71.6375 38.4897 71.6422 38.5008C72.6179 40.8084 71.5289 43.4684 69.2168 44.433L45.2881 54.4143C42.8829 55.4191 40.1955 55.5216 37.7213 54.7059L12.8535 46.5122C11.9274 46.2066 10.9411 46.1568 9.99837 46.3593C9.28481 46.5126 8.69278 47.1771 7.96449 47.1297" fill="#7449D0"/>
<path d="M11.6673 20.8873L12.2217 21.7195L12.2218 21.7194L11.6673 20.8873ZM23.7219 19.2211L23.397 20.1668L23.3982 20.1672L23.7219 19.2211ZM24.2104 19.3993L23.8413 20.3288L23.8522 20.333L24.2104 19.3993ZM46.1545 27.8169L45.7963 28.7506L45.7981 28.7512L46.1545 27.8169ZM48.277 29.8536L47.3587 30.2495L47.3587 30.2497L48.277 29.8536ZM48.2716 32.8696L47.3556 32.4683L47.355 32.4697L48.2716 32.8696ZM43.571 34.9386L43.8954 33.9926L43.8946 33.9923L43.571 34.9386ZM29.6488 30.1778L29.3248 31.1239L29.3253 31.124L29.6488 30.1778ZM27.1216 30.2759L26.7257 29.3576L26.7256 29.3577L27.1216 30.2759ZM25.1147 32.6027L26.0814 32.8586L26.0815 32.8583L25.1147 32.6027ZM27.3538 36.8183L27.0232 37.7621L27.0239 37.7623L27.3538 36.8183ZM43.3091 42.394L43.639 41.45L43.639 41.4499L43.3091 42.394ZM47.69 42.394L48.0194 43.3382L48.0203 43.3379L47.69 42.394ZM65.9823 35.9933L66.3126 36.9372L66.313 36.9371L65.9823 35.9933ZM71.6281 38.4679L72.5498 38.0798L72.5463 38.0719L71.6281 38.4679ZM71.6422 38.5008L70.7206 38.8888L70.7211 38.8902L71.6422 38.5008ZM69.2168 44.433L69.6017 45.3559L69.6018 45.3559L69.2168 44.433ZM45.2881 54.4143L44.9031 53.4914L44.9026 53.4916L45.2881 54.4143ZM37.7213 54.7059L38.0344 53.7562L38.0343 53.7562L37.7213 54.7059ZM12.8535 46.5122L12.5401 47.4618L12.5405 47.462L12.8535 46.5122ZM9.99837 46.3593L10.2084 47.337L9.99837 46.3593ZM0.554418 29.492L12.2217 21.7195L11.1129 20.055L-0.554418 27.8275L0.554418 29.492ZM12.2218 21.7194C15.5326 19.5131 19.674 18.8876 23.397 20.1668L24.0469 18.2754C19.6983 16.7812 14.91 17.5246 11.1127 20.0551L12.2218 21.7194ZM23.3982 20.1672C23.5549 20.2209 23.7024 20.2736 23.8413 20.3287L24.5794 18.4699C24.3977 18.3977 24.216 18.3332 24.0457 18.275L23.3982 20.1672ZM23.8522 20.333L45.7963 28.7506L46.5126 26.8832L24.5685 18.4656L23.8522 20.333ZM45.7981 28.7512C46.53 29.0304 47.0715 29.5833 47.3587 30.2495L49.1953 29.4578C48.705 28.3205 47.7722 27.3637 46.5109 26.8826L45.7981 28.7512ZM47.3587 30.2497C47.6552 30.937 47.6781 31.7321 47.3556 32.4683L49.1876 33.2708C49.7437 32.0013 49.7 30.6281 49.1952 29.4576L47.3587 30.2497ZM47.355 32.4697C46.7744 33.8007 45.2692 34.4637 43.8954 33.9926L43.2467 35.8845C45.6067 36.6938 48.1913 35.5546 49.1882 33.2694L47.355 32.4697ZM43.8946 33.9923L29.9724 29.2316L29.3253 31.124L43.2475 35.8848L43.8946 33.9923ZM29.9728 29.2317C28.864 28.852 27.7136 28.9317 26.7257 29.3576L27.5175 31.1942C28.0705 30.9558 28.7078 30.9125 29.3248 31.1239L29.9728 29.2317ZM26.7256 29.3577C25.5044 29.8844 24.5185 30.9457 24.1479 32.347L26.0815 32.8583C26.2874 32.0796 26.832 31.4899 27.5177 31.1942L26.7256 29.3577ZM24.148 32.3467C23.5443 34.627 24.7992 36.983 27.0232 37.7621L27.6844 35.8745C26.4426 35.4395 25.7457 34.1264 26.0814 32.8586L24.148 32.3467ZM27.0239 37.7623L42.9792 43.338L43.639 41.4499L27.6837 35.8743L27.0239 37.7623ZM42.9791 43.338C44.6127 43.909 46.39 43.9066 48.0194 43.3382L47.3606 41.4498C46.1565 41.8698 44.8441 41.8712 43.639 41.45L42.9791 43.338ZM48.0203 43.3379L66.3126 36.9372L65.6521 35.0494L47.3597 41.4501L48.0203 43.3379ZM66.313 36.9371C68.0606 36.3249 69.9795 37.1705 70.7099 38.8639L72.5463 38.0719C71.4006 35.4154 68.3916 34.0898 65.6517 35.0496L66.313 36.9371ZM70.7065 38.856C70.7111 38.8671 70.7156 38.8773 70.7176 38.882C70.7203 38.8882 70.7206 38.8889 70.7206 38.8888L72.5638 38.1127C72.5592 38.1016 72.5547 38.0914 72.5527 38.0867C72.55 38.0805 72.5497 38.0798 72.5497 38.0798L70.7065 38.856ZM70.7211 38.8902C71.4807 40.6866 70.6333 42.7585 68.8317 43.5101L69.6018 45.3559C72.4246 44.1783 73.7551 40.9303 72.5632 38.1113L70.7211 38.8902ZM68.8318 43.5101L44.9031 53.4914L45.6731 55.3372L69.6017 45.3559L68.8318 43.5101ZM44.9026 53.4916C42.7197 54.4035 40.2803 54.4966 38.0344 53.7562L37.4082 55.6557C40.1106 56.5465 43.046 56.4347 45.6736 55.337L44.9026 53.4916ZM38.0343 53.7562L13.1664 45.5624L12.5405 47.462L37.4084 55.6557L38.0343 53.7562ZM13.1669 45.5626C12.0707 45.2008 10.9038 45.1421 9.78839 45.3816L10.2084 47.337C10.9785 47.1716 11.7841 47.2123 12.5401 47.4618L13.1669 45.5626ZM9.78839 45.3816C9.24914 45.4974 8.75067 45.8093 8.50743 45.9422C8.18133 46.1204 8.0785 46.135 8.02943 46.1318L7.89955 48.1276C8.57877 48.1718 9.1361 47.8778 9.46648 47.6973C9.87972 47.4715 10.0341 47.3745 10.2084 47.337L9.78839 45.3816Z" fill="#7449D0" mask="url(#path-4-inside-2)"/>
<defs>
<linearGradient id="paint0_linear" x1="56.5645" y1="16.374" x2="35.7247" y2="16.374" gradientUnits="userSpaceOnUse">
<stop stop-color="#1B9820"/>
<stop offset="1" stop-color="#51CB56"/>
</linearGradient>
<linearGradient id="paint1_linear" x1="59.8121" y1="29.6267" x2="59.8121" y2="40.0605" gradientUnits="userSpaceOnUse">
<stop stop-color="#472297"/>
</linearGradient>
</defs>
</svg>
