<svg width="17" height="17" viewBox="0 0 17 17" fill="none" xmlns="http://www.w3.org/2000/svg">
<path d="M2.19604 0.122559H14.6403C15.7906 0.122559 16.8363 1.06372 16.8363 2.3186V14.7628C16.8363 15.9131 15.8951 16.9588 14.6403 16.9588H2.19604C1.04573 16.9588 0 16.0177 0 14.7628V2.3186C0.104573 1.06372 1.04573 0.122559 2.19604 0.122559ZM12.2351 2.00488C11.8168 2.00488 11.5031 2.3186 11.5031 2.73689V4.51463C11.5031 4.93293 11.8168 5.24665 12.2351 5.24665H14.1174C14.5357 5.24665 14.8494 4.93293 14.8494 4.51463V2.73689C14.8494 2.3186 14.5357 2.00488 14.1174 2.00488H12.2351ZM14.954 7.23354H13.4899C13.5945 7.65183 13.6991 8.1747 13.6991 8.69756C13.6991 11.521 11.3985 13.7171 8.47043 13.7171C5.64695 13.7171 3.24177 11.4165 3.24177 8.69756C3.24177 8.1747 3.34634 7.7564 3.45092 7.23354H1.88232V14.3445C1.88232 14.6582 2.19604 14.972 2.50976 14.972H14.1174C14.4311 14.972 14.7448 14.6582 14.7448 14.3445V7.23354H14.954ZM8.47043 5.24665C6.58811 5.24665 5.12409 6.71067 5.12409 8.48842C5.12409 10.2662 6.58811 11.7302 8.47043 11.7302C10.3527 11.7302 11.8168 10.2662 11.8168 8.48842C11.8168 6.6061 10.3527 5.24665 8.47043 5.24665Z" fill="#C4C4C4"/>
</svg>
