<svg width="22" height="22" viewBox="0 0 22 22" fill="none" xmlns="http://www.w3.org/2000/svg">
<path d="M2.80605 0.433594H18.707C20.1768 0.433594 21.513 1.63619 21.513 3.23964V19.1406C21.513 20.6104 20.3104 21.9466 18.707 21.9466H2.80605C1.33621 21.9466 0 20.744 0 19.1406V3.23964C0.133621 1.63619 1.33621 0.433594 2.80605 0.433594ZM15.6337 2.83878C15.0992 2.83878 14.6983 3.23964 14.6983 3.77412V6.04569C14.6983 6.58017 15.0992 6.98103 15.6337 6.98103H18.0389C18.5733 6.98103 18.9742 6.58017 18.9742 6.04569V3.77412C18.9742 3.23964 18.5733 2.83878 18.0389 2.83878H15.6337ZM19.1078 9.51983H17.2371C17.3708 10.0543 17.5044 10.7224 17.5044 11.3905C17.5044 14.9983 14.5647 17.8043 10.8233 17.8043C7.21555 17.8043 4.14226 14.8647 4.14226 11.3905C4.14226 10.7224 4.27588 10.1879 4.4095 9.51983H2.40518V18.6061C2.40518 19.0069 2.80604 19.4078 3.20691 19.4078H18.0389C18.4397 19.4078 18.8406 19.0069 18.8406 18.6061V9.51983H19.1078ZM10.8233 6.98103C8.41814 6.98103 6.54744 8.85173 6.54744 11.1233C6.54744 13.3949 8.41814 15.2655 10.8233 15.2655C13.2285 15.2655 15.0992 13.3949 15.0992 11.1233C15.0992 8.71811 13.2285 6.98103 10.8233 6.98103Z" fill="#7449D0"/>
</svg>
