<svg width="335" height="81" viewBox="0 0 335 81" fill="none" xmlns="http://www.w3.org/2000/svg">
<g clip-path="url(#clip0)">
<path d="M209.901 30.6133H226.987V32.7155H212.342V40.4016H219.991C222.759 40.4016 224.852 40.9709 226.29 42.1096C227.728 43.2483 228.448 44.9125 228.448 47.0804C228.448 49.3359 227.685 51.0658 226.137 52.2702C224.59 53.4746 222.367 54.0877 219.49 54.0877H209.944V30.6133H209.901ZM219.403 52.095C221.561 52.095 223.195 51.679 224.285 50.8469C225.396 50.0147 225.941 48.7885 225.941 47.168C225.941 45.5695 225.396 44.3651 224.328 43.5549C223.239 42.7666 221.604 42.3724 219.403 42.3724H212.32V52.095H219.403Z" fill="#7449D0"/>
<path d="M250.264 40.8615C251.724 42.1096 252.443 43.949 252.443 46.3578C252.443 48.8761 251.68 50.8031 250.133 52.1169C248.585 53.4308 246.362 54.0877 243.442 54.0877H234.157V30.6133H236.598V38.9782H243.943C246.689 38.9782 248.803 39.6133 250.264 40.8615ZM248.28 50.6498C249.414 49.6863 249.958 48.2629 249.958 46.4016C249.958 42.8104 247.757 40.9928 243.355 40.9928H236.577V52.095H243.355C245.512 52.095 247.169 51.6133 248.28 50.6498Z" fill="#7449D0"/>
<path d="M282.672 31.949C284.459 32.9782 285.854 34.4016 286.856 36.2191C287.859 38.0366 288.382 40.0731 288.382 42.3286C288.382 44.5841 287.881 46.6206 286.856 48.4381C285.854 50.2556 284.437 51.679 282.672 52.7082C280.885 53.7374 278.901 54.241 276.7 54.241C274.608 54.241 272.712 53.7812 270.99 52.8395C269.268 51.8979 267.895 50.5841 266.849 48.9198C265.803 47.2337 265.215 45.3505 265.084 43.2483H260.289V54.0439H257.848V30.6133H260.289V41.0366H265.127C265.302 39.0001 265.912 37.1826 266.98 35.5622C268.026 33.9417 269.421 32.6717 271.099 31.7739C272.799 30.876 274.652 30.4162 276.7 30.4162C278.901 30.3943 280.885 30.9198 282.672 31.949ZM281.408 50.8031C282.803 49.9709 283.914 48.8103 284.721 47.3432C285.527 45.876 285.919 44.2118 285.919 42.3505C285.919 40.4892 285.527 38.8249 284.721 37.3578C283.914 35.8906 282.824 34.7301 281.408 33.8979C280.013 33.0658 278.444 32.6498 276.7 32.6498C274.978 32.6498 273.431 33.0658 272.036 33.8979C270.641 34.7301 269.53 35.8906 268.724 37.3578C267.917 38.8249 267.525 40.4892 267.525 42.3505C267.525 44.2118 267.917 45.876 268.724 47.3432C269.53 48.8103 270.62 49.9709 272.036 50.8031C273.453 51.6352 275 52.0512 276.7 52.0512C278.444 52.0512 280.013 51.6352 281.408 50.8031Z" fill="#7449D0"/>
<path d="M309.261 32.7593H301.044V54.0877H298.603V32.7593H290.387V30.6133H309.239V32.7593H309.261Z" fill="#7449D0"/>
<path d="M313.598 30.6133H316.039V50.0585L330.99 30.6133H333.235V54.0877H330.794V34.6644L315.843 54.0877H313.598V30.6133Z" fill="#7449D0"/>
<path d="M299.214 14.9561V23.321H298.408V15.6787H292.719V23.321H291.913V14.9561H299.214Z" fill="#231F20"/>
<path d="M310.983 19.1607C310.983 21.6789 309.218 23.4089 306.864 23.4089C305.404 23.4089 304.14 22.6862 303.486 21.4381V26.4527H302.679V14.9563H303.442V16.9271C304.096 15.6352 305.36 14.8906 306.864 14.8906C309.218 14.8906 310.983 16.6425 310.983 19.1607ZM310.177 19.1607C310.177 17.0585 308.716 15.6352 306.798 15.6352C304.881 15.6352 303.442 17.0585 303.442 19.1607C303.442 21.2629 304.881 22.6862 306.798 22.6862C308.716 22.6862 310.177 21.241 310.177 19.1607Z" fill="#231F20"/>
<path d="M312.748 19.1603C312.748 16.6639 314.513 14.9121 316.911 14.9121C319.308 14.9121 321.073 16.6858 321.073 19.1603C321.073 21.6347 319.308 23.4085 316.911 23.4085C314.513 23.4085 312.748 21.6347 312.748 19.1603ZM320.267 19.1603C320.267 17.0581 318.829 15.6347 316.911 15.6347C314.993 15.6347 313.554 17.0581 313.554 19.1603C313.554 21.2625 314.993 22.6858 316.911 22.6858C318.829 22.6858 320.267 21.2406 320.267 19.1603Z" fill="#231F20"/>
<path d="M328.462 23.4088V26.4307H327.677V23.4088C324.583 23.3212 322.795 21.7664 322.795 19.1168C322.795 16.511 324.604 14.9781 327.677 14.8905V11.4307H328.462V14.8905C331.557 14.9781 333.344 16.5329 333.344 19.1168C333.344 21.7664 331.557 23.2993 328.462 23.4088ZM327.677 22.6861V15.6131C325.018 15.7226 323.58 16.9927 323.58 19.1168C323.602 21.3066 325.04 22.5766 327.677 22.6861ZM332.559 19.1387C332.559 16.9927 331.099 15.7445 328.462 15.635V22.708C331.099 22.5766 332.559 21.3066 332.559 19.1387Z" fill="#231F20"/>
<path d="M18.8521 32.7593H10.6356V54.0877H8.21645V32.7593H0V30.6133H18.8521V32.7593Z" fill="#7449D0"/>
<path d="M39.4041 51.9199V54.0658H22.884V30.6133H38.9028V32.7593H25.3468V41.1023H37.4208V43.2045H25.3468V51.9199H39.4041Z" fill="#7449D0"/>
<path d="M62.8984 30.6133V54.0877H60.4575V32.7593H49.168L48.9065 40.5987C48.7975 43.8396 48.536 46.4454 48.1219 48.4381C47.7078 50.4089 47.0758 51.8979 46.2258 52.8615C45.3758 53.825 44.2643 54.3286 42.8477 54.3286C42.2375 54.3286 41.6272 54.241 40.9734 54.0877L41.1695 51.876C41.54 51.9636 41.9105 52.0074 42.281 52.0074C43.2618 52.0074 44.0464 51.6133 44.6566 50.825C45.2669 50.0366 45.7245 48.8323 46.0515 47.1899C46.3566 45.5476 46.5745 43.3797 46.6835 40.6644L47.0104 30.6133H62.8984Z" fill="#7449D0"/>
<path d="M74.4275 52.7079C72.5532 51.6787 71.0712 50.2334 70.0251 48.4378C68.9789 46.6203 68.4341 44.5838 68.4341 42.3283C68.4341 40.0729 68.9571 38.0364 70.0251 36.2189C71.0712 34.4013 72.5532 32.978 74.4275 31.9488C76.3018 30.9196 78.3941 30.394 80.7261 30.394C83.0363 30.394 85.1285 30.8977 86.981 31.9269C88.8335 32.9561 90.2938 34.3794 91.3617 36.197C92.4296 38.0145 92.9527 40.051 92.9527 42.3064C92.9527 44.5619 92.4078 46.5984 91.3617 48.4159C90.2938 50.2334 88.8335 51.6568 86.981 52.686C85.1285 53.7152 83.0363 54.2188 80.7261 54.2188C78.4159 54.2845 76.3018 53.759 74.4275 52.7079ZM85.7387 50.8028C87.2208 49.9707 88.3976 48.8101 89.2476 47.321C90.0976 45.832 90.5117 44.1678 90.5117 42.3502C90.5117 40.5108 90.0976 38.8685 89.2476 37.3794C88.3976 35.8904 87.2425 34.7298 85.7387 33.8977C84.2567 33.0656 82.5786 32.6495 80.7261 32.6495C78.8735 32.6495 77.1954 33.0656 75.7134 33.8977C74.2096 34.7298 73.0327 35.8904 72.1827 37.3794C71.3327 38.8685 70.8968 40.5327 70.8968 42.3502C70.8968 44.1897 71.3327 45.8539 72.1827 47.321C73.0327 48.8101 74.2096 49.9707 75.7134 50.8028C77.2172 51.6349 78.8953 52.051 80.7261 52.051C82.5786 52.051 84.2349 51.6349 85.7387 50.8028Z" fill="#7449D0"/>
<path d="M102.52 52.73C100.668 51.7008 99.2075 50.2774 98.1396 48.4599C97.0934 46.6424 96.5486 44.6059 96.5486 42.3504C96.5486 40.0949 97.0716 38.0584 98.1396 36.2409C99.1857 34.4234 100.668 33 102.52 31.9708C104.395 30.9416 106.487 30.438 108.797 30.438C110.541 30.438 112.132 30.7227 113.592 31.3139C115.052 31.9051 116.316 32.7373 117.319 33.854L115.749 35.4307C113.919 33.5694 111.63 32.6497 108.841 32.6497C106.988 32.6497 105.31 33.0657 103.806 33.9197C102.302 34.7738 101.104 35.9343 100.254 37.4015C99.4036 38.8686 98.9678 40.5329 98.9678 42.3723C98.9678 44.2117 99.4036 45.8541 100.254 47.3431C101.104 48.8103 102.302 49.9708 103.806 50.8249C105.31 51.6789 106.988 52.0949 108.841 52.0949C111.652 52.0949 113.94 51.1533 115.749 49.2701L117.319 50.8468C116.294 51.9635 115.052 52.8176 113.57 53.4088C112.088 54 110.475 54.3066 108.753 54.3066C106.465 54.2847 104.395 53.7592 102.52 52.73Z" fill="#7449D0"/>
<path d="M3.22569 76.8174H1.15523V80.9342H0.523193V72.2627H1.15523V76.2481H3.22569L6.32048 72.2627H7.01789L3.72695 76.489L7.25763 80.9342H6.51662L3.22569 76.8174Z" fill="#231F20"/>
<path d="M17.5662 72.2627V80.9342H16.9342V72.832H12.4664L12.3574 76.0072C12.2266 79.489 11.66 80.9999 10.2216 80.9999C10.0254 80.9999 9.82927 80.978 9.61133 80.9342L9.67671 80.343C9.82927 80.3868 9.93824 80.3868 10.0908 80.3868C11.2023 80.3868 11.66 79.1386 11.7908 76.0291L11.9215 72.2627H17.5662Z" fill="#231F20"/>
<path d="M22.7751 72.2627H23.4072V79.8612L29.2916 72.2627H29.8365V80.9342H29.2045V73.3576L23.32 80.9342H22.7751V72.2627Z" fill="#231F20"/>
<path d="M42.0629 72.2627V80.9342H41.4309V76.8174H35.6772V80.9342H35.0452V72.2627H35.6772V76.2481H41.4309V72.2627H42.0629Z" fill="#231F20"/>
<path d="M47.2937 72.2627H47.9257V79.8612L53.8102 72.2627H54.355V80.9342H53.723V73.3576L47.8386 80.9342H47.2937V72.2627Z" fill="#231F20"/>
<path d="M62.2447 76.8174H60.1743V80.9342H59.5422V72.2627H60.1743V76.2481H62.2447L65.3395 72.2627H66.0369L62.746 76.489L66.2767 80.9342H65.5357L62.2447 76.8174Z" fill="#231F20"/>
<path d="M75.2992 78.4816H70.3083L69.2186 80.9123H68.543L72.5095 72.2407H73.1416L77.1081 80.9123H76.4325L75.2992 78.4816ZM75.0595 77.9561L72.7929 72.9634L70.548 77.9561H75.0595Z" fill="#231F20"/>
<path d="M92.6041 76.5982C92.6041 79.1165 90.7734 80.9997 88.3761 80.9997C87.0902 80.9997 85.9569 80.6055 85.1941 79.7953L85.5864 79.3793C86.3274 80.1238 87.2645 80.4085 88.3543 80.4085C90.3593 80.4085 91.8849 78.8537 91.9721 76.7734H87.3081V76.2479H91.9721C91.8195 74.2552 90.3157 72.788 88.3543 72.788C87.2863 72.788 86.3492 73.0946 85.5864 73.8172L85.1941 73.4012C85.9569 72.5909 87.0902 72.1968 88.3761 72.1968C90.7952 72.1968 92.6041 74.0581 92.6041 76.5982Z" fill="#231F20"/>
<path d="M99.7743 76.8174H97.7038V80.9342H97.0718V72.2627H97.7038V76.2481H99.7743L102.869 72.2627H103.566L100.276 76.489L103.806 80.9342H103.065L99.7743 76.8174Z" fill="#231F20"/>
<path d="M106.661 76.5982C106.661 74.08 108.579 72.1968 111.129 72.1968C112.35 72.1968 113.439 72.5909 114.202 73.4012L113.81 73.8172C113.069 73.0946 112.175 72.788 111.173 72.788C108.972 72.788 107.315 74.4303 107.315 76.5982C107.315 78.7661 108.972 80.4085 111.173 80.4085C112.175 80.4085 113.091 80.1019 113.81 79.3793L114.202 79.7953C113.461 80.6055 112.35 80.9997 111.129 80.9997C108.579 80.9778 106.661 79.1165 106.661 76.5982Z" fill="#231F20"/>
<path d="M125.448 72.2627V80.9342H124.816V72.832H118.975V80.9342H118.343V72.2627H125.448Z" fill="#231F20"/>
<path d="M136.607 80.343V80.9123H130.657V72.2627H136.432V72.832H131.289V76.2481H135.887V76.7955H131.289V80.343H136.607Z" fill="#231F20"/>
<path d="M147.373 75.1751C147.373 76.9926 146.066 78.0875 143.908 78.0875H141.445V80.9123H140.813V72.2627H143.908C146.066 72.2627 147.373 73.3576 147.373 75.1751ZM146.741 75.1751C146.741 73.686 145.761 72.832 143.908 72.832H141.445V77.5182H143.908C145.739 77.5182 146.741 76.6641 146.741 75.1751Z" fill="#231F20"/>
<path d="M156.614 72.832H153.519V80.9342H152.887V72.832H149.792V72.2627H156.636V72.832H156.614Z" fill="#231F20"/>
<path d="M167.402 72.2627V80.9342H166.77V76.8174H161.016V80.9342H160.384V72.2627H161.016V76.2481H166.77V72.2627H167.402Z" fill="#231F20"/>
<path d="M171.848 76.5982C171.848 74.08 173.766 72.1968 176.338 72.1968C178.909 72.1968 180.827 74.0581 180.827 76.5982C180.827 79.1165 178.909 80.9997 176.338 80.9997C173.744 80.9778 171.848 79.0946 171.848 76.5982ZM180.173 76.5982C180.173 74.4084 178.517 72.788 176.338 72.788C174.136 72.788 172.48 74.4084 172.48 76.5982C172.48 78.788 174.136 80.4085 176.338 80.4085C178.517 80.4085 180.173 78.788 180.173 76.5982Z" fill="#231F20"/>
<path d="M185.23 72.2626H185.862V79.8612L191.746 72.2626H192.291V80.9341H191.659V73.3575L185.775 80.9341H185.23V72.2626ZM186.821 70.0947H187.322C187.344 70.7955 187.911 71.2115 188.739 71.2115C189.545 71.2115 190.112 70.7955 190.134 70.0947H190.635C190.613 71.0582 189.85 71.6057 188.717 71.6057C187.606 71.6057 186.843 71.0582 186.821 70.0947Z" fill="#231F20"/>
<path d="M205.477 76.8174H203.406V80.9342H202.774V72.2627H203.406V76.2481H205.477L208.571 72.2627H209.269L205.978 76.489L209.509 80.9342H208.768L205.477 76.8174Z" fill="#231F20"/>
<path d="M212.342 76.5982C212.342 74.08 214.26 72.1968 216.831 72.1968C219.403 72.1968 221.321 74.0581 221.321 76.5982C221.321 79.1165 219.403 80.9997 216.831 80.9997C214.26 80.9778 212.342 79.0946 212.342 76.5982ZM220.667 76.5982C220.667 74.4084 219.011 72.788 216.831 72.788C214.63 72.788 212.974 74.4084 212.974 76.5982C212.974 78.788 214.63 80.4085 216.831 80.4085C219.033 80.4085 220.667 78.788 220.667 76.5982Z" fill="#231F20"/>
<path d="M224.983 76.5982C224.983 74.08 226.901 72.1968 229.451 72.1968C230.671 72.1968 231.761 72.5909 232.524 73.4012L232.131 73.8172C231.39 73.0946 230.497 72.788 229.494 72.788C227.293 72.788 225.636 74.4303 225.636 76.5982C225.636 78.7661 227.293 80.4085 229.494 80.4085C230.497 80.4085 231.412 80.1019 232.131 79.3793L232.524 79.7953C231.783 80.6055 230.671 80.9997 229.451 80.9997C226.879 80.9778 224.983 79.1165 224.983 76.5982Z" fill="#231F20"/>
<path d="M244.815 80.9123L244.794 73.5109L241.176 79.7736H240.871L237.253 73.5328V80.9123H236.643V72.2627H237.166L241.023 78.9634L244.881 72.2627H245.404L245.426 80.9342H244.815V80.9123Z" fill="#231F20"/>
<path d="M256.584 80.343V80.9123H250.634V72.2627H256.388V72.832H251.245V76.2481H255.843V76.7955H251.245V80.343H256.584Z" fill="#231F20"/>
<path d="M266.196 72.832H263.101V80.9342H262.469V72.832H259.374V72.2627H266.218V72.832H266.196Z" fill="#231F20"/>
<path d="M269.073 76.5982C269.073 74.08 270.99 72.1968 273.562 72.1968C276.134 72.1968 278.052 74.0581 278.052 76.5982C278.052 79.1165 276.134 80.9997 273.562 80.9997C270.99 80.9778 269.073 79.0946 269.073 76.5982ZM277.398 76.5982C277.398 74.4084 275.742 72.788 273.562 72.788C271.361 72.788 269.705 74.4084 269.705 76.5982C269.705 78.788 271.361 80.4085 273.562 80.4085C275.763 80.4085 277.398 78.788 277.398 76.5982Z" fill="#231F20"/>
<path d="M288.753 72.2627V80.9342H288.121V72.832H283.653L283.544 76.0072C283.413 79.489 282.846 80.9999 281.408 80.9999C281.212 80.9999 281.016 80.978 280.798 80.9342L280.863 80.343C281.016 80.3868 281.125 80.3868 281.277 80.3868C282.389 80.3868 282.846 79.1386 282.977 76.0291L283.108 72.2627H288.753Z" fill="#231F20"/>
<path d="M293.177 76.5982C293.177 74.08 295.095 72.1968 297.667 72.1968C300.238 72.1968 302.156 74.0581 302.156 76.5982C302.156 79.1165 300.238 80.9997 297.667 80.9997C295.095 80.9778 293.177 79.0946 293.177 76.5982ZM301.502 76.5982C301.502 74.4084 299.846 72.788 297.667 72.788C295.465 72.788 293.809 74.4084 293.809 76.5982C293.809 78.788 295.465 80.4085 297.667 80.4085C299.846 80.4085 301.502 78.788 301.502 76.5982Z" fill="#231F20"/>
<path d="M311.898 72.832H307.191V80.9342H306.559V72.2627H311.898V72.832Z" fill="#231F20"/>
<path d="M315.669 72.2627H316.301V79.8612L322.185 72.2627H322.73V80.9342H322.098V73.3576L316.214 80.9342H315.669V72.2627Z" fill="#231F20"/>
<path d="M327.939 72.2627H328.571V79.8612L334.455 72.2627H335V80.9342H334.368V73.3576L328.484 80.9342H327.939V72.2627Z" fill="#231F20"/>
<path d="M189.327 55.3137C195.364 49.248 195.364 39.4159 189.327 33.3721L172.175 50.6056L183.094 61.5765L189.327 55.3137Z" fill="#25AD5F"/>
<path d="M138.742 55.3137C132.705 49.248 132.705 39.4159 138.742 33.3721L155.916 50.6275L144.997 61.5983L138.742 55.3137Z" fill="#25AD5F"/>
<path d="M155.895 50.8469L135.909 37.0513L138.742 33.3506L155.895 50.8469Z" fill="#2A824D"/>
<path d="M172.415 50.8469L191.964 37.3579L189.567 33.3506L172.415 50.8469Z" fill="#2A824D"/>
<path d="M139.985 53.8251C138.546 52.3141 137.391 50.5404 136.585 48.6134C135.778 46.6864 135.321 44.6061 135.255 42.482C135.19 40.3798 135.56 38.2338 136.323 36.2411C137.086 34.2484 138.241 32.409 139.701 30.8543L140.028 30.5039L140.377 30.8543L149.836 40.4017L154.565 45.1535L156.941 47.5185L157.965 48.7229L158.575 49.336L146.545 60.5039L146.24 60.7229L146.022 60.482L144.54 58.7959C144.038 58.2265 143.559 57.6791 143.036 57.1097C142.534 56.5623 142.033 55.993 141.532 55.4455L139.985 53.8251ZM140.094 53.7156L141.684 55.2922C142.208 55.8178 142.752 56.3433 143.297 56.847C143.842 57.3725 144.387 57.8762 144.932 58.4017L146.566 59.9346L146.043 59.8908C146.043 59.8908 156.919 49.4674 157.442 49.0733L156.984 48.7448L155.829 48.6134L153.541 46.1608L148.942 41.2776L139.701 31.5331H140.355C138.938 32.9565 137.805 34.6645 137.021 36.5477C136.236 38.409 135.8 40.4455 135.756 42.482C135.691 44.5185 136.018 46.5988 136.759 48.5258C137.478 50.4747 138.633 52.2484 140.094 53.7156Z" fill="white"/>
<path d="M154.63 48.3504L152.604 47.4744C161.387 44.4088 165.113 36.9635 160.035 29.1241L141.227 0L138.939 0.788321C130.155 3.85401 127.889 14.562 132.945 22.4015L154.63 48.3504Z" fill="#2A824D"/>
<path d="M155.829 50.6931L157.442 49.0727C163.632 42.8537 163.632 32.7807 157.442 26.5836L134.427 3.48145L132.858 5.14568C126.668 11.3647 126.668 21.4377 132.858 27.6347L155.829 50.6931Z" fill="#25AD5F"/>
<path d="M157.965 49.9054L157.093 49.4455C163.283 43.2265 163.501 33.1316 157.311 26.9127L134.209 3.70097C134.209 3.70097 135.016 2.97834 135.299 2.73747C135.582 2.51849 136.454 1.92725 136.454 1.92725L157.769 26.4528C164.22 32.9346 164.394 43.4455 157.965 49.9054Z" fill="white"/>
<path d="M187.845 53.7156C189.305 52.1828 190.438 50.3433 191.136 48.3287C191.855 46.336 192.16 44.2119 192.095 42.1098C192.029 40.0076 191.594 37.9492 190.831 36.0222C190.068 34.0952 188.935 32.3214 187.518 30.8324H188.303L179.65 40.7959L175.335 45.7886C173.897 47.4528 172.48 49.139 171.02 50.7813L170.954 49.5112C171.434 49.9273 171.913 50.3652 172.371 50.7813C172.85 51.2192 173.33 51.6353 173.788 52.0733C174.725 52.9492 175.662 53.8032 176.577 54.6791C177.035 55.1171 177.493 55.5769 177.95 56.0149C178.408 56.4528 178.866 56.9127 179.323 57.3725C180.217 58.2703 181.11 59.1901 182.026 60.1098L181.394 60.1317L183.028 58.555C183.573 58.0295 184.118 57.5039 184.663 56.9565C185.753 55.8835 186.799 54.8105 187.845 53.7156ZM187.976 53.8251C186.951 54.9419 185.949 56.0806 184.968 57.2411C184.467 57.8105 183.987 58.4017 183.508 58.9711L182.048 60.7229L181.786 61.0295L169.668 49.555C171.129 47.9127 172.632 46.3141 174.136 44.6937L178.604 39.8324L187.518 30.0879L187.91 29.6499L188.303 30.066C189.785 31.6864 190.918 33.6134 191.659 35.6718C192.4 37.7302 192.749 39.92 192.683 42.0879C192.618 44.2557 192.16 46.4017 191.354 48.3725C190.547 50.409 189.414 52.2484 187.976 53.8251Z" fill="white"/>
<path d="M177.558 41.8906L177.34 42.7446C168.426 39.5256 162.869 37.8176 167.947 29.803L186.777 0.0219727L189.087 0.854089C198.001 4.07307 199.657 14.7154 194.579 22.73L177.558 41.8906Z" fill="#2A824D"/>
<path d="M172.262 50.6935L170.649 49.073C164.459 42.854 164.459 32.781 170.649 26.584L193.598 3.43799L195.211 5.14602C201.401 11.365 201.401 21.438 195.211 27.6351L172.262 50.6935Z" fill="#25AD5F"/>
<path d="M169.843 49.7303L170.802 49.2485C164.612 43.0295 164.394 33.1317 170.584 26.9346L193.817 3.63535C193.817 3.63535 192.879 2.84703 192.552 2.62805C192.291 2.45287 191.441 1.94922 191.441 1.94922L170.126 26.4748C163.697 32.9346 163.414 43.2704 169.843 49.7303Z" fill="white"/>
</g>
<defs>
<clipPath id="clip0">
<rect width="335" height="81" fill="white"/>
</clipPath>
</defs>
</svg>
