<svg width="98" height="98" viewBox="0 0 98 98" fill="none" xmlns="http://www.w3.org/2000/svg">
<g filter="url(#filter0_d)">
<circle cx="49" cy="45" r="45" fill="white"/>
</g>
<g filter="url(#filter1_d)">
<path d="M49.08 8C28.5503 8 12 24.5503 12 45.08C12 65.6097 28.5503 82.16 49.08 82.16C69.6097 82.16 86.16 65.6097 86.16 45.08C86.16 24.5503 69.6097 8 49.08 8ZM65.5399 46.7983L40.85 61.2686C40.5787 61.4495 40.1265 61.5399 39.8552 61.5399C39.5839 61.5399 39.1317 61.4495 38.8604 61.2686C38.2273 60.8164 37.8656 60.2738 37.8656 59.5502V30.7002H37.7751C37.7751 29.9767 38.2273 29.2532 38.77 28.9819C39.3126 28.7105 40.217 28.5297 40.85 28.9819L65.5399 43.3617C66.173 43.8139 66.5347 44.3565 66.5347 45.08C66.5347 45.8035 66.0825 46.527 65.5399 46.7983Z" fill="#7449D0"/>
</g>
<defs>
<filter id="filter0_d" x="0" y="0" width="98" height="98" filterUnits="userSpaceOnUse" color-interpolation-filters="sRGB">
<feFlood flood-opacity="0" result="BackgroundImageFix"/>
<feColorMatrix in="SourceAlpha" type="matrix" values="0 0 0 0 0 0 0 0 0 0 0 0 0 0 0 0 0 0 127 0"/>
<feOffset dy="4"/>
<feGaussianBlur stdDeviation="2"/>
<feColorMatrix type="matrix" values="0 0 0 0 0 0 0 0 0 0 0 0 0 0 0 0 0 0 0.25 0"/>
<feBlend mode="normal" in2="BackgroundImageFix" result="effect1_dropShadow"/>
<feBlend mode="normal" in="SourceGraphic" in2="effect1_dropShadow" result="shape"/>
</filter>
<filter id="filter1_d" x="8" y="8" width="82.16" height="82.16" filterUnits="userSpaceOnUse" color-interpolation-filters="sRGB">
<feFlood flood-opacity="0" result="BackgroundImageFix"/>
<feColorMatrix in="SourceAlpha" type="matrix" values="0 0 0 0 0 0 0 0 0 0 0 0 0 0 0 0 0 0 127 0"/>
<feOffset dy="4"/>
<feGaussianBlur stdDeviation="2"/>
<feColorMatrix type="matrix" values="0 0 0 0 0 0 0 0 0 0 0 0 0 0 0 0 0 0 0.25 0"/>
<feBlend mode="normal" in2="BackgroundImageFix" result="effect1_dropShadow"/>
<feBlend mode="normal" in="SourceGraphic" in2="effect1_dropShadow" result="shape"/>
</filter>
</defs>
</svg>
