<svg width="29" height="17" viewBox="0 0 29 17" fill="none" xmlns="http://www.w3.org/2000/svg">
<path fill-rule="evenodd" clip-rule="evenodd" d="M27.7884 1.40106C27.9843 0.747964 27.7884 0.268066 26.8563 0.268066H23.7741C22.9904 0.268066 22.6291 0.682627 22.4331 1.13977C22.4331 1.13977 20.8657 4.96032 18.6452 7.44202C17.9269 8.1604 17.6003 8.38897 17.2084 8.38897C17.0125 8.38897 16.7289 8.1604 16.7289 7.50736V1.40106C16.7289 0.617346 16.5015 0.268066 15.8483 0.268066H11.0048C10.5151 0.268066 10.2205 0.631806 10.2205 0.976535C10.2205 1.71948 11.3307 1.89081 11.4451 3.98071V8.51964C11.4451 9.51478 11.2654 9.69521 10.8736 9.69521C9.82866 9.69521 7.28695 5.85758 5.77948 1.46634C5.48405 0.612837 5.18774 0.268066 4.4 0.268066H1.31776C0.437123 0.268066 0.260986 0.682627 0.260986 1.13977C0.260986 1.95615 1.30593 6.00527 5.12644 11.3605C7.67342 15.0177 11.2619 17.0002 14.5274 17.0002C16.4866 17.0002 16.729 16.5599 16.729 15.8015V13.0373C16.729 12.1567 16.9146 11.981 17.535 11.981C17.9921 11.981 18.7758 12.2095 20.6045 13.9728C22.6944 16.0627 23.0389 17.0002 24.2144 17.0002H27.2966C28.1773 17.0002 28.6176 16.5599 28.3636 15.691C28.0856 14.8249 27.0878 13.5684 25.7639 12.0789C25.0454 11.2299 23.9679 10.3156 23.6413 9.85839C23.1842 9.27069 23.3148 9.00939 23.6413 8.48697C23.6413 8.48697 27.3966 3.197 27.7884 1.40106Z" fill="#C4C4C4"/>
</svg>
