<svg width="36" height="22" viewBox="0 0 36 22" fill="none" xmlns="http://www.w3.org/2000/svg">
<path fill-rule="evenodd" clip-rule="evenodd" d="M35.1739 2.06783C35.4242 1.23332 35.1739 0.620117 33.9829 0.620117H30.0445C29.0431 0.620117 28.5814 1.14983 28.331 1.73396C28.331 1.73396 26.3282 6.61577 23.491 9.78683C22.573 10.7048 22.1557 10.9968 21.655 10.9968C21.4047 10.9968 21.0423 10.7048 21.0423 9.87031V2.06783C21.0423 1.06642 20.7517 0.620117 19.9171 0.620117H13.7282C13.1024 0.620117 12.726 1.0849 12.726 1.52538C12.726 2.4747 14.1446 2.69362 14.2908 5.36405V11.1638C14.2908 12.4354 14.0612 12.6659 13.5605 12.6659C12.2253 12.6659 8.97761 7.76227 7.0514 2.15124C6.67391 1.06066 6.29529 0.620117 5.28874 0.620117H1.35032C0.225064 0.620117 0 1.14983 0 1.73396C0 2.77711 1.33521 7.95099 6.21696 14.7938C9.47143 19.4669 14.0568 22.0001 18.2292 22.0001C20.7327 22.0001 21.0424 21.4374 21.0424 20.4683V16.9364C21.0424 15.8111 21.2796 15.5866 22.0723 15.5866C22.6564 15.5866 23.6579 15.8786 25.9945 18.1318C28.6648 20.8021 29.1051 22.0001 30.6071 22.0001H34.5455C35.6708 22.0001 36.2334 21.4374 35.9089 20.3271C35.5537 19.2205 34.2787 17.615 32.587 15.7117C31.669 14.6269 30.2921 13.4587 29.8748 12.8744C29.2907 12.1235 29.4576 11.7896 29.8748 11.122C29.8748 11.122 34.6732 4.36264 35.1739 2.06783Z" fill="#7449D0"/>
</svg>
