<svg width="64" height="54" viewBox="0 0 64 54" fill="none" xmlns="http://www.w3.org/2000/svg">
<g filter="url(#filter0_d)">
<path d="M40.52 9.449C38.24 7.245 35.24 6 32.045 6C22.875 6 17.117 15.935 21.696 23.838L20 30L26.335 28.348C29.095 29.839 31.356 29.707 32.051 29.795C42.684 29.795 47.977 16.931 40.505 9.488L40.52 9.449Z" fill="#ECEFF1"/>
</g>
<path d="M32.0669 27.7512L32.0609 27.7502H32.0449C28.8629 27.7502 26.8299 26.2432 26.6299 26.1562L22.8799 27.1312L23.8849 23.4862L23.6459 23.1112C22.6559 21.5352 22.1299 19.7202 22.1299 17.8512C22.1299 9.05821 32.8749 4.66121 39.0929 10.8762C45.2959 17.0262 40.9409 27.7512 32.0669 27.7512Z" fill="#4CAF50"/>
<path d="M37.5071 20.3062L37.4981 20.3812C37.1971 20.2312 35.7311 19.5142 35.4581 19.4152C34.8451 19.1882 35.0181 19.3792 33.8411 20.7272C33.6661 20.9222 33.4921 20.9372 33.1951 20.8022C32.8951 20.6522 31.9321 20.3372 30.7921 19.3172C29.9041 18.5222 29.3081 17.5472 29.1321 17.2472C28.8391 16.7412 29.4521 16.6692 30.0101 15.6132C30.1101 15.4032 30.0591 15.2382 29.9851 15.0892C29.9101 14.9392 29.3131 13.4692 29.0631 12.8832C28.8231 12.2992 28.5761 12.3732 28.3911 12.3732C27.8151 12.3232 27.3941 12.3312 27.0231 12.7172C25.4091 14.4912 25.8161 16.3212 27.1971 18.2672C29.9111 21.8192 31.3571 22.4732 34.0011 23.3812C34.7151 23.6082 35.3661 23.5762 35.8811 23.5022C36.4551 23.4112 37.6481 22.7812 37.8971 22.0762C38.1521 21.3712 38.1521 20.7862 38.0771 20.6512C38.0031 20.5162 37.8071 20.4412 37.5071 20.3062Z" fill="#FAFAFA"/>
<defs>
<filter id="filter0_d" x="0" y="-10" width="64.0003" height="64" filterUnits="userSpaceOnUse" color-interpolation-filters="sRGB">
<feFlood flood-opacity="0" result="BackgroundImageFix"/>
<feColorMatrix in="SourceAlpha" type="matrix" values="0 0 0 0 0 0 0 0 0 0 0 0 0 0 0 0 0 0 127 0"/>
<feOffset dy="4"/>
<feGaussianBlur stdDeviation="10"/>
<feColorMatrix type="matrix" values="0 0 0 0 0.184314 0 0 0 0 0.666667 0 0 0 0 0.203922 0 0 0 1 0"/>
<feBlend mode="normal" in2="BackgroundImageFix" result="effect1_dropShadow"/>
<feBlend mode="normal" in="SourceGraphic" in2="effect1_dropShadow" result="shape"/>
</filter>
</defs>
</svg>
