<svg width="31" height="22" viewBox="0 0 31 22" fill="none" xmlns="http://www.w3.org/2000/svg">
<path d="M30.4643 3.53896C30.0848 1.86036 28.7363 0.621927 27.113 0.437189C23.2688 0.000269086 19.3779 -0.00201151 15.505 0.000269204C11.6314 -0.00201151 7.73984 0.000269086 3.89568 0.437189C2.27328 0.621927 0.92576 1.86036 0.54624 3.53896C0.00608002 5.92948 0 8.53894 0 11.0002C0 13.4614 0 16.0705 0.54016 18.4607C0.91904 20.139 2.26688 21.3774 3.89024 21.5625C7.73408 21.9997 11.6253 22.002 15.4989 21.9997C19.3731 22.002 23.2634 21.9997 27.1069 21.5625C28.7293 21.3778 30.0781 20.1393 30.4576 18.4607C30.9981 16.0702 31 13.4611 31 11.0002C31 8.53894 31.0045 5.92948 30.4643 3.53896ZM11.4995 15.8991C11.4995 12.4077 11.4995 8.95273 11.4995 5.46096C14.785 7.20636 18.0486 8.94003 21.3549 10.6962C18.0589 12.4367 14.7936 14.1599 11.4995 15.8991Z" fill="#7449D0"/>
</svg>
