<svg width="25" height="18" viewBox="0 0 25 18" fill="none" xmlns="http://www.w3.org/2000/svg">
<path d="M24.3201 3.55234C24.023 2.23865 22.9677 1.26944 21.6973 1.12486C18.6888 0.782925 15.6437 0.781141 12.6127 0.782926C9.58121 0.781141 6.53567 0.782925 3.52719 1.12486C2.25748 1.26944 1.2029 2.23865 0.905886 3.55234C0.483152 5.42318 0.478394 7.46537 0.478394 9.39155C0.478394 11.3177 0.478394 13.3597 0.901128 15.2302C1.19764 16.5437 2.25248 17.5129 3.52293 17.6577C6.53116 17.9999 9.57645 18.0017 12.608 17.9999C15.64 18.0017 18.6845 17.9999 21.6925 17.6577C22.9622 17.5131 24.0178 16.5439 24.3148 15.2302C24.7378 13.3594 24.7393 11.3175 24.7393 9.39155C24.7393 7.46537 24.7428 5.42318 24.3201 3.55234ZM9.47803 13.2255C9.47803 10.4931 9.47803 7.78921 9.47803 5.05651C12.0492 6.42248 14.6034 7.77926 17.1909 9.15364C14.6114 10.5158 12.056 11.8644 9.47803 13.2255Z" fill="#C4C4C4"/>
</svg>
